<svg width="130" height="190" viewBox="0 0 130 190" fill="none" xmlns="http://www.w3.org/2000/svg">
<path d="M46.5126 58.4123C45.5443 58.4791 44.6761 58.1785 43.3182 58.3789C42.1161 58.557 41.337 58.6349 40.2128 58.5013C39.0886 58.3566 36.0167 56.0193 33.5457 53.8266C30.6184 51.2332 27.9806 47.3042 27.2126 45.2562C25.9103 41.7947 23.9068 34.649 22.9608 32.2448C22.0258 29.8518 20.8015 29.3843 19.2989 29.184C17.5403 28.9391 16.4161 29.6292 17.3288 33.2243C18.2526 36.8194 20.2672 43.6868 22.7382 48.0944C23.9402 50.2315 26.1441 53.4927 29.8838 56.8429C32.4995 59.1803 34.9259 60.5493 37.9979 62.2411C38.8326 62.7086 39.3446 63.254 40.8361 64.3225C42.3276 65.391 44.3088 66.2703 45.8448 66.4039C47.3696 66.5486 47.9484 66.3482 48.1154 66.0588C48.3157 65.6804 48.0597 65.3799 47.3696 65.2352C46.6795 65.0905 45.5109 64.9681 44.1864 64.2112C44.1864 64.2112 45.6778 64.6008 46.6016 64.7566C47.5143 64.9124 48.427 64.9235 49.0726 64.8456C49.8628 64.7566 50.4193 63.7103 49.7293 63.5434C49.028 63.3764 48.4493 63.4432 47.1025 63.1983C45.867 62.9757 45.01 62.5639 45.01 62.5639C45.01 62.5639 46.4903 62.7531 47.7592 62.6863C49.028 62.6084 49.54 62.319 49.8628 62.1076C50.1856 61.8961 50.3192 61.1949 49.4287 61.117C48.6274 61.039 47.5922 61.2839 46.0896 60.8944C44.9989 60.6161 44.2754 60.2711 44.4646 60.1375C44.6538 60.0151 45.2771 60.2154 46.2343 60.0039C47.147 59.7924 47.915 59.0467 47.7592 58.5458C47.6034 58.045 47.4921 58.3455 46.5126 58.4123Z" fill="#FFA8A7"/>
<path d="M23.6953 33.5027C23.0943 31.5326 22.6379 30.5866 21.447 29.7629C20.2561 28.9281 19.2432 28.9949 19.2432 28.9949L16.6943 40.2811L19.2432 46.0689C23.2613 47.0929 26.6004 42.8299 26.6004 42.8299C26.6004 42.8299 24.2407 35.3281 23.6953 33.5027Z" fill="#E4F2F2"/>
<path d="M10.2388 118.049C10.2388 118.049 9.98281 119.006 9.63777 119.774C9.30386 120.542 8.91429 121.833 8.96995 122.501C9.01447 123.169 10.4058 124.315 11.4075 124.604C12.4092 124.894 13.8339 126.218 14.3014 127.042C14.9692 128.222 17.0729 129.335 18.5309 129.391C19.989 129.435 21.6474 129.346 22.0815 128.812C22.5156 128.289 22.126 127.565 19.4436 124.983C16.7612 122.401 14.947 120.809 14.3014 118.683L10.2388 118.049Z" fill="#2D2979"/>
<path d="M2.98172 125.985C2.67007 126.797 2.0579 127.254 2.23599 129.402C2.40294 131.55 2.21372 132.407 2.00224 134.154C1.79076 135.913 2.68119 138.317 3.52709 139.43C4.36187 140.554 6.66585 140.788 7.38933 138.796C8.1128 136.803 8.29089 135.123 7.77889 133.119C7.2669 131.116 7.94586 129.591 7.61195 128.244C7.27804 126.897 6.79942 125.985 6.79942 125.985H2.98172Z" fill="#2D2979"/>
<path d="M2.9816 70.6892C3.05951 72.9375 3.74959 82.71 4.07237 87.8745C4.38402 93.0501 4.84037 99.0605 4.84037 99.0605C4.84037 99.0605 3.56038 103.145 2.9816 107.575C2.40282 112.005 2.9816 125.974 2.9816 125.974C2.9816 125.974 4.65115 127.22 6.78818 125.974C6.78818 125.974 9.41495 113.663 10.5168 108.621C11.6188 103.579 12.7652 101.197 12.9766 98.0253C13.1993 94.8532 14.3123 77.2672 14.3123 77.2672L14.9133 77.3006L16.3714 93.384C16.3714 93.384 14.4347 96.4893 13.6111 99.6504C12.7986 102.823 10.2274 118.038 10.2274 118.038C10.2274 118.038 12.0306 120.063 14.3012 118.683C14.3012 118.683 23.2388 98.2368 24.0625 96.2222C24.875 94.2076 23.6952 65.3689 23.6952 65.3689L2.9816 70.6892Z" fill="#7FA8E6"/>
<path d="M14.3347 77.2782C14.3347 77.2782 18.3862 75.7756 20.2004 74.3732C20.2004 74.3732 19.1542 75.9759 16.661 77.2893C16.4495 79.4041 16.3938 93.3838 16.3938 93.3838L14.9357 77.3004L14.3347 77.2782Z" fill="#597BC6"/>
<path d="M8.3798 27.2029C8.3798 27.2029 8.6358 32.1114 8.5245 32.5454C8.41319 32.9795 6.27616 34.4153 5.65286 34.9273C5.02957 35.4393 9.04762 39.4017 10.9954 40.3033C12.9432 41.1937 19.1317 38.8341 19.243 35.7955C19.3543 32.7569 18.1856 30.2081 17.2396 30.0745C16.2824 29.9409 8.3798 27.2029 8.3798 27.2029Z" fill="#FFA8A7"/>
<path d="M8.37988 27.1806L8.52458 30.5754C8.52458 30.5754 11.6522 33.536 14.1454 33.0908C15.5367 32.8459 15.392 31.9333 15.392 31.9333V29.0839L8.37988 27.1806Z" fill="#F28F8F"/>
<path d="M7.82343 33.2799C7.82343 33.2799 11.3851 38.578 16.3493 39.0788C17.9187 37.5317 18.0522 32.0444 15.8929 30.2858C15.8929 30.2858 17.8853 28.6831 19.2432 28.9947C19.2432 28.9947 21.3913 30.1078 22.304 32.9126C23.2167 35.7063 24.1405 39.0566 24.0515 44.2656C23.9624 49.4746 24.0515 65.3687 24.0515 65.3687C24.0515 65.3687 23.3503 68.7301 18.8647 71.2344C14.3792 73.7387 11.0401 73.9836 7.99039 73.2713C5.47493 72.6813 3.40468 71.802 2.53651 69.9767C2.75912 66.3259 4.39529 56.8095 3.78312 52.2238C3.17095 47.6381 2.20261 44.2099 1.95774 40.5035C1.71288 36.7971 2.44748 36.875 4.30625 35.5505C6.81058 33.7696 7.82343 33.2799 7.82343 33.2799Z" fill="#F5FBFB"/>
<path d="M16.3493 39.0789C16.3493 39.0789 16.7723 36.7192 16.7723 35.4504C16.661 33.7474 15.3921 31.5325 15.3921 31.5325V30.1635C15.3921 30.1635 16.3716 30.3193 17.2063 31.3433C18.0411 32.3673 19.3211 34.5822 19.0095 36.7415C19.0095 36.7415 18.375 38.0103 16.3493 39.0789Z" fill="#E4F2F2"/>
<path d="M16.3494 39.0788C16.7055 38.3776 17.3956 36.0179 17.7295 35.6729C18.3862 35.4614 19.0095 36.7414 19.0095 36.7414C19.0095 36.7414 18.9873 38.1104 18.1636 38.8896C17.34 39.6687 16.3494 39.0788 16.3494 39.0788Z" fill="#F5FBFB"/>
<path d="M17.7295 35.6729C17.3956 36.0179 16.7055 38.3776 16.3494 39.0788C16.3494 39.0788 16.7278 38.4221 17.0951 37.9435C17.4624 37.4649 17.9076 36.5633 18.9984 36.7414C19.0095 36.7414 18.3862 35.4503 17.7295 35.6729Z" fill="#C8DBDA"/>
<path d="M19.4769 19.9013C18.887 16.0947 16.149 13.212 12.22 13.4235C8.04609 13.6572 4.84053 17.23 5.07427 21.4039C5.20783 23.8526 6.49896 25.9228 8.36886 27.2028C8.36886 27.2028 8.72503 28.583 8.98103 28.8724C10.3723 30.4974 14.5685 31.4991 15.7817 31.3322C17.3288 31.1096 18.1747 30.464 18.9093 28.7722C20.2116 25.7781 19.7997 21.7824 19.4769 19.9013Z" fill="#FFA8A7"/>
<path d="M18.9092 16.8294C17.2841 14.3585 14.3123 12.9004 11.0623 13.5794C9.08105 13.9912 7.38923 15.2044 6.30959 16.8517C4.67343 17.4305 4.50649 18.6659 4.70683 20.6694C4.91831 22.773 5.33013 24.821 6.35412 26.6019C6.69916 27.2029 7.7788 26.8022 8.37983 27.2141C8.29079 26.9581 6.32073 23.9974 8.35759 23.3407C8.68037 23.7191 8.7694 24.2979 8.78053 24.8878C8.78053 24.8878 9.7934 24.7876 9.55967 23.6078C9.49288 23.2739 9.43723 22.9734 9.38158 22.7063C9.20349 21.7824 9.43723 20.8586 9.96036 20.0795C10.3833 19.4562 10.7395 18.5769 10.4946 17.6086C10.4946 17.6086 13.0212 18.7327 16.2379 18.0538C17.6069 17.7644 18.5307 17.2524 18.9092 16.8294Z" fill="#543354"/>
<path d="M6.3097 16.8405C6.3097 16.8405 5.84224 15.3379 7.76779 13.8798C10.0606 12.1435 13.2884 12.533 16.6943 13.8798C18.8647 14.748 22.2372 13.6795 21.5917 16.1726C20.6345 19.8234 13.5778 20.1351 10.5058 17.5973C10.2832 17.5306 8.05717 16.4509 6.3097 16.8405Z" fill="#543354"/>
<path d="M8.37989 27.1805C8.37989 27.1805 8.20182 27.5812 7.46721 27.6257C6.08705 27.6925 4.47315 25.1325 5.58618 23.3962C6.27626 22.3054 7.84565 22.695 8.35764 23.3406L8.37989 27.1805Z" fill="#FFA8A7"/>
<path d="M8.54688 31.566C8.63592 32.3229 12.6317 35.2947 13.5778 35.6731C14.535 36.0627 16.3492 39.079 16.3492 39.079C14.9246 38.8341 13.7447 39.424 12.7208 40.4925C12.7208 40.4925 7.04428 38.1106 6.13159 34.2929C6.13159 34.2929 7.18897 32.245 7.3448 31.7218C7.50062 31.1987 7.9347 30.5977 8.52461 30.5643L8.54688 31.566Z" fill="#E4F2F2"/>
<path d="M12.7207 40.4926C12.7207 40.4926 13.1437 37.5653 13.7447 37.2982C14.3569 37.0311 16.3492 39.0679 16.3492 39.0679C15.5589 39.7691 14.4793 40.437 12.7207 40.4926Z" fill="#F5FBFB"/>
<path d="M13.7447 37.3092C13.1325 37.5763 12.7207 40.5036 12.7207 40.5036C12.7207 40.5036 14.3123 39.0455 14.8021 38.9008C15.2918 38.7561 16.3492 39.09 16.3492 39.09C16.3492 39.09 14.3569 37.0421 13.7447 37.3092Z" fill="#C8DBDA"/>
<path opacity="0.15" d="M116.99 148.713L63.9983 179.31C63.1969 179.777 62.1507 180 61.1044 180C60.0582 180 59.0119 179.777 58.2105 179.31L5.21893 148.713C4.41754 148.256 4.01685 147.655 4.01685 147.043C4.01685 146.609 4.22833 146.164 4.65128 145.785C4.80711 145.641 4.99632 145.496 5.21893 145.374L58.2105 114.787C59.8022 113.864 62.3955 113.864 63.9983 114.787L116.99 145.374C118.582 146.297 118.582 147.8 116.99 148.713Z" fill="#6B99D1"/>
<path d="M116.99 113.262L63.9983 143.849C63.1969 144.316 62.1507 144.539 61.1044 144.539C60.0582 144.539 59.023 144.316 58.2216 143.86L5.21893 113.262C4.41754 112.795 4.01685 112.194 4.01685 111.593C4.01685 110.981 4.41754 110.38 5.21893 109.923L13.6335 105.07L58.2105 79.3259C59.8022 78.4021 62.3955 78.4021 63.9983 79.3259L116.99 109.923C118.582 110.836 118.582 112.339 116.99 113.262Z" fill="#DCEEFF"/>
<path d="M61.1044 132.473V144.539C60.0582 144.539 59.023 144.316 58.2216 143.86L5.21893 113.262C4.41754 112.795 4.01685 112.194 4.01685 111.593V101.142C4.01685 100.707 4.22833 100.262 4.65128 99.8838L13.6335 105.071L61.1044 132.473Z" fill="#A5CBFA"/>
<path d="M61.1042 132.473V144.539C62.1505 144.539 63.1856 144.316 63.987 143.86L116.99 113.262C117.791 112.795 118.192 112.194 118.192 111.593V101.142C118.192 100.707 117.98 100.262 117.557 99.8838L108.575 105.071L61.1042 132.473Z" fill="#C8E2FF"/>
<path d="M116.99 102.811L63.9983 133.409C63.1969 133.876 62.1507 134.099 61.1044 134.099C60.0582 134.099 59.0119 133.876 58.2105 133.409L5.21893 102.811C4.41754 102.355 4.01685 101.754 4.01685 101.142C4.01685 100.708 4.22833 100.262 4.65128 99.8839C4.80711 99.7392 4.99632 99.5945 5.21893 99.4721L58.2105 68.8859C59.8022 67.962 62.3955 67.962 63.9983 68.8859L116.99 99.4721C118.582 100.396 118.582 101.898 116.99 102.811Z" fill="#DCEEFF"/>
<path d="M61.0932 69.3086C61.9836 69.3086 62.8406 69.5089 63.4305 69.854L116.422 100.44C116.89 100.718 117.068 100.997 117.057 101.153C117.057 101.308 116.89 101.587 116.422 101.854L63.4305 132.451C62.8406 132.796 61.9947 132.985 61.0932 132.985C60.1916 132.985 59.3457 132.785 58.7558 132.44L5.76421 101.843C5.37465 101.62 5.11865 101.353 5.11865 101.141C5.11865 101.019 5.21882 100.863 5.39691 100.696C5.50821 100.596 5.61952 100.507 5.76421 100.429L58.7558 69.8428C59.3568 69.5089 60.2139 69.3086 61.0932 69.3086ZM61.0932 68.1956C60.0469 68.1956 59.0007 68.4293 58.1993 68.8856L5.20769 99.4718C4.98509 99.5943 4.79586 99.739 4.64004 99.8837C4.21708 100.262 4.00562 100.707 4.00562 101.141C4.00562 101.754 4.40631 102.355 5.20769 102.811L58.1993 133.408C59.0007 133.876 60.0469 134.098 61.0932 134.098C62.1394 134.098 63.1857 133.876 63.9871 133.408L116.979 102.811C118.57 101.898 118.57 100.396 116.979 99.4718L63.9871 68.8856C63.1968 68.4293 62.1394 68.1956 61.0932 68.1956Z" fill="white"/>
<path d="M59.1676 76.154L17.8072 100.029C16.7387 100.641 16.7387 101.642 17.8072 102.255L59.1676 126.129C60.2361 126.741 61.9613 126.741 63.0187 126.129L104.379 102.255C105.448 101.642 105.448 100.641 104.379 100.029L63.0299 76.154C61.9613 75.5418 60.2361 75.5418 59.1676 76.154Z" fill="#2D3192"/>
<path d="M104.379 100.04L63.0298 76.1538C62.4955 75.8422 61.7943 75.6975 61.1042 75.6975V77.6564L104.056 102.455L104.39 102.266C105.448 101.642 105.448 100.652 104.379 100.04Z" fill="#1E3779"/>
<path d="M61.1044 75.6975C60.4032 75.6975 59.7131 75.8533 59.1788 76.1538L17.8185 100.028C16.75 100.641 16.75 101.642 17.8185 102.255L18.1524 102.444L61.1044 77.6453V75.6975Z" fill="#031F60"/>
<path d="M47.5364 88.097L61.0931 95.9328V54.1606L47.5364 46.3359V88.097Z" fill="#E37600"/>
<path d="M61.093 95.9328L74.6609 88.097V46.3359L61.093 54.1606V95.9328Z" fill="#FF931E"/>
<path d="M74.661 46.3358L61.0931 38.5001L47.5364 46.3358L61.0931 54.1605L74.661 46.3358Z" fill="#FFAC53"/>
<path d="M61.0931 95.9328C61.0931 95.9328 60.8928 95.7659 60.7815 95.4653C60.6368 95.1648 60.6924 94.7085 60.6813 94.1408C60.6813 92.9944 60.6924 91.3694 60.7036 89.4104C60.7258 85.4926 60.7481 80.2724 60.7703 75.0523C60.8371 69.8322 60.8705 64.612 60.9707 60.6941C61.0486 56.7763 61.1043 54.1718 61.1043 54.1718C61.1043 54.1718 61.1599 56.7874 61.2378 60.6941C61.338 64.612 61.3714 69.8322 61.427 75.0523C61.4493 80.2724 61.4715 85.4926 61.4938 89.4104C61.5049 91.3694 61.5049 93.0055 61.5161 94.1408C61.5049 94.7085 61.5717 95.1648 61.4159 95.4653C61.2935 95.7659 61.0931 95.9328 61.0931 95.9328Z" fill="white"/>
<path d="M74.6611 46.3357C74.65 46.3135 74.7056 46.5361 74.6611 46.6919C74.6389 46.8811 74.4608 46.9145 74.2827 47.0369C73.9154 47.2484 73.3811 47.5489 72.7467 47.9162C71.4778 48.6508 69.7638 49.6081 68.0497 50.543C66.3245 51.4668 64.6104 52.4129 63.297 53.0696C61.9948 53.7485 61.1155 54.1715 61.1155 54.1715C61.1155 54.1715 61.928 53.615 63.1635 52.8247C64.3878 52.0122 66.0685 50.9993 67.7269 49.9642C69.3965 48.9402 71.0771 47.9385 72.346 47.2039C72.9804 46.8366 73.5036 46.525 73.882 46.3135C74.0712 46.2133 74.1825 46.0797 74.3606 46.1577C74.5053 46.191 74.6722 46.358 74.6611 46.3357Z" fill="white"/>
<path d="M70.1421 101.142L83.6989 108.977L83.71 72.4365L70.1421 64.6007V101.142Z" fill="#E37600"/>
<path d="M83.6987 108.977L97.2666 101.142V64.6007L83.7099 72.4365L83.6987 108.977Z" fill="#FF931E"/>
<path d="M97.2667 64.6007L83.6989 56.7649L70.1421 64.6007L83.71 72.4364L97.2667 64.6007Z" fill="#FFAC53"/>
<path d="M83.6988 108.977C83.6988 108.977 83.4985 108.833 83.3872 108.566C83.2425 108.299 83.2981 107.909 83.287 107.408C83.287 106.406 83.2981 104.982 83.3093 103.268C83.3315 99.8395 83.3315 95.276 83.3872 90.7014C83.454 86.138 83.4874 81.5634 83.5764 78.1353C83.6543 74.7071 83.71 72.4254 83.71 72.4254C83.71 72.4254 83.7656 74.7071 83.8435 78.1353C83.9326 81.5634 83.966 86.1269 84.0327 90.7014C84.0884 95.2649 84.0773 99.8395 84.0995 103.268C84.1106 104.982 84.1106 106.406 84.1218 107.408C84.1106 107.909 84.1774 108.299 84.0216 108.566C83.8992 108.833 83.6988 108.977 83.6988 108.977Z" fill="white"/>
<path d="M97.2668 64.6006C97.2557 64.5784 97.3113 64.801 97.2668 64.9568C97.2446 65.146 97.0665 65.1794 96.8884 65.3018C96.5211 65.5133 95.9868 65.8138 95.3524 66.1811C94.0835 66.9157 92.3695 67.873 90.6554 68.8079C88.9302 69.7317 87.2161 70.6778 85.9027 71.3345C84.6005 72.0134 83.7212 72.4364 83.7212 72.4364C83.7212 72.4364 84.5337 71.8799 85.7692 71.0896C86.9935 70.2771 88.6742 69.2642 90.3326 68.2291C92.0022 67.2051 93.6828 66.2034 94.9517 65.4688C95.5861 65.1015 96.1093 64.7898 96.4877 64.5784C96.6769 64.4782 96.7882 64.3446 96.9663 64.4225C97.111 64.4559 97.2779 64.6229 97.2668 64.6006Z" fill="white"/>
<path d="M24.9194 101.142L38.4873 108.977V67.2163L24.9194 59.3805V101.142Z" fill="#E37600"/>
<path d="M38.4873 108.977L52.0552 101.142L52.0441 59.3805L38.4873 67.2163V108.977Z" fill="#FF931E"/>
<path d="M52.0441 59.3806L38.4873 51.5448L24.9194 59.3806L38.4873 67.2163L52.0441 59.3806Z" fill="#FFAC53"/>
<path d="M38.4874 108.977C38.4874 108.977 38.2871 108.81 38.1758 108.51C38.0311 108.209 38.0867 107.753 38.0756 107.185C38.0756 106.039 38.0867 104.414 38.0978 102.455C38.1201 98.5371 38.1424 93.317 38.1758 88.0968C38.2425 82.8767 38.2759 77.6566 38.3761 73.7387C38.454 69.8208 38.5097 67.2163 38.5097 67.2163C38.5097 67.2163 38.5653 69.8319 38.6432 73.7387C38.7434 77.6566 38.7768 82.8767 38.8324 88.0968C38.8547 93.317 38.877 98.5371 38.8992 102.455C38.9104 104.414 38.9104 106.05 38.9215 107.185C38.9104 107.753 38.9771 108.209 38.8213 108.51C38.6766 108.822 38.4874 108.977 38.4874 108.977Z" fill="white"/>
<path d="M52.0442 59.3803C52.033 59.358 52.0887 59.5806 52.0442 59.7365C52.0219 59.9257 51.8438 59.9591 51.6657 60.0815C51.2984 60.293 50.7642 60.5935 50.1297 60.9608C48.8609 61.6954 47.1468 62.6526 45.4327 63.5876C43.7075 64.5114 41.9935 65.4575 40.6801 66.1142C39.3778 66.7931 38.4985 67.2161 38.4985 67.2161C38.4985 67.2161 39.311 66.6595 40.5465 65.8693C41.7709 65.0568 43.4515 64.0439 45.1099 63.0088C46.7795 61.9848 48.4602 60.9831 49.7291 60.2485C50.3635 59.8812 50.8866 59.5695 51.265 59.358C51.4542 59.2579 51.5656 59.1243 51.7436 59.2022C51.8883 59.2356 52.0553 59.4026 52.0442 59.3803Z" fill="white"/>
<path d="M47.5364 114.197L61.0931 122.033L61.1043 90.7012L47.5364 82.8766V114.197Z" fill="#E37600"/>
<path d="M61.093 122.033L74.6609 114.197V82.8766L61.1042 90.7012L61.093 122.033Z" fill="#FF931E"/>
<path d="M74.661 82.8765L61.0931 75.0408L47.5364 82.8765L61.1043 90.7012L74.661 82.8765Z" fill="#FFAC53"/>
<path d="M61.0931 122.033C61.0931 122.033 60.8928 121.911 60.7815 121.677C60.6368 121.443 60.6924 121.109 60.6813 120.686C60.6813 119.829 60.6924 118.605 60.7036 117.136C60.7258 114.197 60.7258 110.279 60.7815 106.362C60.8482 102.444 60.8816 98.5258 60.9707 95.5985C61.0486 92.6601 61.1043 90.7012 61.1043 90.7012C61.1043 90.7012 61.1599 92.6601 61.2378 95.5985C61.3269 98.5369 61.3602 102.455 61.427 106.373C61.4827 110.291 61.4715 114.208 61.4938 117.136C61.5049 118.605 61.5049 119.829 61.5161 120.686C61.5049 121.109 61.5717 121.454 61.4159 121.677C61.2935 121.911 61.0931 122.033 61.0931 122.033Z" fill="white"/>
<path d="M74.6611 82.8764C74.65 82.8541 74.7056 83.0767 74.6611 83.2326C74.6389 83.4218 74.4608 83.4552 74.2827 83.5776C73.9154 83.7891 73.3811 84.0896 72.7467 84.4569C71.4778 85.1915 69.7638 86.1487 68.0497 87.0837C66.3245 88.0075 64.6104 88.9536 63.297 89.6103C61.9948 90.2892 61.1155 90.7122 61.1155 90.7122C61.1155 90.7122 61.928 90.1556 63.1635 89.3654C64.3878 88.5529 66.0685 87.54 67.7269 86.5049C69.3965 85.4809 71.0771 84.4792 72.346 83.7445C72.9804 83.3772 73.5036 83.0656 73.882 82.8541C74.0712 82.754 74.1825 82.6204 74.3606 82.6983C74.5053 82.7317 74.6722 82.8986 74.6611 82.8764Z" fill="white"/>
<path d="M28.5035 68.129C27.5352 68.129 26.667 67.8285 25.298 67.9287C24.0959 68.0177 23.595 68.04 22.5154 67.6949C21.3578 67.3165 18.642 65.0459 16.3269 62.6751C13.6 59.8703 11.1736 55.4404 10.3944 53.3924C8.82506 49.2408 7.51166 42.9855 6.74367 40.5257C5.97567 38.0659 4.79587 37.5205 3.31553 37.2089C1.5792 36.8416 0.0765933 38.1216 0.733284 41.7723C1.38997 45.4231 3.22648 51.7451 5.37464 56.3197C6.40976 58.5458 8.37983 61.9517 11.8636 65.5579C14.3012 68.0845 16.6163 69.6205 19.5658 71.5349C20.3672 72.058 20.8347 72.6368 22.2483 73.8166C23.6618 74.9964 25.5762 76.0093 27.09 76.2542C28.6037 76.5102 29.1936 76.3543 29.3717 76.0761C29.6054 75.7199 29.3605 75.3971 28.6816 75.1968C28.0026 75.0076 26.8451 74.7961 25.5874 73.9502C25.5874 73.9502 27.0566 74.451 27.9581 74.6736C28.8597 74.8963 29.7724 74.9742 30.4179 74.9408C31.2193 74.9074 31.8537 73.9057 31.1748 73.6942C30.4958 73.4827 29.9059 73.505 28.5814 73.1599C27.3682 72.8483 26.5446 72.3808 26.5446 72.3808C26.5446 72.3808 28.0138 72.6813 29.2826 72.6924C30.5515 72.7147 31.0858 72.4587 31.4197 72.2695C31.7536 72.0803 31.9428 71.4013 31.0635 71.2455C30.2732 71.1119 29.2158 71.2789 27.7578 70.778C26.6893 70.4219 25.988 70.0212 26.1884 69.9099C26.3776 69.7986 26.9898 70.0546 27.9581 69.8987C28.8819 69.754 29.7056 69.064 29.5831 68.552C29.4607 68.04 29.483 68.1401 28.5035 68.129Z" fill="#FFA8A7"/>
<path d="M2.2247 37.0197C0.399328 37.7877 -0.468827 39.7689 0.254645 43.3529C0.966988 46.8701 2.45845 52.3017 2.45845 52.3017C2.45845 52.3017 5.89772 52.4019 9.39265 49.4857C9.39265 49.4857 7.70084 41.7724 7.04415 39.7801C6.38746 37.7766 4.66225 35.9957 2.2247 37.0197Z" fill="#E4F2F2"/>
</svg>
