<svg width="110" height="180" viewBox="0 0 110 180" fill="none" xmlns="http://www.w3.org/2000/svg">
<path opacity="0.15" d="M104.021 137.219L54.7776 165.625C54.1412 165.994 53.3116 166.17 52.482 166.17C51.6523 166.17 50.8227 165.994 50.1863 165.625L0.954626 137.225C0.318206 136.861 0 136.384 0 135.901C0 135.554 0.164787 135.202 0.505727 134.906C0.630738 134.793 0.778474 134.679 0.954626 134.577L50.1977 106.176C51.4591 105.443 53.5161 105.443 54.789 106.176L104.021 134.571C105.282 135.304 105.282 136.497 104.021 137.219Z" fill="#6B99D1"/>
<path d="M104.021 133.168L54.7776 161.568C54.1411 161.937 53.3115 162.113 52.4819 162.113C51.6523 162.113 50.8283 161.937 50.1976 161.573L0.96025 133.173C0.32383 132.804 0.00561523 132.327 0.00561523 131.849C0.00561523 131.366 0.32383 130.889 0.96025 130.525L7.63697 126.678L50.2033 102.119C51.4648 101.386 53.5218 101.386 54.7946 102.119L104.026 130.52C105.282 131.247 105.282 132.44 104.021 133.168Z" fill="#DCEEFF"/>
<path d="M52.4819 152.544V162.113C51.6523 162.113 50.8283 161.937 50.1976 161.573L0.96025 133.173C0.32383 132.804 0.00561523 132.327 0.00561523 131.849V123.559C0.00561523 123.212 0.170402 122.86 0.511342 122.564L7.63697 126.678L52.4819 152.544Z" fill="#A5CBFA"/>
<path d="M52.4819 152.544V162.113C53.3116 162.113 54.1355 161.937 54.7662 161.574L104.021 133.168C104.657 132.798 104.975 132.321 104.975 131.844V123.553C104.975 123.207 104.81 122.854 104.475 122.559L97.3496 126.673L52.4819 152.544Z" fill="#C8E2FF"/>
<path d="M104.021 124.884L54.7776 153.29C54.1412 153.659 53.3116 153.835 52.482 153.835C51.6523 153.835 50.8227 153.659 50.1863 153.29L0.954626 124.889C0.318206 124.526 0 124.049 0 123.566C0 123.219 0.164787 122.867 0.505727 122.571C0.630738 122.457 0.778474 122.344 0.954626 122.242L50.1977 93.8413C51.4591 93.1082 53.5161 93.1082 54.789 93.8413L104.021 122.236C105.282 122.963 105.282 124.156 104.021 124.884Z" fill="#DCEEFF"/>
<path opacity="0.15" d="M19.6353 172.927L14.3897 169.931C10.8332 167.899 5.91501 167.413 3.41501 168.841C0.915004 170.269 1.76322 173.081 5.32722 175.113L10.5728 178.109C14.1293 180.141 19.0475 180.634 21.5475 179.199C24.0475 177.763 23.1919 174.959 19.6353 172.927Z" fill="#6B99D1"/>
<path opacity="0.15" d="M91.167 168.519L96.1615 165.772C99.5479 163.909 104.231 163.463 106.611 164.773C108.998 166.082 108.184 168.661 104.79 170.524L99.7958 173.271C96.4095 175.134 91.7267 175.58 89.3463 174.27C86.966 172.954 87.7736 170.382 91.167 168.519Z" fill="#6B99D1"/>
<path d="M52.4876 93.8573C53.2434 93.8573 53.9821 94.0278 54.5049 94.3289L103.731 122.723C104.151 122.968 104.396 123.275 104.396 123.559C104.396 123.843 104.151 124.144 103.731 124.388L54.4878 152.794C53.9707 153.096 53.2547 153.266 52.4763 153.266C51.6978 153.266 50.9875 153.101 50.4647 152.794L1.23306 124.388C0.801207 124.144 0.568232 123.849 0.568232 123.559C0.568232 123.371 0.681874 123.167 0.89212 122.979C0.994402 122.883 1.10805 122.797 1.23874 122.729L50.4818 94.3289C50.9989 94.0278 51.7319 93.8573 52.4876 93.8573ZM52.4876 93.2891C51.658 93.2891 50.8284 93.4709 50.1977 93.8402L0.954626 122.24C0.778474 122.337 0.630738 122.451 0.505727 122.57C0.170469 122.871 0 123.224 0 123.564C0 124.053 0.318206 124.525 0.954626 124.888L50.1863 153.289C50.8227 153.658 51.6523 153.834 52.482 153.834C53.3116 153.834 54.1412 153.658 54.7776 153.289L104.021 124.883C105.282 124.161 105.282 122.968 104.021 122.235L54.789 93.8402C54.1526 93.4709 53.3229 93.2891 52.4876 93.2891Z" fill="white"/>
<path d="M50.9646 99.602L10.9553 122.678C10.1086 123.167 10.1086 123.956 10.9553 124.445L50.9589 147.515C51.8056 148.004 53.175 148.004 54.016 147.515L94.0252 124.439C94.8719 123.951 94.8719 123.161 94.0252 122.672L54.0273 99.602C53.175 99.119 51.8056 99.119 50.9646 99.602Z" fill="#2D3192"/>
<path d="M94.0199 122.678L54.022 99.6077C53.6015 99.3633 53.0446 99.244 52.4934 99.244V100.795L93.7585 124.599L94.0199 124.445C94.8665 123.956 94.8665 123.167 94.0199 122.678Z" fill="#1E3779"/>
<path d="M52.4931 99.2384C51.9419 99.2384 51.3851 99.3577 50.9646 99.6021L10.9553 122.678C10.1086 123.167 10.1086 123.957 10.9553 124.445L11.2224 124.599L52.4988 100.79L52.4931 99.2384Z" fill="#031F60"/>
<path d="M52.8174 112.973L64.6593 106.154C64.8412 106.046 64.8412 105.875 64.6593 105.767L52.8117 98.9259C52.6298 98.818 52.3287 98.818 52.1468 98.9259L40.3219 105.762C40.1401 105.87 40.1401 106.04 40.3219 106.148L52.1468 112.967C52.3344 113.081 52.6355 113.081 52.8174 112.973Z" stroke="white" stroke-miterlimit="10" stroke-linecap="round"/>
<path d="M52.4932 108.507V135.901C53.1978 135.901 53.8967 135.748 54.4365 135.435L79.7797 120.803C80.8537 120.184 81.723 118.678 81.723 117.439V108.507H52.4932Z" fill="#FF931E"/>
<path d="M23.2634 108.507V117.439C23.2634 118.678 24.1328 120.184 25.2068 120.803L50.55 135.435C51.0841 135.742 51.7887 135.901 52.4933 135.901V108.507H23.2634Z" fill="#FF8500"/>
<path d="M50.5443 124.923L24.0704 109.626C22.9964 109.007 22.9964 108.001 24.0704 107.381L50.55 92.0903C51.624 91.4709 53.3628 91.4709 54.4367 92.0903L80.9164 107.381C81.9903 108.001 81.9903 109.007 80.9164 109.626L54.4253 124.923C53.3514 125.542 51.6126 125.542 50.5443 124.923Z" fill="#FFAA4F"/>
<path d="M29.5028 107.762L51.2036 95.2269C51.9196 94.8121 53.0788 94.8121 53.7947 95.2269L75.5012 107.762C76.2172 108.177 76.2172 108.842 75.5012 109.257L53.7834 121.792C53.0674 122.207 51.9082 122.207 51.1922 121.792L29.5028 109.262C28.7868 108.847 28.7868 108.177 29.5028 107.762Z" stroke="white" stroke-miterlimit="10" stroke-linecap="round"/>
<path d="M53.1297 98.3636L70.2051 108.132C70.5631 108.336 70.5631 108.671 70.2051 108.882L53.1297 118.661C52.7717 118.865 52.1921 118.865 51.8341 118.661L34.9008 108.882C34.5428 108.677 34.5428 108.342 34.9008 108.132L51.8341 98.3579C52.1921 98.1591 52.7717 98.159 53.1297 98.3636Z" stroke="white" stroke-miterlimit="10" stroke-linecap="round"/>
<path d="M29.9856 118.144C29.9856 117.558 29.5764 116.842 29.065 116.553C28.8093 116.405 28.5763 116.394 28.4059 116.496L24.6555 118.661C23.8941 119.098 23.269 120.178 23.269 121.059V126.213C23.269 126.406 23.3941 126.599 23.6498 126.741C24.1555 127.031 24.9794 127.037 25.4851 126.741C25.7409 126.593 25.8659 126.4 25.8659 126.213V121.15C25.8659 121.036 25.9284 120.928 26.025 120.871L29.7071 118.746C29.7071 118.746 29.7128 118.746 29.7128 118.74L29.7242 118.735C29.8833 118.632 29.9856 118.428 29.9856 118.144Z" fill="url(#paint0_linear)"/>
<path d="M35.6054 121.405C35.6054 120.82 35.1963 120.104 34.6849 119.814C34.4292 119.666 34.1962 119.655 34.0257 119.757L30.2754 121.922C29.514 122.36 28.8889 123.44 28.8889 124.32V129.474C28.8889 129.667 29.0139 129.855 29.2696 130.003C29.7753 130.298 30.5993 130.298 31.105 130.003C31.3607 129.855 31.4857 129.662 31.4857 129.474V124.411C31.4857 124.298 31.5482 124.19 31.6448 124.133L35.327 122.008C35.327 122.008 35.3327 122.008 35.3327 122.002L35.344 121.996C35.5088 121.894 35.6054 121.689 35.6054 121.405Z" fill="url(#paint1_linear)"/>
<path d="M41.2309 124.667C41.2309 124.082 40.8218 123.366 40.3104 123.076C40.0547 122.928 39.8217 122.917 39.6512 123.019L35.9009 125.184C35.1395 125.622 34.5144 126.701 34.5144 127.582V132.73C34.5144 132.923 34.6394 133.117 34.8951 133.259C35.4008 133.554 36.2248 133.554 36.7305 133.259C36.9862 133.111 37.1112 132.918 37.1112 132.73V127.667C37.1112 127.554 37.1737 127.446 37.2703 127.389L40.9525 125.264C40.9525 125.264 40.9582 125.264 40.9582 125.258L40.9695 125.252C41.1286 125.15 41.2309 124.951 41.2309 124.667Z" fill="url(#paint2_linear)"/>
<path d="M46.8505 127.928C46.8505 127.343 46.4414 126.627 45.93 126.337C45.6743 126.19 45.4413 126.178 45.2709 126.281L41.5205 128.446C40.7591 128.883 40.134 129.963 40.134 130.844V135.997C40.134 136.191 40.2591 136.384 40.5148 136.526C41.0205 136.821 41.8444 136.821 42.3501 136.526C42.6058 136.378 42.7309 136.185 42.7309 135.997V130.934C42.7309 130.821 42.7934 130.713 42.89 130.656L46.5721 128.531C46.5721 128.531 46.5778 128.531 46.5778 128.525L46.5892 128.519C46.7539 128.411 46.8505 128.213 46.8505 127.928Z" fill="url(#paint3_linear)"/>
<path d="M75.0066 118.144C75.0066 117.558 75.4157 116.842 75.9271 116.553C76.1828 116.405 76.4158 116.394 76.5863 116.496L80.3366 118.661C81.098 119.098 81.7231 120.178 81.7231 121.059V126.213C81.7231 126.406 81.5981 126.599 81.3424 126.741C80.8367 127.031 80.0127 127.037 79.507 126.741C79.2513 126.593 79.1263 126.4 79.1263 126.213V121.15C79.1263 121.036 79.0638 120.928 78.9672 120.871L75.285 118.746C75.285 118.746 75.2793 118.746 75.2793 118.74L75.268 118.735C75.1032 118.632 75.0066 118.428 75.0066 118.144Z" fill="url(#paint4_linear)"/>
<path d="M69.3811 121.405C69.3811 120.82 69.7902 120.104 70.3016 119.814C70.5573 119.666 70.7903 119.655 70.9608 119.757L74.7111 121.922C75.4726 122.36 76.0976 123.44 76.0976 124.32V129.474C76.0976 129.667 75.9726 129.855 75.7169 130.003C75.2112 130.298 74.3872 130.298 73.8815 130.003C73.6258 129.855 73.5008 129.662 73.5008 129.474V124.411C73.5008 124.298 73.4383 124.19 73.3417 124.133L69.6595 122.008C69.6595 122.008 69.6539 122.008 69.6539 122.002L69.6425 121.996C69.4777 121.894 69.3811 121.689 69.3811 121.405Z" fill="url(#paint5_linear)"/>
<path d="M63.7556 124.667C63.7556 124.082 64.1647 123.366 64.6761 123.076C64.9319 122.928 65.1648 122.917 65.3353 123.019L69.0856 125.184C69.8471 125.622 70.4721 126.701 70.4721 127.582V132.73C70.4721 132.923 70.3471 133.117 70.0914 133.259C69.5857 133.554 68.7617 133.554 68.256 133.259C68.0003 133.111 67.8753 132.918 67.8753 132.73V127.667C67.8753 127.554 67.8128 127.446 67.7162 127.389L64.034 125.264C64.034 125.264 64.0284 125.264 64.0284 125.258L64.017 125.252C63.8579 125.15 63.7556 124.951 63.7556 124.667Z" fill="url(#paint6_linear)"/>
<path d="M58.1357 127.928C58.1357 127.343 58.5449 126.627 59.0563 126.337C59.312 126.19 59.545 126.178 59.7154 126.281L63.4658 128.446C64.2272 128.883 64.8523 129.963 64.8523 130.844V135.997C64.8523 136.191 64.7273 136.384 64.4716 136.526C63.9658 136.821 63.1419 136.821 62.6362 136.526C62.3804 136.378 62.2554 136.185 62.2554 135.997V130.934C62.2554 130.821 62.1929 130.713 62.0963 130.656L58.4142 128.531C58.4142 128.531 58.4085 128.531 58.4085 128.525L58.3971 128.519C58.2324 128.411 58.1357 128.213 58.1357 127.928Z" fill="url(#paint7_linear)"/>
<path d="M75.8085 39.4321C80.951 52.2741 74.7005 66.8493 61.8641 71.9861C53.9486 75.1512 45.374 73.9976 38.7654 69.6393C34.64 66.9288 31.2818 62.9739 29.31 58.0474C24.1675 45.2053 30.4124 30.6245 43.2545 25.4876C48.1867 23.5102 53.3804 23.2204 58.1933 24.3341C65.9042 26.1241 72.6434 31.5223 75.8085 39.4321Z" fill="#B5DEFF"/>
<path d="M49.5614 27.3682C48.4136 27.3852 46.9475 27.7944 48.0101 28.4422C49.0727 29.0956 49.7546 29.1524 49.7603 29.9991C49.766 30.8458 49.2148 31.7322 49.4875 32.3289C49.7603 32.9255 50.2092 33.6244 50.641 33.4255C51.0786 33.221 52.2719 31.8913 52.9481 31.9538C53.6299 32.0163 55.9483 32.1186 56.2836 31.3629C56.6188 30.6071 56.9598 30.6583 57.5166 29.8173C58.0735 28.9763 58.0394 27.8512 57.3632 27.8455C56.687 27.8398 56.5961 28.1296 55.4653 28.0444C54.3345 27.9648 53.8061 27.2148 52.7037 27.408C51.607 27.6069 50.4024 27.3511 49.5614 27.3682Z" fill="#3A52AA"/>
<path d="M45.2996 27.6637C43.9984 28.357 41.2652 29.4082 39.998 29.0502C39.3673 28.8741 38.6172 28.6241 37.8217 28.4706C32.9917 31.9823 29.5027 37.1703 28.1333 43.1026C28.4515 43.7561 28.8379 44.3584 29.2641 44.8528C30.2585 46.0177 31.2813 46.1654 32.5371 46.4097C33.7986 46.6541 33.4008 47.3587 34.0202 48.0974C34.6396 48.8361 34.9009 49.268 35.6056 49.6657C36.3102 50.0635 35.3555 50.8079 35.0771 51.6204C34.7987 52.4273 34.7191 52.8876 35.2987 54.5298C35.8726 56.1777 37.5546 57.513 38.0546 58.1494C38.5547 58.7858 37.708 59.5302 37.924 60.8656C38.1399 62.2009 38.0717 65.7467 39.3502 67.7412C40.6287 69.7357 41.3959 69.5027 41.2936 68.156C41.1913 66.8093 40.7538 65.5421 41.5322 64.5307C42.3107 63.5192 43.8904 63.792 44.4245 61.9452C44.9587 60.1041 45.3053 60.1894 46.1576 59.5586C47.01 58.9279 46.6293 58.3938 47.4248 56.9675C48.2203 55.5412 48.4533 54.2002 47.2771 53.6093C46.1065 53.024 45.3223 53.0808 44.3166 51.6943C43.3108 50.3078 41.7425 48.9611 40.2821 48.1713C38.8274 47.3814 36.5147 48.3474 35.5885 48.0747C34.668 47.8076 34.0827 46.0518 34.1395 45.3699C34.202 44.688 33.5145 44.5175 32.8496 44.6823C32.1848 44.8471 31.8155 44.4209 31.6336 43.5345C31.4518 42.648 32.8326 41.5286 33.952 41.4377C35.0714 41.3525 35.6737 41.8696 35.8954 43.3186C36.117 44.7676 37.0773 45.4835 38.1115 45.7392C39.1456 46.0006 38.4979 44.921 37.7649 44.188C37.0318 43.4549 36.9807 42.7844 37.5319 41.165C38.0831 39.5455 39.4468 39.6648 40.4583 38.1761C41.4697 36.6816 41.6686 37.8067 42.6914 37.9544C43.7142 38.1022 43.5608 37.551 43.9415 36.6191C44.3223 35.6929 45.6235 36.4884 46.6918 35.7327C47.7601 34.9769 45.5269 33.795 45.6746 32.7665C45.8224 31.7437 46.8395 31.7778 46.2713 30.2435C45.7031 28.7093 46.4872 28.6468 46.8907 28.0786C47.3168 27.5274 46.6009 26.9705 45.2996 27.6637ZM43.7881 31.4141C43.4528 32.1755 43.1574 32.0278 42.6062 32.8574C42.0493 33.6927 41.1856 34.1473 40.6231 34.2212C40.0662 34.2893 39.14 33.2949 39.0945 32.6812C39.0491 32.0676 39.9355 31.8857 40.9413 31.755C41.947 31.6186 42.8051 31.1868 43.7142 30.4708C44.4359 29.8969 44.1234 30.6583 43.7881 31.4141Z" fill="#2D3192"/>
<path d="M77.5297 46.8359L77.5354 46.904C77.1377 47.0745 76.7513 47.37 76.541 47.8871C75.9728 49.2849 75.8648 48.6712 74.5295 49.6202C73.1941 50.5691 73.6999 51.3135 73.7737 52.2682C73.8476 53.2228 72.2963 54.2967 71.5292 54.6377C70.7678 54.9786 70.4268 57.1436 70.6768 58.2005C70.9269 59.2517 69.6654 59.6836 68.8926 60.6439C68.1198 61.6042 67.6823 63.2123 67.1765 63.9851C66.6765 64.7579 65.7503 65.2182 64.8411 65.0647C63.9263 64.9056 63.0796 63.3941 62.5852 62.0815C62.0909 60.7689 61.9204 59.3142 62.2045 57.8823C62.4886 56.456 62.392 56.6322 62.0511 54.4047C61.7101 52.1772 60.1418 51.5067 59.2781 51.2965C58.4144 51.0805 56.9938 51.5806 56.221 51.1374C55.4596 50.6885 55.1243 50.0407 54.6243 47.9382C54.1242 45.8358 55.1584 45.3641 55.9767 44.2277C56.7892 43.0912 58.386 41.9036 59.8236 41.5115C61.2556 41.1194 62.2443 41.4945 63.1194 41.9377C64.0001 42.3752 64.4093 43.3583 65.04 43.4265C65.665 43.489 66.2049 43.1708 66.8299 43.2901C67.455 43.4094 67.8755 43.7163 68.4892 43.614C69.1028 43.5117 68.7108 42.8071 68.6255 42.4207C68.5403 42.0343 67.9834 42.1309 67.2504 42.1252C66.5174 42.1252 66.3299 41.9206 66.0742 41.432C65.8128 40.9433 65.3923 41.3695 65.04 41.1706C64.6877 40.9717 64.7559 41.8695 64.7275 42.2161C64.699 42.5627 64.4263 41.9491 64.4263 41.9491C64.4263 41.9491 64.1251 42.4207 63.9944 42.2048C63.8694 41.9888 64.1649 41.4604 64.1251 40.9262C64.0854 40.3921 63.3069 40.5171 62.8239 40.1023C62.3409 39.6875 61.6647 39.6307 60.9998 39.8523C60.3407 40.0739 60.2157 39.9148 59.9259 40.4944C59.6304 41.0797 58.1985 41.4717 57.7382 41.3979C57.2836 41.3183 57.6018 40.3921 57.9939 39.5738C58.3803 38.7556 59.1872 39.0283 59.6929 38.2044C60.193 37.3805 59.5111 37.2611 59.0451 37.1304C58.5849 36.9941 58.4371 36.5565 58.9201 35.5053C59.4031 34.4541 60.0452 34.7439 60.3066 35.2325C60.568 35.7212 61.1476 35.9599 61.7727 35.9656C62.392 35.9769 62.2443 35.5394 62.2329 34.6359C62.2216 33.7324 62.6364 33.2551 63.4546 32.9085C64.2729 32.5618 65.6423 32.0107 66.1651 31.5163C66.6879 31.0219 67.6141 31.3458 68.1084 31.8743C68.6028 32.3971 69.6825 32.5959 70.8303 32.7891C71.1542 32.846 71.4156 32.7153 71.6372 32.5221C74.95 36.4031 77.1092 41.3467 77.5297 46.8359Z" fill="#2D3192"/>
<path d="M72.8362 59.1609C72.2282 59.0586 72.2793 59.2575 71.9214 59.7405C71.5634 60.2178 71.0406 60.7633 71.1372 61.2634C71.2338 61.7634 71.2793 62.3771 71.6998 62.0077C72.1202 61.6384 71.9782 61.1952 72.5748 60.9281C73.1771 60.6554 73.7511 59.32 72.8362 59.1609Z" fill="#3A52AA"/>
<path opacity="0.4" d="M59.0793 26.5444C43.129 21.9417 40.1515 32.812 48.6011 39.6649C57.0564 46.5177 71.5464 48.7736 73.4954 44.2562C75.4501 39.7387 70.9383 29.9651 59.0793 26.5444Z" fill="white"/>
<path opacity="0.15" d="M45.7654 61.2862C33.3722 51.1148 33.7529 31.3687 44.6232 24.9875C44.163 25.1409 43.7084 25.3057 43.2481 25.4875C30.4061 30.63 24.1612 45.2109 29.3037 58.0473C31.2755 62.9738 34.6337 66.9287 38.7591 69.6392C45.3676 73.9975 53.9479 75.1511 61.8577 71.986C68.3469 69.3892 73.1485 64.383 75.6487 58.4052C72.1541 63.2693 58.1529 71.4519 45.7654 61.2862Z" fill="#344593"/>
<path opacity="0.3" d="M54.8679 20.5351C54.0576 20.9972 53.1151 21.1615 52.0692 21.1307C52.0519 21.1307 52.0404 21.1307 52.0232 21.1307C52.0347 21.1307 52.0519 21.1307 52.0634 21.1307V147.746C52.6841 147.746 53.3162 147.592 53.9312 147.242L93.5902 126.784C94.3258 126.42 94.6821 126.101 94.6821 125.655V0L54.8679 20.5351Z" fill="url(#paint8_linear)"/>
<path opacity="0.5" d="M51.9838 21.1307C51.748 21.1359 51.518 21.1256 51.2935 21.1051C51.2766 21.1051 51.2654 21.0999 51.2486 21.0999C51.0241 21.0794 50.8052 21.0434 50.5976 21.0024C50.4573 20.9715 50.3226 20.9253 50.1879 20.8894C50.1037 20.8637 50.0139 20.8483 49.9354 20.8175C49.7221 20.7405 49.5089 20.6532 49.3068 20.5505L10.4045 0V125.655C10.4214 126.06 10.702 126.374 11.1565 126.615L50.2048 147.242C50.8389 147.628 51.3833 147.73 51.9725 147.741C51.9894 147.741 52.0062 147.746 52.023 147.746V21.1307C52.0062 21.1307 51.995 21.1307 51.9838 21.1307Z" fill="url(#paint9_linear)"/>
<path d="M108.662 116.837C108.799 118.046 110.247 123.26 109.937 125.054C109.627 126.84 104.701 129.828 104.701 129.828L104.017 126.768L106.747 124.096L106.012 119.026L108.662 116.837Z" fill="#FFA8A7"/>
<path d="M104.846 110.974C105.551 110.672 106.862 110.6 107.59 111.803C108.317 113.005 109.066 117.125 109.138 117.83C109.138 117.83 108.122 119.235 106.596 119.004L104.846 110.974Z" fill="#E4F2F2"/>
<path d="M105.537 166.412C105.537 166.412 105.595 166.945 105.753 167.622C105.883 168.148 105.904 168.825 105.321 169.019C104.73 169.207 104.061 169.149 103.679 168.638C103.211 168.004 102.959 167.212 102.282 166.592C101.627 166.002 100.813 165.332 100.582 164.389C100.366 163.539 100.503 163.006 101.086 162.92C101.821 162.812 102.988 163.431 103.585 163.87C104.017 164.18 105.537 166.412 105.537 166.412Z" fill="#2D2979"/>
<path d="M98.7963 168.882C98.7963 168.882 98.8396 169.559 98.8828 170.099C98.926 170.639 99.1132 171.496 98.9404 171.9C98.7675 172.296 97.8818 172.591 96.8375 172.584C96.1606 172.577 94.8499 173.102 94.3818 173.506C93.7192 174.082 92.1925 174.312 91.2995 174.031C90.3993 173.751 89.4055 173.333 89.2542 172.922C89.103 172.512 89.5711 172.303 91.7604 171.302C93.9497 170.301 95.5628 169.61 96.4126 168.45L98.7963 168.882Z" fill="#2D2979"/>
<path d="M106.07 154.775C105.695 151.908 105.105 150.209 105.105 150.209C105.105 150.209 105.393 146.269 105.537 142.532C105.703 138.29 107.172 134.56 106.012 131.175L92.927 134.084C92.927 134.084 93.7192 150.994 93.892 153.039C93.9856 154.148 94.0216 155.257 94.4825 157.785C95.0803 161.069 96.0525 168.875 96.0525 168.875C97.4352 169.682 98.8035 168.882 98.8035 168.882C98.8035 168.882 99.1564 159.362 99.0628 156.993C98.9548 154.105 98.8683 154.328 98.8683 154.328L99.3004 147.134L99.5813 143.554C99.5813 143.554 99.9414 146.183 100.179 148.531C100.388 150.576 100.878 152.427 101.432 156.236C101.907 159.542 103.16 166.348 103.16 166.348C104.543 167.154 105.544 166.427 105.544 166.427C105.544 166.427 106.437 157.641 106.07 154.775Z" fill="#C4D9FF"/>
<path d="M99.5737 143.555C99.5737 143.555 99.9338 146.183 100.171 148.531C100.272 149.517 100.438 150.461 100.647 151.592C100.647 151.592 100.46 147.22 100.532 145.153C100.604 143.086 100.812 140.854 100.812 140.854C103.563 139.687 104.132 138.009 104.132 138.009C102.094 139.752 99.941 140.285 99.941 140.285L99.5737 143.555Z" fill="#9EBCE8"/>
<path d="M104.154 111.046C103.16 111.097 102.419 111.349 102.289 111.061C102.188 110.83 102.066 109.505 102.059 109.505C102.174 109.217 102.275 108.907 102.275 108.907C103.528 108.137 104.421 106.833 104.586 105.263C104.867 102.57 102.908 100.165 100.222 99.8839C97.6944 99.6174 95.8292 101.396 95.3323 103.845C95.0658 105.047 94.7057 107.611 95.4259 109.592C95.8292 110.701 96.1749 111.19 96.6934 111.363C96.8734 111.399 97.8384 111.378 98.1913 111.342C98.1913 111.342 98.3281 112.091 98.4146 112.566C98.5082 113.048 98.4722 113.3 97.5144 113.891C96.5565 114.481 98.9619 115.691 100.525 115.569C102.095 115.447 103.859 114.503 104.341 113.488C104.889 112.35 104.838 111.01 104.154 111.046Z" fill="#FFA8A7"/>
<path d="M97.5142 113.877C97.4782 113.898 97.4638 113.92 97.435 113.941L98.8033 114.409L102.851 113.783L103.794 111.37C103.794 111.37 103.758 111.255 103.7 111.082C102.937 111.162 102.397 111.306 102.289 111.053C102.217 110.881 102.123 110.081 102.08 109.7C101.353 109.829 100.496 109.98 100.287 109.988C99.9123 110.002 98.6232 108.101 98.6232 108.101C98.6232 108.101 98.4432 109.692 98.2704 110.132C98.0975 110.571 96.9165 111.255 96.4844 111.248C96.5492 111.284 96.614 111.313 96.686 111.342C96.8661 111.378 97.8311 111.356 98.184 111.32C98.184 111.32 98.3208 112.069 98.4072 112.544C98.508 113.034 98.472 113.286 97.5142 113.877Z" fill="#F28F8F"/>
<path d="M104.615 102.196C104.493 101.612 104.082 100.856 100.935 99.9702C97.9248 99.1277 95.5699 98.7676 94.9866 99.1565C94.4105 99.5453 94.2664 102.52 97.111 103.938C97.2263 104.154 97.2983 104.406 97.2983 104.752C97.2983 105.213 97.2479 105.58 97.2983 106.084C97.3703 106.797 98.1337 106.848 98.1337 106.848C98.1337 106.848 98.1409 106.437 98.1409 105.587C98.4074 104.997 99.4372 104.846 99.8116 105.667C100.186 106.488 99.9773 107.172 99.718 107.669C99.3868 108.295 98.825 108.346 98.6378 108.122C98.6378 108.835 98.7746 109.901 99.574 110.801C100.64 111.104 101.691 110.643 102.152 110.24C102.267 109.923 102.635 109.347 103.11 108.583C103.693 107.654 104.298 107.049 104.622 105.544C104.91 104.162 104.846 103.326 104.615 102.196Z" fill="#3A2C6D"/>
<path d="M102.714 111.197C102.987 111.889 102.289 112.724 100.416 113.315C98.5441 113.905 98.3784 113.149 98.3784 113.149C98.3784 113.149 95.6346 114.402 94.7416 115.022C93.6182 115.806 93.1213 118.082 92.97 121.913C92.7972 126.357 92.7828 132.939 92.9268 134.077C92.9268 134.077 95.0297 136.173 97.7159 135.949C100.402 135.726 104.925 133.35 106.019 131.513C105.991 127.617 105.537 126.983 106.163 124.744C107.604 119.609 108.367 117.506 107.668 114.093C107.092 111.277 106.279 110.931 105.17 110.96C104.046 110.989 102.714 111.197 102.714 111.197Z" fill="#F5FBFB"/>
<path d="M102.231 110.816C101.842 111.306 100.489 112.379 98.3929 112.436C97.9896 112.372 97.7663 113.149 97.5359 113.538C97.5359 113.538 98.4793 114.309 100.575 113.776C102.671 113.243 103.412 111.702 103.232 111.126C103.232 111.126 102.563 110.391 102.231 110.816Z" fill="#E4F2F2"/>
<path d="M88.7427 126.307C90.9464 126.861 91.4649 125.471 91.7529 124.319C92.4515 121.532 92.8332 119.011 93.3517 117.434C93.9638 115.569 94.612 115.274 95.5194 114.906C96.5852 114.482 97.4998 115.382 97.147 117.751C96.7293 120.56 96.1747 122.533 95.1233 125.86C94.8497 126.724 94.2303 128.273 93.3157 129.014C92.1779 129.936 90.4639 129.893 87.8713 129.252C86.7623 128.978 85.5524 128.316 83.4639 127.344C82.9022 127.084 82.4629 126.904 81.3899 126.407C80.3096 125.903 79.1934 125.068 78.6245 124.247C78.0555 123.426 77.9835 123.044 78.0987 122.857C78.2428 122.619 78.502 122.677 78.7973 123.015C79.0998 123.361 79.5391 123.98 80.3816 124.485C80.3816 124.485 79.6831 123.764 79.3086 123.296C78.9341 122.828 78.6389 122.317 78.4732 121.935C78.2716 121.46 78.6821 120.812 78.9989 121.15C79.3158 121.489 79.4598 121.834 80.0288 122.519C80.5473 123.138 81.0514 123.491 81.0514 123.491C81.0514 123.491 80.4753 122.713 80.108 121.978C79.7479 121.237 79.7479 120.862 79.7623 120.61C79.7767 120.358 80.1296 120.063 80.4609 120.538C80.7561 120.963 80.9506 121.625 81.6419 122.346C82.146 122.871 82.5709 123.167 82.5853 123.023C82.5997 122.879 82.2829 122.591 82.1028 121.986C81.93 121.402 82.11 120.732 82.4413 120.66C82.7726 120.588 82.715 120.61 82.9814 121.179C83.2479 121.748 83.6656 122.173 83.9824 123.001C84.2633 123.736 84.3857 124.031 84.8898 124.564C85.4444 125.14 86.647 125.774 88.7427 126.307Z" fill="#FFA8A7"/>
<path d="M96.3405 114.525C94.8714 114.309 93.8271 114.971 93.179 117.204C92.5308 119.436 92.0771 121.265 92.0771 121.265C92.0771 121.265 92.7829 122.475 94.5401 122.907C96.3045 123.332 96.9382 122.49 96.9382 122.49C96.9382 122.49 97.4279 120.149 97.7304 118.558C98.0329 116.966 98.1625 114.791 96.3405 114.525Z" fill="#E4F2F2"/>
<path d="M8.40186 172.642C8.40186 172.642 8.17862 173.031 6.96875 172.527C5.75888 172.023 5.42041 171.418 5.42041 171.418C5.42041 171.418 5.73728 168.998 6.47905 169.603C7.22801 170.208 8.40186 172.642 8.40186 172.642Z" fill="#291D51"/>
<path d="M5.37018 164.166C5.39178 165.433 5.42058 166.405 4.93808 167.089C4.45557 167.774 4.41235 168.235 4.41235 168.235C4.41235 168.235 5.84547 168.436 6.57283 169.423C7.30019 170.409 7.2642 171.396 7.93394 171.562C8.61089 171.727 9.74155 170.95 9.74155 170.95C9.74155 170.95 9.02859 170.921 8.74773 170.021C8.46686 169.12 7.7467 167.205 7.72509 166.701C7.69628 166.197 7.72509 164.245 7.72509 164.245L5.37018 164.166Z" fill="#FFA8A7"/>
<path d="M5.3556 167.413C5.98214 167.449 6.93996 168.148 7.25683 168.875C7.5737 169.596 8.10661 170.618 8.5099 170.841C8.91319 171.072 9.63335 170.741 10.2455 170.733C10.8576 170.733 11.2897 171.014 11.3257 171.461C11.3257 171.461 9.3597 172.39 8.76917 172.671C8.17864 172.951 7.68173 172.959 7.22083 171.734C6.75993 170.51 6.57987 169.826 6.21259 170.654C5.84531 171.49 5.69407 173.355 5.69407 173.355C5.69407 173.355 5.18996 173.542 4.95231 173.045C4.95231 173.045 4.96672 172.166 4.86589 171.41C4.75787 170.661 4.08093 169.711 4.13134 168.803C4.18175 167.903 4.67865 167.37 5.3556 167.413Z" fill="#2D2979"/>
<path d="M17.9076 177.546C17.9076 177.546 17.6771 177.95 16.4313 177.424C15.1854 176.898 14.8325 176.279 14.8325 176.279C14.8325 176.279 15.1566 173.773 15.9272 174.407C16.6977 175.04 17.9076 177.546 17.9076 177.546Z" fill="#291D51"/>
<path d="M14.7752 168.775C14.7968 170.085 14.8328 171.094 14.3287 171.799C13.8318 172.505 13.7886 172.981 13.7886 172.981C13.7886 172.981 15.2721 173.189 16.0283 174.212C16.7844 175.235 16.7412 176.257 17.4398 176.423C18.1383 176.589 19.305 175.789 19.305 175.789C19.305 175.789 18.5632 175.76 18.2752 174.831C17.9871 173.902 17.2453 171.922 17.2165 171.396C17.1877 170.878 17.0941 168.775 17.0941 168.775H14.7752Z" fill="#FFA8A7"/>
<path d="M14.7608 172.145C15.4089 172.188 16.3955 172.908 16.7268 173.657C17.0581 174.406 17.6054 175.458 18.0231 175.688C18.4408 175.926 19.1898 175.58 19.8235 175.573C20.4572 175.573 20.9037 175.861 20.9397 176.322C20.9397 176.322 18.9089 177.287 18.2967 177.575C17.6846 177.863 17.1733 177.87 16.698 176.61C16.2227 175.343 16.0355 174.63 15.661 175.494C15.2793 176.358 15.1209 178.288 15.1209 178.288C15.1209 178.288 14.6023 178.482 14.3503 177.964C14.3503 177.964 14.3647 177.057 14.2567 176.272C14.1486 175.494 13.4429 174.514 13.4933 173.578C13.5509 172.649 14.0622 172.102 14.7608 172.145Z" fill="#2D2979"/>
<path d="M4.74351 112.055C3.59846 112.386 2.9431 113.654 1.93488 116.369C0.926653 119.084 -0.124767 123.045 0.0120635 124.089C0.336135 126.645 1.92768 128.835 4.66428 130.649L5.88856 128.41C5.88856 128.41 3.20237 126.249 2.94312 123.685C2.79908 122.245 4.66428 117.355 4.66428 117.226C4.66428 117.096 4.74351 112.055 4.74351 112.055Z" fill="#FFA8A7"/>
<path d="M3.87929 156.496C3.87929 154.141 4.41941 152.564 4.41941 152.564C4.41941 152.564 3.44001 147.732 3.07993 144.016C2.54701 138.528 1.57477 137.21 2.45337 133.962C3.25995 130.966 4.53464 128.878 5.39163 126.775L14.3504 127.481C14.3504 127.481 15.1282 130.023 16.1364 135.078C17.1446 140.134 17.5983 146.111 17.5047 154.083C17.4759 156.136 17.4615 157.972 17.3391 163.093C17.2599 166.535 17.2166 171.166 17.2166 171.166C15.8339 171.972 14.6673 171.058 14.6673 171.058C14.6673 171.058 12.55 160.853 12.2043 158.505C11.8515 156.086 12.514 154.638 12.514 154.638C12.514 154.638 11.8443 151.433 11.3402 148.913C10.728 145.845 9.22288 139.205 9.22288 139.205C9.22288 139.205 9.17967 149.359 9.03563 151.412C8.8916 153.464 8.97801 155.099 8.59633 157.828C8.13542 161.134 7.72494 166.701 7.72494 166.701C6.29182 167.046 5.2764 166.269 5.2764 166.269C5.2764 166.269 3.87929 159.391 3.87929 156.496Z" fill="#7FA8E6"/>
<path d="M9.22288 139.205C9.22288 139.205 9.17966 149.359 9.03563 151.412C9.02123 151.671 8.99962 151.894 8.98521 152.11V152.125C8.98521 152.161 8.97803 152.197 8.97803 152.233L7.93379 140.357C5.04595 139.529 4.13135 137.592 4.13135 137.592C6.07578 139.543 9.22288 139.205 9.22288 139.205Z" fill="#597BC6"/>
<path d="M5.26918 112.005C7.1776 111.889 7.35763 112.206 7.51607 111.529C7.57368 111.284 7.67451 109.606 7.67451 109.606C7.50887 109.426 7.19922 108.901 7.19922 108.901C5.94614 108.13 5.05313 106.827 4.88749 105.257C4.60663 102.563 6.55826 100.158 9.25166 99.877C11.7794 99.6106 13.6446 101.389 14.1415 103.831C14.408 105.033 14.6889 107.503 13.9399 109.477C13.515 110.593 13.1261 111.378 12.1107 111.335C11.9234 111.328 11.5562 111.263 11.1169 111.155C11.0809 111.515 11.0377 112.062 11.0593 112.559C11.0881 113.049 11.0017 113.294 11.9595 113.884C12.9173 114.475 10.5119 115.685 8.9492 115.562C7.37925 115.44 5.61485 114.496 5.13234 113.481C4.59222 112.35 4.36898 112.062 5.26918 112.005Z" fill="#FFA8A7"/>
<path d="M5.1325 113.481C4.59238 112.35 4.37634 112.062 5.27654 112.005C7.18496 111.889 7.365 112.206 7.52343 111.529C7.58104 111.284 7.68187 109.607 7.68187 109.607C7.51623 109.426 7.20656 108.901 7.20656 108.901C6.52241 108.476 5.94628 107.893 5.53578 107.187C5.6006 107.122 5.65101 107.079 5.65101 107.079L9.72712 109.182L10.4833 109.016L11.0882 108.332C11.0882 108.332 11.1818 109.513 11.3691 110.046C11.5491 110.579 12.7806 111.191 12.795 111.198C12.6078 111.292 12.3845 111.335 12.1253 111.328C11.938 111.32 11.5707 111.256 11.1314 111.148C11.0954 111.508 11.0522 112.055 11.0738 112.552C11.1026 113.042 11.0162 113.287 11.974 113.877C12.9318 114.468 10.5265 115.677 8.96375 115.555C7.3794 115.44 5.615 114.496 5.1325 113.481Z" fill="#F28F8F"/>
<path d="M6.66627 109.066C5.442 107.943 5.05312 106.834 4.88748 105.257C4.60662 102.563 6.55825 100.158 9.25164 99.8771C10.9944 99.6971 12.4203 100.482 13.3061 101.793C13.3061 101.793 13.1261 102.16 12.8453 102.426C12.8453 102.426 13.0685 103.053 12.6724 103.492C12.3915 103.809 12.3051 104.263 12.3699 104.681C12.442 105.141 12.4924 105.71 12.442 106.207C12.3699 106.92 11.7074 107.237 11.7074 107.237C11.7074 107.237 11.6138 106.157 11.3401 105.566C11.0737 104.976 10.0438 104.825 9.66935 105.646C9.29486 106.467 9.44608 107.108 9.83497 107.784C10.1878 108.397 10.7496 108.44 11.0809 108.332C11.1601 108.605 11.0665 109.534 10.0078 109.83C8.94199 110.132 7.95536 109.851 7.40804 109.57C7.07676 109.419 6.66627 109.066 6.66627 109.066Z" fill="#543354"/>
<path d="M12.1035 100.568C12.7733 100.439 14.6529 100.821 14.6385 102.787C14.6241 104.385 13.5654 105.516 12.1827 105.898L12.1035 100.568Z" fill="#543354"/>
<path d="M7.16317 111.969C6.81029 112.408 6.77429 112.962 8.13539 113.301C9.91419 113.747 11.1168 113.07 11.1168 113.07C11.1168 113.07 12.9533 113.834 14.1991 114.705C17.2454 116.822 17.98 120.495 14.9049 121.756C14.7176 123.138 14.4872 126.689 14.4296 127.495C11.8298 129.31 6.55825 128.691 5.36998 126.768C5.35558 126.112 5.23315 125.011 5.18994 124.845C3.95127 120.25 2.97906 119.026 3.32473 115.562C3.51918 113.582 3.6776 112.581 4.72903 112.048C5.37717 111.861 6.78149 111.94 7.16317 111.969Z" fill="#F5FBFB"/>
<path d="M11.7506 113.358C11.7506 113.358 11.4337 112.501 11.3617 112.292C11.2897 112.091 11.052 112.055 11.052 112.055C11.052 112.055 10.6991 112.494 9.5541 112.372C8.40904 112.256 7.50165 111.738 7.53766 111.327L7.56645 111.068C7.56645 111.068 7.24238 111.011 7.01193 111.255C6.78148 111.5 6.443 111.947 6.443 111.947C6.443 111.947 6.25576 112.89 7.7897 113.459C9.32364 114.042 10.7207 113.812 11.7506 113.358Z" fill="#E4F2F2"/>
<path d="M26.2331 135.842C25.6065 135.748 25.1024 135.439 24.2166 135.374C23.4316 135.323 22.9275 135.258 22.2362 135.014C21.552 134.769 20.7454 133.905 19.4852 132.169C18.0016 130.124 16.871 127.077 16.5685 125.695C15.906 122.713 15.6251 118.565 15.6323 117.11C15.6323 115.368 14.8401 114.676 13.9255 114.331C12.8525 113.927 12.1035 114.302 12.1827 116.7C12.262 119.098 12.6653 123.52 13.6087 126.653C14.0624 128.172 14.8833 130.513 16.7846 133.156C18.1097 134.999 18.6138 135.568 20.3133 137.066C20.7742 137.477 21.0191 137.894 21.8113 138.78C22.6034 139.666 23.7341 140.494 24.6847 140.797C25.6281 141.099 26.0242 141.056 26.1682 140.89C26.3483 140.681 26.2259 140.451 25.8082 140.264C25.3905 140.076 24.6703 139.832 23.943 139.176C23.943 139.176 24.8359 139.63 25.3905 139.86C25.945 140.084 26.5211 140.22 26.9388 140.264C27.4501 140.314 27.9542 139.731 27.5365 139.536C27.1188 139.335 26.7444 139.299 25.9234 138.946C25.1744 138.629 24.6919 138.254 24.6919 138.254C24.6919 138.254 25.5993 138.586 26.4131 138.715C27.2269 138.845 27.5869 138.73 27.8246 138.643C28.0623 138.557 28.2423 138.132 27.6878 137.952C27.1981 137.793 26.5067 137.801 25.6137 137.347C24.9656 137.016 24.5551 136.699 24.6919 136.641C24.8287 136.584 25.196 136.807 25.8298 136.8C26.4347 136.792 27.0252 136.432 26.9964 136.094C26.9676 135.755 26.8524 135.935 26.2331 135.842Z" fill="#FFA8A7"/>
<defs>
<linearGradient id="paint0_linear" x1="23.2723" y1="121.693" x2="29.9832" y2="121.693" gradientUnits="userSpaceOnUse">
<stop stop-color="#C8E2FF"/>
<stop offset="0.1783" stop-color="#C2DEFC"/>
<stop offset="0.4099" stop-color="#B2D1F4"/>
<stop offset="0.671" stop-color="#97BCE7"/>
<stop offset="0.9518" stop-color="#729FD5"/>
<stop offset="1" stop-color="#6B99D1"/>
</linearGradient>
<linearGradient id="paint1_linear" x1="28.8953" y1="124.954" x2="35.6062" y2="124.954" gradientUnits="userSpaceOnUse">
<stop stop-color="#C8E2FF"/>
<stop offset="0.1783" stop-color="#C2DEFC"/>
<stop offset="0.4099" stop-color="#B2D1F4"/>
<stop offset="0.671" stop-color="#97BCE7"/>
<stop offset="0.9518" stop-color="#729FD5"/>
<stop offset="1" stop-color="#6B99D1"/>
</linearGradient>
<linearGradient id="paint2_linear" x1="34.5183" y1="128.215" x2="41.2289" y2="128.215" gradientUnits="userSpaceOnUse">
<stop stop-color="#C8E2FF"/>
<stop offset="0.1783" stop-color="#C2DEFC"/>
<stop offset="0.4099" stop-color="#B2D1F4"/>
<stop offset="0.671" stop-color="#97BCE7"/>
<stop offset="0.9518" stop-color="#729FD5"/>
<stop offset="1" stop-color="#6B99D1"/>
</linearGradient>
<linearGradient id="paint3_linear" x1="40.1409" y1="131.476" x2="46.8517" y2="131.476" gradientUnits="userSpaceOnUse">
<stop stop-color="#C8E2FF"/>
<stop offset="0.1783" stop-color="#C2DEFC"/>
<stop offset="0.4099" stop-color="#B2D1F4"/>
<stop offset="0.671" stop-color="#97BCE7"/>
<stop offset="0.9518" stop-color="#729FD5"/>
<stop offset="1" stop-color="#6B99D1"/>
</linearGradient>
<linearGradient id="paint4_linear" x1="81.7149" y1="121.693" x2="75.0043" y2="121.693" gradientUnits="userSpaceOnUse">
<stop stop-color="#C8E2FF"/>
<stop offset="0.1783" stop-color="#C2DEFC"/>
<stop offset="0.4099" stop-color="#B2D1F4"/>
<stop offset="0.671" stop-color="#97BCE7"/>
<stop offset="0.9518" stop-color="#729FD5"/>
<stop offset="1" stop-color="#6B99D1"/>
</linearGradient>
<linearGradient id="paint5_linear" x1="76.0919" y1="124.954" x2="69.3813" y2="124.954" gradientUnits="userSpaceOnUse">
<stop stop-color="#C8E2FF"/>
<stop offset="0.1783" stop-color="#C2DEFC"/>
<stop offset="0.4099" stop-color="#B2D1F4"/>
<stop offset="0.671" stop-color="#97BCE7"/>
<stop offset="0.9518" stop-color="#729FD5"/>
<stop offset="1" stop-color="#6B99D1"/>
</linearGradient>
<linearGradient id="paint6_linear" x1="70.469" y1="128.215" x2="63.7584" y2="128.215" gradientUnits="userSpaceOnUse">
<stop stop-color="#C8E2FF"/>
<stop offset="0.1783" stop-color="#C2DEFC"/>
<stop offset="0.4099" stop-color="#B2D1F4"/>
<stop offset="0.671" stop-color="#97BCE7"/>
<stop offset="0.9518" stop-color="#729FD5"/>
<stop offset="1" stop-color="#6B99D1"/>
</linearGradient>
<linearGradient id="paint7_linear" x1="64.8465" y1="131.476" x2="58.1354" y2="131.476" gradientUnits="userSpaceOnUse">
<stop stop-color="#C8E2FF"/>
<stop offset="0.1783" stop-color="#C2DEFC"/>
<stop offset="0.4099" stop-color="#B2D1F4"/>
<stop offset="0.671" stop-color="#97BCE7"/>
<stop offset="0.9518" stop-color="#729FD5"/>
<stop offset="1" stop-color="#6B99D1"/>
</linearGradient>
<linearGradient id="paint8_linear" x1="100.5" y1="170" x2="27.6442" y2="20.3582" gradientUnits="userSpaceOnUse">
<stop stop-color="#FF931E"/>
<stop offset="1" stop-color="#FF931E" stop-opacity="0"/>
</linearGradient>
<linearGradient id="paint9_linear" x1="30.9999" y1="167" x2="31.693" y2="56.8722" gradientUnits="userSpaceOnUse">
<stop stop-color="#FF931E"/>
<stop offset="1" stop-color="#FF931E" stop-opacity="0"/>
</linearGradient>
</defs>
</svg>
