<svg width="185" height="150" viewBox="0 0 185 150" fill="none" xmlns="http://www.w3.org/2000/svg">
<path d="M125.731 2.06616L128.769 4.61383L134.031 11.5167L141.531 22.7166L143.368 25.8862L144.58 29.5492L145.628 33.975L147.347 37.8844L154.954 47.7108L158.238 51.3383L163.595 56.0109L165.503 57.0556L167.998 57.349L172.602 57.3608L176.84 59.1923L178.936 60.4721L181.102 62.3268L183.045 64.4754L185 70.1809L177.641 68.3025L170.224 68.5959L166.044 69.8169L161.97 71.4957L158.073 73.8553L155.636 78.4455L153.587 89.035L150.585 98.9082L150.691 103.463L151.998 107.842L151.845 109.909L150.479 110.789L148.761 112.644L146.465 121.637L145.322 123.433L143.85 124.548L143.45 123.491L143.544 121.132L140.307 119.054L138.599 121.39L137.41 126.333L135.044 131.51L134.926 132.496L135.515 148.45L134.573 148.38L127.803 150L126.39 149.484L120.598 142.134L119.397 141.324L116.9 140.996L115.429 139.786L114.24 137.814L113.557 136.347L107.564 132.355L106.681 130.888L106.552 129.596L107.435 128.434L108.447 127.46L111.379 126.462L114.793 125.605L115.888 124.983L116.441 123.914L116.406 122.2L115.853 120.51L110.943 117.446L110.401 116.119L110.249 114.499L110.519 112.797L111.284 111.47L115.288 109.662L117.431 107.784L116.1 105.694L111.779 100.916L106.646 95.6562L103.219 95.6093L99.2758 97.1591L92.9649 101.644L89.4797 103.557L84.9237 106.727L79.9667 110.249L75.9045 113.982L73.3735 117.07L68.8757 118.408L66.5798 120.991L59.033 128.716L56.9138 128.622L56.7844 124.783L56.8901 121.742L56.4072 119.993L53.9589 117.586L53.9229 116.553L54.5826 115.908L56.4546 116.295L58.8684 116.154L60.0218 115.203L57.4434 112.034L55.1474 109.909L53.2051 108.476L52.7696 107.619V107.009L53.1813 106.281L56.502 104.532L56.8312 102.923L56.6077 101.127L51.3331 98.474L47.3886 99.4481L43.8452 96.4662L41.5729 94.1654L38.7351 91.6883L36.2042 90.3265L33.7667 87.2153L29.5398 84.0105L26.8321 83.0948L26.8673 82.6015L27.3617 82.0146L28.4921 81.5216L36.0274 81.6506L36.9458 81.0756L37.4165 79.6901L38.4405 77.6473L39.642 74.6421L39.5479 72.1062L31.9774 68.009L26.4908 64.2285L22.6879 59.2511L20.1095 54.6842L20.2037 53.1461L20.9453 51.6904L26.8321 47.4761L27.2324 46.3841L27.103 45.6446L24.9954 43.4842L22.3581 41.2536L21.5338 39.6102L19.8738 38.7765L16.7184 38.7181L11.1851 35.9709L10.0073 35.7008L9.74864 35.1608L10.0196 34.6091L13.9633 33.4938L13.9044 32.5781L12.7036 31.3689L10.478 30.4883L8.43 28.2931L7.7236 26.3208L14.8465 20.5448L16.9541 19.3825L21.6165 20.4509L31.3062 24.2898L30.6465 26.4147L31.6238 27.612L33.8493 29.2321L38.1229 30.8759L41.7375 31.7211L43.5628 30.9931L46.3409 30.3826L49.9555 32.2846L53.2877 34.6911L54.9477 35.6656L55.8423 35.9591L58.374 35.1608L61.4116 32.0614L62.6124 28.3164L62.9422 26.5086L61.1759 24.0196L57.526 21.3193L53.4408 18.9479L50.815 16.8467L49.1313 12.7025L47.4361 12.2447L47.0121 11.7044L46.7297 10.2838L46.8001 8.31156L47.3771 6.78568L49.0371 6.12825L50.7093 5.89322L52.2162 4.43756L54.1119 1.58464L54.9125 0L58.4681 0.903921L58.9503 3.46306L59.5863 4.00333L61.058 3.69809L63.507 2.62972L65.4616 3.45159L67.9811 6.49189L71.4541 9.697L73.3383 11.857L74.0799 13.3363L75.8577 14.7805L78.4598 16.4708L80.5316 19.1242L82.3806 25.2757L84.2525 26.6963L90.9514 29.0326L93.3063 29.5138L99.888 30.3356L102.207 29.7488L105.598 24.4539L108.647 18.9949L111.496 17.8563L116.642 15.2147L119.727 12.714L121.022 10.0141L123.93 4.91908L125.731 2.06616ZM25.9252 55.682L26.2551 54.2499L25.3252 53.604L24.3479 53.5689L23.4999 54.2851V56.0696L24.6777 56.3863L25.9252 55.682ZM8.45299 37.8493L7.7351 38.3423L6.63994 37.8493L6.31082 36.7458L6.39274 35.5836L7.4764 35.3135L8.35885 35.642L8.60605 36.6871L8.45299 37.8493ZM44.4926 129.878L38.1229 128.61L26.6668 125.875L23.5121 124.466L20.5328 120.674L18.755 118.842L16.1299 116.495L13.9633 115.602L12.327 113.959L11.3964 111.529L10.0196 109.345L7.66468 106.774L2.30745 98.0279L1.61256 97.1122L0.494403 95.6562L0 94.8461L3.26105 94.1772L8.68869 92.2164L10.1726 93.1676L11.7615 95.1514L12.562 96.8539L12.7036 100L13.351 100.505L16.0005 99.4481L17.1891 100.716L19.2264 102.23L22.7583 103.733L27.8446 101.373L30.3756 100.763L32.4595 100.81L33.5899 101.55L33.9902 103.992L33.5784 107.009L32.9899 108.664L34.0613 109.862L38.2293 112.761L39.9597 114.37L39.1239 117.152L42.2319 123.949L43.2796 126.591L44.4926 129.878Z" fill="#F0F2F5"/>
</svg>
