<svg width="131" height="150" viewBox="0 0 131 150" fill="none" xmlns="http://www.w3.org/2000/svg">
<path d="M69.2811 12.4702L74.1585 13.5617L76.0294 14.4433L81.5102 23.1373L88.7312 29.2469L91.7985 31.5305L94.1617 32.6123L97.3903 35.8774L100.206 39.984L106.381 51.5326L107.447 56.6005L107.869 64.3329L106.512 75.9916L104.852 81.801L105.174 84.5453L107.447 88.7522L106.763 92.7286L107.205 96.0337L107.044 105.188L108.332 107.893L109.8 109.615L117.554 115.044L118.127 117.057L121.949 123.968L129.029 139.012L131 145.773L130.778 147.596L129.924 148.347L127.842 149.008L126.102 147.686L125.519 146.745L125.7 145.563L125.016 144.401L123.316 143.019L122.341 141.777L122.613 143.83L122.623 146.494L120.46 146.725L117.695 145.893L114.235 146.645L110.152 149.91L108.191 150L106.703 147.196L105.938 145.292L104.721 143.95L91.7383 137.069L86.9413 135.306L81.8926 130.088L70.5284 124.329L63.3074 118.71L60.2402 115.244L52.8584 112.169L49.6807 108.544L48.1117 107.833L46.5428 106.541L48.202 103.015L47.5182 99.3388L46.6637 96.2339L41.4543 90.1142L38.8995 85.8474L34.0019 81.5907L32.0407 79.1366L30.1704 76.292L31.3367 75.2904L32.4231 74.6894L31.4275 72.6161L28.6218 69.0206L27.3143 64.884V57.0712L23.3319 46.0838L19.9227 30.8495L20.5359 25.5111L19.6612 19.7218L17.3981 14.1529L14.4413 10.1765L13.3352 6.87103L13.868 5.55912L14.5217 1.26209L14.9643 0.410813L16.0808 0L17.3477 0.110345L19.7116 3.84618L25.8761 6.16006L27.7366 6.71086L30.16 5.78929L31.2563 6.37035L32.363 7.32189L32.9964 9.98606L34.6157 12.41L37.8536 12.0594L39.0002 12.41L39.6742 12.48L40.3076 14.6236L40.5992 18.3493L40.2978 20.5128L37.9641 23.608L37.6529 25.7113L38.8793 27.0134L40.4685 28.4054L41.3837 29.4774L42.3394 29.297L43.5462 28.576L44.6523 26.753L45.4165 25.1904L49.5702 23.4475L53.8644 21.8752L54.4476 22.0354L55.1412 22.7265L56.5094 25.0101L57.3135 25.4909L58.4699 25.7214L60.4814 25.4808L62.8145 24.1888L64.0416 21.7749L64.5848 19.8719L67.9436 16.5765L68.3156 14.1028L69.2811 12.4702ZM5.69194 6.19001L7.68317 9.20478L6.68756 10.547L6.18484 10.9376L4.98789 10.4968L3.84189 11.6489L2.74561 11.879L1.64933 9.79594L0.291564 8.96453L0 7.5221L1.81997 7.27176L2.90643 7.77244L4.94799 6.77108L5.69194 6.19001ZM18.1322 39.0627L17.4282 39.844L15.3768 39.3931L15.7389 34.7956L16.9052 34.2048L18.7356 35.0362L19.5403 35.8175L18.1322 39.0627ZM47.1965 103.626L45.7682 104.137L45.6878 103.405L45.9394 102.384L46.9854 101.412L47.4678 101.963L47.1965 103.626ZM129.129 110.807L127.761 111.098L127.018 110.907L126.515 109.816L127.661 107.312L128.083 106.891L129.17 109.615L129.129 110.807Z" fill="#F0F2F5"/>
</svg>
