<svg width="130" height="190" viewBox="0 0 130 190" fill="none" xmlns="http://www.w3.org/2000/svg">
<path opacity="0.15" d="M4.92983 144.487L36.5025 162.713C37.4645 163.264 39.0176 163.264 39.9795 162.723L101.862 127.253C102.824 126.702 102.824 125.81 101.862 125.249L70.0592 106.882C69.0973 106.331 67.5442 106.331 66.5923 106.882L4.93986 142.473C3.97795 143.034 3.97794 143.926 4.92983 144.487Z" fill="#6B99D1"/>
<path d="M2.82568 83.1453V135.9C2.82568 137.563 3.98802 139.587 5.42087 140.409L35.6308 157.854C35.6409 157.854 35.6409 157.864 35.6509 157.864C36.3723 158.264 37.3042 158.475 38.236 158.475V117.053L2.82568 83.1453Z" fill="#A5CBFA"/>
<path d="M38.2361 158.475C39.1579 158.475 40.0797 158.275 40.7911 157.884C40.8112 157.874 40.8212 157.874 40.8312 157.864C40.8312 157.854 40.8412 157.854 40.8412 157.854L91.1712 128.796C92.604 127.964 93.7664 125.95 93.7664 124.287V89.6984L38.2361 117.053V158.475Z" fill="#C8E2FF"/>
<path d="M4.09824 80.3095L55.871 50.4201C57.3139 49.5884 59.388 49.9091 60.5103 51.1315L93.0749 86.6521C94.1972 87.8745 93.9366 89.5378 92.5038 90.3694L40.731 120.259C39.2881 121.09 37.214 120.77 36.0918 119.547L3.52709 84.0268C2.40486 82.8044 2.65537 81.1411 4.09824 80.3095Z" fill="#DCEEFF"/>
<path d="M85.5801 88.636C85.5801 88.646 85.57 88.646 85.5801 88.636L40.9514 114.407C40.9313 114.417 40.9113 114.427 40.8913 114.437C39.9394 114.948 38.6167 114.738 37.8753 113.956C37.8652 113.946 37.8653 113.946 37.8553 113.936L10.8717 84.4977L10.7514 84.3675L10.7614 84.3575C10.1502 83.5659 10.3406 82.5539 11.2324 82.0329C11.2424 82.0329 11.2424 82.0228 11.2524 82.0228L55.871 56.2617C55.8911 56.2516 55.9111 56.2416 55.9312 56.2316C56.4121 55.9711 56.9832 55.901 57.5343 55.9911C58.0754 56.0813 58.5764 56.3318 58.9472 56.7126C58.9572 56.7226 58.9572 56.7226 58.9672 56.7326L85.9508 86.161C85.9608 86.1811 85.9808 86.1911 85.9909 86.2112C86.6822 87.0228 86.5019 88.0949 85.5801 88.636Z" fill="#1E3779"/>
<path d="M10.7515 84.3675L37.8052 113.876C38.6268 114.778 39.9695 114.978 41.0316 114.367L85.8606 88.4856L57.3941 57.444L10.7515 84.3675Z" fill="#2D3192"/>
<mask id="mask0" mask-type="alpha" maskUnits="userSpaceOnUse" x="10" y="58" width="74" height="57">
<path d="M10.7515 84.3675L37.8052 113.876C38.6268 114.778 39.9695 114.978 41.0316 114.367L83.5 89.5L55 58.5L10.7515 84.3675Z" fill="#2D3192"/>
</mask>
<g mask="url(#mask0)">
<path d="M-26.3322 117.815L-18.0862 112.643C-15.5411 111.047 -12.5788 110.243 -9.57574 110.334V110.334C-4.68923 110.482 -0.0314713 108.263 2.93278 104.376L7.01025 99.0281C9.06529 96.3329 11.5888 94.0298 14.46 92.2289L22.268 87.3313L30.0761 82.4338C32.9473 80.6329 35.4708 78.3298 37.5259 75.6346L41.6033 70.2871C44.5676 66.3995 49.2253 64.1809 54.1118 64.3289V64.3289C57.1149 64.4199 60.0772 63.6161 62.6223 62.0197L70.8683 56.8475" stroke="#FF931E" stroke-width="2"/>
<path d="M77.4967 65.6433L69.218 70.7629C66.6627 72.3432 63.6954 73.1281 60.693 73.018V73.018C55.8075 72.839 51.1357 75.0279 48.1468 78.8966L44.0354 84.2181C41.9633 86.9001 39.4252 89.1871 36.5426 90.9698L28.7036 95.8175L20.8645 100.665C17.9819 102.448 15.4438 104.735 13.3717 107.417L9.26036 112.739C6.27145 116.607 1.59968 118.796 -3.28581 118.617V118.617C-6.2882 118.507 -9.25554 119.292 -11.8108 120.872L-20.0895 125.992" stroke="#FF931E" stroke-width="2"/>
<path d="M-12.8404 133.993L-4.41068 129.126C-1.80879 127.624 1.18094 126.929 4.17862 127.13V127.13C9.05645 127.456 13.7923 125.41 16.8968 121.633L21.1673 116.439C23.3196 113.82 25.9257 111.611 28.8608 109.917L36.8429 105.308L44.825 100.7C47.7602 99.0051 50.3663 96.7958 52.5186 94.1777L56.789 88.983C59.8936 85.2065 64.6294 83.1598 69.5072 83.4866V83.4866C72.5049 83.6874 75.4947 82.9926 78.0966 81.4903L86.5263 76.6234" stroke="#FF931E" stroke-width="2"/>
</g>
<path d="M57.5343 55.9911L57.384 57.434L10.7614 84.3575C10.1502 83.5659 10.3406 82.5539 11.2324 82.0329C11.2424 82.0329 11.2424 82.0228 11.2524 82.0228L55.871 56.2617C55.8911 56.2516 55.9111 56.2416 55.9311 56.2316C56.4121 55.9711 56.9832 55.901 57.5343 55.9911Z" fill="#031F60"/>
<path d="M34.3583 21.0718L42.294 25.6509V34.8091L34.3583 30.23V21.0718Z" fill="#FF8500"/>
<path d="M42.2939 25.6509L50.2197 21.0718V30.23L42.2939 34.8091V25.6509Z" fill="#FF931E"/>
<path d="M50.2197 21.0718L42.294 16.4827L34.3583 21.0718L42.294 25.6509L50.2197 21.0718Z" fill="#FFB565"/>
<path d="M42.2941 21.0719L23.2462 5.50098" stroke="#2D3192" stroke-miterlimit="10" stroke-linecap="round"/>
<path d="M38.3261 27.9354L16.1221 51.2918" stroke="#2D3192" stroke-miterlimit="10" stroke-linecap="round"/>
<path d="M0 48.2361L10.561 54.3382V66.5425L0 60.4403V48.2361Z" fill="#FF8500"/>
<path d="M10.561 54.3382L21.132 48.2361V60.4404C21.132 60.4404 10.561 66.7529 10.561 66.5425C10.561 66.322 10.561 54.3382 10.561 54.3382Z" fill="#FF931E"/>
<path d="M21.132 48.2359L10.561 42.1338L0 48.2359L10.561 54.3381L21.132 48.2359Z" fill="#FFB565"/>
<path d="M13.7373 3.66724L20.0799 7.32449V14.6591L13.7373 10.9918V3.66724Z" fill="#FF8500"/>
<path d="M20.08 7.32439L26.4225 3.6571V10.9816C26.4225 10.9816 20.08 14.7692 20.08 14.6489C20.08 14.5287 20.08 7.32439 20.08 7.32439Z" fill="#FF931E"/>
<path d="M26.4325 3.66729L20.0799 0L13.7373 3.66729L20.0799 7.32455L26.4325 3.66729Z" fill="#FFB565"/>
<path d="M10.8015 47.9451L16.9036 9.15808" stroke="#2D3192" stroke-miterlimit="10" stroke-linecap="round"/>
<path d="M79.3576 152.433C78.6362 153.334 77.0129 153.795 75.8907 153.545C75.0691 153.354 74.528 153.214 73.9068 153.014C73.0951 152.753 71.8627 152.743 71.011 152.693C69.989 152.633 69.1774 152.713 68.1654 152.563C67.2936 152.433 66.4019 152.182 65.5903 151.831C64.5081 151.37 62.6544 149.156 64.0071 148.324C64.1073 148.264 64.2276 148.244 64.3478 148.224C67.985 147.673 72.6843 147.894 73.8366 146.491C73.8366 146.491 78.7263 146.25 78.7764 146.24C78.6261 146.25 79.578 150.699 79.6582 151.06C79.6983 151.26 79.7484 151.461 79.7283 151.671C79.6882 151.962 79.538 152.212 79.3576 152.433Z" fill="#2D2979"/>
<path d="M76.2915 124.006L78.3556 122.273C78.3556 122.273 79.6582 125.679 79.6282 126.892C79.5981 128.114 78.7565 146.26 78.7565 146.26C78.7565 146.26 75.9909 148.354 73.8367 146.491C73.8367 146.491 72.3637 125.028 72.0331 121.671L76.2915 124.006Z" fill="#6F89D1"/>
<path d="M68.4359 157.984C67.6343 158.815 65.971 159.126 64.8889 158.775C64.0873 158.515 63.5663 158.314 62.9651 158.064C62.1835 157.733 60.951 157.603 60.1094 157.473C59.0974 157.322 58.2857 157.322 57.2837 157.082C56.4321 156.871 55.5603 156.541 54.7888 156.12C53.7467 155.559 52.1135 153.194 53.5363 152.483C53.6465 152.433 53.7668 152.423 53.887 152.413C57.5643 152.202 62.2135 152.843 63.4961 151.561C63.4961 151.561 68.3858 151.761 68.4359 151.771C68.2856 151.761 68.8267 156.29 68.8668 156.651C68.8969 156.851 68.9169 157.062 68.8768 157.262C68.8066 157.543 68.6363 157.783 68.4359 157.984Z" fill="#2D2979"/>
<path d="M69.2977 132.403C69.2677 133.625 68.426 151.771 68.426 151.771C68.426 151.771 65.6404 153.435 63.4861 151.561C63.4861 151.561 62.0333 130.529 61.7026 127.172" fill="#7FA8E6"/>
<path opacity="0.15" d="M65.8809 162.923L89.1671 149.477C90.61 148.645 92.9346 148.645 94.3775 149.477L117.664 162.923C119.107 163.755 119.107 165.098 117.664 165.929L94.3775 179.376C92.9446 180.208 90.61 180.208 89.1671 179.376L65.8809 165.929C64.438 165.098 64.438 163.755 65.8809 162.923Z" fill="#6B99D1"/>
<path d="M65.8809 134.988L89.1671 121.541C90.61 120.709 92.9346 120.709 94.3775 121.541L117.664 134.988C119.107 135.819 119.107 137.162 117.664 137.994L94.3775 151.44C92.9446 152.272 90.61 152.272 89.1671 151.44L65.8809 137.994C64.438 137.162 64.438 135.819 65.8809 134.988Z" fill="#DCEEFF"/>
<path d="M91.7623 121.922C92.5639 121.922 93.3254 122.102 93.8665 122.413L117.153 135.86C117.584 136.11 117.734 136.351 117.734 136.491C117.734 136.631 117.584 136.882 117.153 137.122L93.8665 150.569C93.3254 150.879 92.5639 151.06 91.7623 151.06C90.9607 151.06 90.1992 150.879 89.6581 150.569L66.3718 137.122C65.941 136.872 65.7907 136.621 65.7907 136.491C65.7907 136.351 65.941 136.1 66.3718 135.86L89.6581 122.413C90.1992 122.102 90.9707 121.922 91.7623 121.922ZM91.7623 120.92C90.8204 120.92 89.8786 121.13 89.1571 121.541L65.8708 134.988C64.428 135.82 64.428 137.162 65.8708 137.994L89.1571 151.441C89.8786 151.851 90.8204 152.062 91.7623 152.062C92.7042 152.062 93.646 151.851 94.3674 151.441L117.654 137.994C119.097 137.162 119.097 135.82 117.654 134.988L94.3674 121.541C93.656 121.13 92.7042 120.92 91.7623 120.92Z" fill="white"/>
<path d="M64.7987 159.988C64.8087 160.609 65.2196 161.1 65.8809 161.491L89.1671 174.937C89.8384 175.328 90.7002 175.538 91.7723 175.558V152.052C90.7503 152.042 89.8885 151.831 89.1671 151.431L65.8809 137.984C65.2997 137.653 64.7987 137.162 64.7987 136.481V159.988Z" fill="#A5CBFA"/>
<path d="M118.736 159.988C118.726 160.609 118.315 161.1 117.654 161.491L94.3675 174.937C93.6961 175.328 92.8345 175.538 91.7623 175.558V152.052C92.7844 152.042 93.646 151.831 94.3675 151.431L117.654 137.984C118.235 137.653 118.736 137.162 118.736 136.481V159.988Z" fill="#C8E2FF"/>
<path d="M78.506 117.002C80.9208 117.884 97.2532 124.006 97.2532 124.006C97.2532 124.006 96.6119 135.589 93.125 133.715L76.3016 124.006L72.0432 121.671C71.6524 117.894 75.8507 116.03 78.506 117.002Z" fill="#6F89D1"/>
<path d="M61.7025 127.172C61.3218 123.395 65.5202 121.531 68.1754 122.503C70.5902 123.385 86.9226 129.507 86.9226 129.507L103.125 128.134C103.516 134.196 99.5878 136.791 95.0688 138.785C90.5498 140.769 86.2814 141.09 82.7944 139.216L65.971 129.507L68.0251 127.773C68.0251 127.773 69.3277 131.17 69.2977 132.392" fill="#7FA8E6"/>
<path d="M85.4897 88.5856C85.8404 85.1387 88.1751 82.4133 91.7121 82.4333C95.4796 82.4534 98.5156 85.5195 98.4955 89.2869C98.4855 91.4913 97.4234 93.4152 95.8002 94.6576C95.8002 94.6576 95.71 95.0985 95.5898 95.5193C95.5898 95.5193 95.9505 97.343 96.1208 97.6436C96.3312 98.0343 97.3633 97.6536 98.736 97.4532C99.6779 97.3129 99.8883 99.0664 99.3071 100.71C98.7761 102.183 96.4615 103.736 94.3072 104.116C92.1529 104.497 88.656 103.155 89.8985 102.203C91.141 101.261 91.151 100.9 90.9606 100.249C90.7702 99.5974 90.3895 98.355 90.3895 98.355C89.5778 98.5153 88.8965 98.5954 88.5458 98.5554C87.143 98.4251 86.4516 98.1446 86.0007 96.5414C85.1791 93.5855 85.2893 90.289 85.4897 88.5856Z" fill="#FFA8A7"/>
<path d="M93.0749 100.389C93.0749 100.389 91.9226 100.359 90.9907 100.349C90.9807 100.309 90.9707 100.279 90.9607 100.239C90.7703 99.5876 90.3896 98.3451 90.3896 98.3451C89.578 98.5054 88.8966 98.5856 88.5459 98.5455C87.9547 98.4954 87.4938 98.4052 87.113 98.2048C87.9547 98.3551 89.3174 97.6537 89.628 97.0125C89.9487 96.3712 89.9487 94.2269 89.9487 94.2269C89.9487 94.2269 90.0289 94.5876 90.2092 94.9584C90.3896 95.3291 90.8004 95.259 90.8004 95.259L92.133 95.0987L96.0809 94.4073C95.9907 94.4874 95.9005 94.5676 95.8003 94.6477C95.8003 94.6477 95.7101 95.0886 95.5899 95.5095C95.5899 95.5095 95.9506 97.3331 96.1209 97.6337C96.2211 97.804 96.4816 97.8241 96.8624 97.774L96.3414 98.4553L93.0749 100.389Z" fill="#F28F8F"/>
<path d="M84.8385 82.0025C86.9928 82.6739 94.9887 79.5978 96.4315 84.3572C96.4315 84.3572 98.0147 84.9384 98.4956 87.263C98.9866 89.5876 98.9867 91.311 97.664 93.6357C96.3514 95.9603 95.9206 97.0224 95.9206 97.0224C95.9206 97.0224 94.9687 97.8139 93.6561 98.0544C92.3435 98.2949 90.9306 97.7238 90.3595 96.1106C90.0689 95.2789 89.9487 94.2368 89.9487 94.2368C90.2593 94.7278 91.1811 94.4573 91.6821 93.4553C92.123 92.5735 92.2934 91.4312 91.7222 90.5695C91.0008 89.4673 89.6581 89.778 89.3976 90.6397C89.1772 91.3711 89.2874 92.5234 89.2874 92.5234C89.2874 92.5234 88.3756 92.6337 88.1752 91.6617C88.0349 90.9704 88.0349 90.1788 88.065 89.5375C88.095 88.9463 87.9146 88.3351 87.4838 87.9343C86.8726 87.3732 87.093 86.4814 87.093 86.4814C87.093 86.4814 85.1993 86.3812 84.1973 84.5576C83.1853 82.7139 82.6842 81.3312 84.8385 82.0025Z" fill="#3A2C6D"/>
<path d="M96.8623 97.7339C97.0126 98.2349 96.5918 99.0565 94.8082 99.9984C92.4034 101.281 90.9706 101.121 90.9706 101.121C90.9706 101.121 88.1149 102.664 86.8725 103.535C85.3094 104.628 84.618 107.794 84.4076 113.124C84.2172 117.854 84.1671 125.349 84.2372 129.317C84.2773 131.14 85.3194 132.794 86.9627 133.575C88.0749 134.106 89.4676 134.527 91.0107 134.397C94.7481 134.086 101.612 130.679 103.135 128.124C103.095 122.714 102.634 119.417 102.824 116.181C103.155 110.469 104.407 105.95 102.834 101.361C101.461 97.3732 99.8783 97.1828 98.3453 97.3932C97.4735 97.5335 96.8623 97.7339 96.8623 97.7339Z" fill="#F5FBFB"/>
<path d="M95.9606 97.1426C96.5818 97.0625 96.7522 97.2929 97.173 97.6636C97.173 97.6636 97.714 99.1666 95.7 100.489C93.686 101.802 90.5498 101.351 90.5498 101.351L89.8184 101.752C89.8184 101.752 90.159 99.6877 90.7602 99.5474C90.7602 99.5474 92.5237 99.6376 94.3373 98.7558C96.1509 97.8941 95.9606 97.1426 95.9606 97.1426Z" fill="#E4F2F2"/>
<path d="M60.0894 102.714C60.4601 103.505 61.0312 104.096 61.4721 105.259C61.8529 106.281 62.0332 106.692 62.7246 107.433C63.4761 108.235 65.6504 109.487 68.8066 111.07C71.9529 112.653 74.4579 112.593 76.2915 111.892C80.3195 110.359 82.5339 106.792 85.1191 104.728C86.9226 103.275 88.7062 103.936 89.0068 105.259C89.2473 106.291 88.3555 109.187 85.2493 112.183C82.8445 114.507 78.7364 117.062 75.2795 117.152C73.0751 117.213 70.3698 116.571 68.5361 115.74C65.5302 114.387 63.3759 112.944 60.7006 111.271C59.9691 110.81 59.3178 110.66 57.8249 109.948C56.3319 109.247 54.7788 108.064 53.9972 106.922C53.2157 105.78 53.1155 105.249 53.2758 104.988C53.4762 104.668 53.8369 104.738 54.2477 105.219C54.6686 105.7 55.2698 106.561 56.4421 107.273C56.4421 107.273 55.4802 106.271 54.9592 105.609C54.4381 104.958 54.0273 104.247 53.8069 103.706C53.5363 103.044 54.1074 102.143 54.5383 102.614C54.9692 103.095 55.1696 103.575 55.9612 104.527C56.6726 105.399 57.3739 105.89 57.3739 105.89C57.3739 105.89 56.5724 104.808 56.0814 103.776C55.5804 102.744 55.5904 102.213 55.6205 101.872C55.6405 101.521 56.1315 101.121 56.5924 101.772C57.0032 102.363 57.2637 103.285 58.2256 104.297C58.917 105.028 59.5182 105.449 59.5282 105.249C59.5483 105.048 59.1074 104.648 58.8569 103.796C58.6264 102.984 58.877 102.052 59.3379 101.962C59.8088 101.902 59.7186 101.922 60.0894 102.714Z" fill="#FFA8A7"/>
<path d="M88.5558 104.167C89.147 104.728 89.4276 105.82 89.0468 107.072C88.6661 108.325 87.2633 110.379 86.0108 111.912C85.2293 112.874 83.115 114.758 83.115 114.758C83.115 114.758 79.9888 112.623 79.1873 109.998C79.1873 109.998 83.1852 106.161 84.2473 105.169C85.3194 104.177 87.0529 102.724 88.5558 104.167Z" fill="#E4F2F2"/>
</svg>
