<svg width="123" height="150" viewBox="0 0 123 150" fill="none" xmlns="http://www.w3.org/2000/svg">
<path d="M60.1726 13.3157L58.8168 12.5734L66.0063 10.4378L70.5528 9.78676L71.3616 10.0722L63.1463 12.8815L60.1726 13.3157ZM76.1358 9.84391L82.448 8.96463L82.4139 8.63355L80.7504 8.09685L75.3725 8.18816L73.652 8.5649L74.0049 9.19291L76.1358 9.84391ZM95.369 6.17832L94.0132 5.9497L90.0707 7.09176L89.7974 7.61696L90.8914 8.00519L95.369 6.17832ZM56.2075 17.05L53.5982 16.9357L49.7924 20.3503L50.2938 20.9783L56.2075 17.05ZM110.318 0H108.837L106.091 1.0734L105.236 2.50088L108.199 2.31827L110.318 0ZM21.1133 117.156L17.0342 119.281L11.7019 118.538L7.64571 116.985L2.41562 117.282L0 118.093L0.957278 122.524L1.68645 123.928L2.63225 124.842L3.88544 125.025L5.33266 123.928L7.34945 122.775L10.5965 123.312L12.9551 124.374L13.7983 125.482L15.3592 126.532L17.6382 126.783L22.0477 124.773L26.2864 121.702L27.5284 119.566L27.9954 117.636L24.3266 118.961L21.1133 117.156ZM123 18.4318L118.545 17.4609L115.674 16.0334L113.884 13.4527L110.808 9.92372L102.73 10.2893L96.007 11.3056L86.6982 11.7398L80.6708 13.4527L69.7551 19.1626L67.0091 22.0748L64.2061 28.344L54.7033 35.5616L49.1658 38.3364L47.6049 37.2745L45.3603 36.5779L43.5713 40.2434L42.4662 43.5438L38.7515 62.8779L36.2222 69.8668L32.8152 75.7364L27.4599 82.9083L24.9988 85.352L23.4949 86.277L21.6147 89.7258L20.1108 93.8598L19.0854 95.7898L25.0899 102.893L25.842 104.926L26.6282 106.113L20.9426 106.856L23.3582 109.151L26.4004 110.795L28.4398 111.583L29.5564 113.24L27.3688 114.005L25.3065 114.05L17.1483 107.963L12.6133 106.844L6.36957 107.198L4.79717 107.838L3.17887 109.688L5.46932 112.497L7.58868 114.153L10.9953 114.37L15.0974 116.448L20.9996 114.713L25.238 116.848L28.0295 117.613L30.5362 118.892L32.7467 119.166L33.7155 118.595L33.1 115.501L34.9005 113.845L36.8943 113.08L37.7946 114.427L39.6288 115.798L41.0646 115.809L44.9615 112.246L45.8729 112.954L46.7161 114.222L46.8983 115.238L47.0464 116.311L47.9237 116.757L50.9889 116.528L52.5498 114.598L53.7689 113.388L54.6807 114.21L55.125 116.586L55.9683 119.68L59.6256 123.129L62.7134 124.111L66.5077 123.437L68.0116 122.821L69.0259 123.334L70.0399 125.162L72.2277 127.252L76.8194 128.725L78.2322 129.558L79.2121 130.963L78.9273 132.962L76.7398 137.929L76.4547 139.391L76.7509 139.882L76.318 140.796L73.4695 144.119L73.2188 145.295L74.1646 147.202L74.9508 148.778L76.6598 149.543L78.2666 149.794L81.3088 149.897L84.5562 150L86.2993 142.177L84.9662 139.893L83.3142 138.729L81.3885 138.157L80.4997 137.072L80.192 135.828L80.5338 135.063L82.8013 135.291L83.5078 134.48L88.9087 129.867L89.1364 128.976L88.3846 128.473L87.4048 128.211L87.1541 127.24L87.1881 125.961L90.0707 119.281L90.9254 116.426L91.1191 114.404L90.9369 112.406L89.2731 109.265L87.6666 106.753L87.6096 104.754L86.436 103.704L83.109 98.3252V96.2467L84.9891 94.6251L87.621 93.5974L88.4983 92.7407L90.0707 92.204L94.2524 93.757L96.1211 95.1046L96.6451 94.8307L98.3316 93.3687L101.294 93.5974L108.461 90.6507L109.532 89.2347L110.33 87.7275L110.398 87.0649L107.618 84.1528L107.538 83.0794L107.903 81.8691L108.689 80.9096L110.33 80.259L112.073 78.9799L115.981 75.3482L117.337 72.1963L117.758 68.7704L117.838 66.2124L116.767 64.1796L115.685 62.8664L114.215 63.072L111.355 62.9692L108.677 61.8271L107.208 59.9773L106.843 58.3557L107.515 57.3276L107.72 56.0716L107.287 54.804L107.458 53.7418L108.666 52.8855L117.132 52.9082L117.77 51.9717L118.34 47.0383L120.459 39.5126L122.453 35.3103L122.783 33.5403L122.749 23.5479L123 18.4318ZM12.1803 102.642L14.9719 101.831L19.1991 105.28L23.1645 104.161L22.925 103.201L22.2528 102.299L19.131 99.4784L14.0149 99.1243L11.1208 99.9924L11.1323 101.009L12.1803 102.642ZM45.9299 33.4831L49.0976 29.7144V23.719L44.4145 28.6183L43.4346 31.5646L43.9927 32.4439L45.9299 33.4831Z" fill="#F0F2F5"/>
</svg>
