<svg width="20" height="20" viewBox="0 0 20 20" fill="none" xmlns="http://www.w3.org/2000/svg">
<path d="M5.85169 0.666748C2.98843 0.666748 0.666504 2.98867 0.666504 5.85193V14.1482C0.666504 17.0115 2.98843 19.3334 5.85169 19.3334H14.148C17.0112 19.3334 19.3332 17.0115 19.3332 14.1482V5.85193C19.3332 2.98867 17.0112 0.666748 14.148 0.666748H5.85169ZM16.2221 2.74082C16.7945 2.74082 17.2591 3.20541 17.2591 3.77786C17.2591 4.3503 16.7945 4.8149 16.2221 4.8149C15.6496 4.8149 15.185 4.3503 15.185 3.77786C15.185 3.20541 15.6496 2.74082 16.2221 2.74082ZM9.99984 4.8149C12.8631 4.8149 15.185 7.13682 15.185 10.0001C15.185 12.8633 12.8631 15.1853 9.99984 15.1853C7.13658 15.1853 4.81465 12.8633 4.81465 10.0001C4.81465 7.13682 7.13658 4.8149 9.99984 4.8149ZM9.99984 6.88897C9.17472 6.88897 8.3834 7.21675 7.79995 7.80019C7.2165 8.38364 6.88873 9.17496 6.88873 10.0001C6.88873 10.8252 7.2165 11.6165 7.79995 12.2C8.3834 12.7834 9.17472 13.1112 9.99984 13.1112C10.825 13.1112 11.6163 12.7834 12.1997 12.2C12.7832 11.6165 13.1109 10.8252 13.1109 10.0001C13.1109 9.17496 12.7832 8.38364 12.1997 7.80019C11.6163 7.21675 10.825 6.88897 9.99984 6.88897Z" fill="#5F6773"/>
</svg>
