<svg width="21" height="17" viewBox="0 0 21 17" fill="none" xmlns="http://www.w3.org/2000/svg">
<path d="M20.6665 1.92377C19.9304 2.25068 19.1396 2.47067 18.3097 2.5699C19.1573 2.06223 19.8073 1.25841 20.1134 0.299989C19.3212 0.769971 18.4427 1.1115 17.5074 1.2961C16.759 0.498442 15.6928 0 14.5129 0C12.2468 0 10.41 1.83762 10.41 4.10292C10.41 4.42445 10.4469 4.73828 10.5161 5.0375C7.10626 4.86674 4.0833 3.23295 2.05876 0.749971C1.70646 1.3561 1.50416 2.06069 1.50416 2.81374C1.50416 4.23676 2.22798 5.49287 3.32871 6.22822C2.65643 6.20669 2.02337 6.02208 1.47032 5.71517C1.47032 5.73286 1.47032 5.74901 1.47032 5.7667C1.47032 7.75509 2.88411 9.41349 4.76173 9.78963C4.4179 9.88347 4.05484 9.93347 3.68023 9.93347C3.4164 9.93347 3.15872 9.90731 2.90873 9.86039C3.43101 11.4903 4.94634 12.6772 6.74166 12.7103C5.33786 13.811 3.5687 14.4671 1.6457 14.4671C1.31494 14.4671 0.98803 14.4479 0.666504 14.4094C2.48259 15.5733 4.63866 16.2525 6.95626 16.2525C14.5037 16.2525 18.6297 10.0004 18.6297 4.57829C18.6297 4.4006 18.6258 4.22368 18.6181 4.04754C19.4204 3.46833 20.1165 2.74605 20.6665 1.92377Z" fill="#5F6773"/>
</svg>
