<svg width="119" height="180" viewBox="0 0 119 180" fill="none" xmlns="http://www.w3.org/2000/svg">
<path opacity="0.15" d="M4.92971 144.487L36.5024 162.713C37.4643 163.264 39.0175 163.264 39.9794 162.723L101.862 127.253C102.824 126.702 102.824 125.81 101.862 125.249L70.0591 106.882C69.0972 106.331 67.5441 106.331 66.5922 106.882L4.93974 142.473C3.97783 143.034 3.97782 143.926 4.92971 144.487Z" fill="#6B99D1"/>
<path d="M2.82568 83.1453V135.9C2.82568 137.563 3.98802 139.587 5.42087 140.409L35.6308 157.854C35.6409 157.854 35.6409 157.864 35.6509 157.864C36.3723 158.264 37.3042 158.475 38.236 158.475V117.053L2.82568 83.1453Z" fill="#A5CBFA"/>
<path d="M38.2361 158.475C39.1579 158.475 40.0797 158.275 40.7911 157.884C40.8112 157.874 40.8212 157.874 40.8312 157.864C40.8312 157.854 40.8412 157.854 40.8412 157.854L91.1712 128.796C92.604 127.964 93.7664 125.95 93.7664 124.287V89.6984L38.2361 117.053V158.475Z" fill="#C8E2FF"/>
<path d="M4.09824 80.3095L55.871 50.4201C57.3139 49.5884 59.388 49.9091 60.5103 51.1315L93.0749 86.6521C94.1972 87.8745 93.9366 89.5378 92.5038 90.3694L40.731 120.259C39.2881 121.09 37.214 120.77 36.0918 119.547L3.52709 84.0268C2.40486 82.8044 2.65537 81.1411 4.09824 80.3095Z" fill="#DCEEFF"/>
<path d="M85.5802 88.636C85.5802 88.646 85.5702 88.646 85.5802 88.636L40.9515 114.407C40.9315 114.417 40.9114 114.427 40.8914 114.437C39.9395 114.948 38.6169 114.738 37.8754 113.956C37.8654 113.946 37.8654 113.946 37.8554 113.936L10.8718 84.4977L10.7516 84.3675L10.7615 84.3575C10.1503 83.5659 10.3407 82.5539 11.2325 82.0329C11.2425 82.0329 11.2425 82.0228 11.2526 82.0228L55.8712 56.2617C55.8912 56.2516 55.9112 56.2416 55.9313 56.2316C56.4122 55.9711 56.9833 55.901 57.5344 55.9911C58.0755 56.0813 58.5765 56.3318 58.9473 56.7126C58.9573 56.7226 58.9573 56.7226 58.9673 56.7326L85.9509 86.161C85.9609 86.1811 85.981 86.1911 85.991 86.2112C86.6824 87.0228 86.502 88.0949 85.5802 88.636Z" fill="#1E3779"/>
<path d="M10.7515 84.3675L37.8052 113.876C38.6268 114.778 39.9695 114.978 41.0316 114.367L85.8606 88.4856L57.3941 57.444L10.7515 84.3675Z" fill="#2D3192"/>
<path d="M22.9858 89.0468C26.2022 87.1831 28.2062 90.66 31.4326 88.7963C34.649 86.9326 32.645 83.4657 35.8714 81.602C39.0878 79.7483 41.0918 83.2152 44.3183 81.3515C47.5447 79.4878 45.5407 76.0209 48.7571 74.1572C51.9835 72.2935 53.9875 75.7704 57.2139 73.9067C60.4403 72.043 58.4363 68.5761 61.6627 66.7124" stroke="#FF931E" stroke-miterlimit="10"/>
<path d="M28.0759 95.4997C30.8314 93.9065 32.8354 97.3734 35.6009 95.7803C38.3564 94.1871 36.3624 90.7202 39.1179 89.117C41.8834 87.5239 43.8873 90.9908 46.6428 89.3976C49.3982 87.8044 47.3943 84.3376 50.1598 82.7344C52.9253 81.1412 54.9293 84.6081 57.6847 83.0149C60.4502 81.4218 58.4463 77.9449 61.2118 76.3517C63.9772 74.7585 65.9812 78.2254 68.7467 76.6323" stroke="#FF931E" stroke-miterlimit="10"/>
<path d="M33.166 101.963C37.0337 99.7281 39.0376 103.205 42.8953 100.971C46.763 98.7361 44.759 95.2692 48.6267 93.0348C52.4944 90.8004 54.4983 94.2773 58.356 92.0428C62.2237 89.8084 60.2197 86.3415 64.0874 84.1071C67.9551 81.8726 69.959 85.3496 73.8267 83.1151" stroke="#FF931E" stroke-miterlimit="10"/>
<path d="M57.5344 55.9911L57.3842 57.434L10.7615 84.3575C10.1503 83.5659 10.3407 82.5539 11.2325 82.0329C11.2425 82.0329 11.2425 82.0228 11.2526 82.0228L55.8712 56.2617C55.8912 56.2516 55.9112 56.2416 55.9313 56.2316C56.4122 55.9711 56.9833 55.901 57.5344 55.9911Z" fill="#031F60"/>
<path d="M34.3582 21.0718L42.2939 25.6509V34.8091L34.3582 30.23V21.0718Z" fill="#FF8500"/>
<path d="M42.2939 25.6509L50.2197 21.0718V30.23L42.2939 34.8091V25.6509Z" fill="#FF931E"/>
<path d="M50.2196 21.0718L42.2939 16.4827L34.3582 21.0718L42.2939 25.6509L50.2196 21.0718Z" fill="#FFB565"/>
<path d="M42.2939 21.0718L23.2461 5.50092" stroke="#2D3192" stroke-miterlimit="10" stroke-linecap="round"/>
<path d="M38.3261 27.9354L16.1221 51.2918" stroke="#2D3192" stroke-miterlimit="10" stroke-linecap="round"/>
<path d="M0 48.236L10.561 54.3382V66.5424L0 60.4403V48.236Z" fill="#FF8500"/>
<path d="M10.561 54.3382L21.132 48.236V60.4403C21.132 60.4403 10.561 66.7528 10.561 66.5424C10.561 66.322 10.561 54.3382 10.561 54.3382Z" fill="#FF931E"/>
<path d="M21.132 48.2358L10.561 42.1337L0 48.2358L10.561 54.338L21.132 48.2358Z" fill="#FFB565"/>
<path d="M13.7373 3.66718L20.0799 7.32443V14.659L13.7373 10.9917V3.66718Z" fill="#FF8500"/>
<path d="M20.0798 7.32445L26.4224 3.65717V10.9817C26.4224 10.9817 20.0798 14.7692 20.0798 14.649C20.0798 14.5288 20.0798 7.32445 20.0798 7.32445Z" fill="#FF931E"/>
<path d="M26.4325 3.66729L20.0799 0L13.7373 3.66729L20.0799 7.32454L26.4325 3.66729Z" fill="#FFB565"/>
<path d="M10.8015 47.9451L16.9036 9.15808" stroke="#2D3192" stroke-miterlimit="10" stroke-linecap="round"/>
<path d="M79.3577 152.433C78.6363 153.334 77.013 153.795 75.8908 153.545C75.0692 153.354 74.5281 153.214 73.9069 153.014C73.0953 152.753 71.8628 152.743 71.0111 152.693C69.9891 152.633 69.1775 152.713 68.1655 152.563C67.2938 152.433 66.402 152.182 65.5904 151.831C64.5082 151.37 62.6545 149.156 64.0072 148.324C64.1074 148.264 64.2277 148.244 64.3479 148.224C67.9851 147.673 72.6844 147.894 73.8367 146.491C73.8367 146.491 78.7264 146.25 78.7765 146.24C78.6262 146.25 79.5781 150.699 79.6583 151.06C79.6984 151.26 79.7485 151.461 79.7284 151.671C79.6884 151.962 79.5381 152.212 79.3577 152.433Z" fill="#2D2979"/>
<path d="M76.2917 124.006L78.3558 122.273C78.3558 122.273 79.6584 125.679 79.6283 126.892C79.5982 128.114 78.7566 146.26 78.7566 146.26C78.7566 146.26 75.9911 148.354 73.8368 146.491C73.8368 146.491 72.3639 125.028 72.0332 121.671L76.2917 124.006Z" fill="#6F89D1"/>
<path d="M68.436 157.984C67.6344 158.815 65.9711 159.126 64.889 158.775C64.0874 158.515 63.5664 158.314 62.9652 158.064C62.1836 157.733 60.9512 157.603 60.1095 157.473C59.0975 157.322 58.2859 157.322 57.2839 157.082C56.4322 156.871 55.5605 156.541 54.7889 156.12C53.7469 155.559 52.1136 153.194 53.5364 152.483C53.6467 152.433 53.7669 152.423 53.8872 152.413C57.5645 152.202 62.2137 152.843 63.4962 151.561C63.4962 151.561 68.3859 151.761 68.436 151.771C68.2857 151.761 68.8269 156.29 68.8669 156.651C68.897 156.851 68.917 157.062 68.8769 157.262C68.8068 157.543 68.6364 157.783 68.436 157.984Z" fill="#2D2979"/>
<path d="M69.2977 132.403C69.2677 133.625 68.426 151.771 68.426 151.771C68.426 151.771 65.6404 153.435 63.4861 151.561C63.4861 151.561 62.0333 130.529 61.7026 127.172" fill="#7FA8E6"/>
<path opacity="0.15" d="M65.881 162.923L89.1672 149.477C90.6101 148.645 92.9347 148.645 94.3776 149.477L117.664 162.923C119.107 163.755 119.107 165.098 117.664 165.929L94.3776 179.376C92.9447 180.208 90.6101 180.208 89.1672 179.376L65.881 165.929C64.4381 165.098 64.4381 163.755 65.881 162.923Z" fill="#6B99D1"/>
<path d="M65.881 134.988L89.1672 121.541C90.6101 120.709 92.9347 120.709 94.3776 121.541L117.664 134.988C119.107 135.819 119.107 137.162 117.664 137.994L94.3776 151.44C92.9447 152.272 90.6101 152.272 89.1672 151.44L65.881 137.994C64.4381 137.162 64.4381 135.819 65.881 134.988Z" fill="#DCEEFF"/>
<path d="M91.7624 121.922C92.564 121.922 93.3255 122.102 93.8666 122.413L117.153 135.86C117.584 136.11 117.734 136.351 117.734 136.491C117.734 136.631 117.584 136.882 117.153 137.122L93.8666 150.569C93.3255 150.879 92.564 151.06 91.7624 151.06C90.9608 151.06 90.1993 150.879 89.6583 150.569L66.372 137.122C65.9411 136.872 65.7909 136.621 65.7909 136.491C65.7909 136.351 65.9411 136.1 66.372 135.86L89.6583 122.413C90.1993 122.102 90.9708 121.922 91.7624 121.922ZM91.7624 120.92C90.8205 120.92 89.8787 121.13 89.1573 121.541L65.871 134.988C64.4281 135.82 64.4281 137.162 65.871 137.994L89.1573 151.441C89.8787 151.851 90.8205 152.062 91.7624 152.062C92.7043 152.062 93.6461 151.851 94.3676 151.441L117.654 137.994C119.097 137.162 119.097 135.82 117.654 134.988L94.3676 121.541C93.6562 121.13 92.7043 120.92 91.7624 120.92Z" fill="white"/>
<path d="M64.7988 159.988C64.8088 160.609 65.2197 161.1 65.881 161.491L89.1672 174.937C89.8386 175.328 90.7003 175.538 91.7724 175.558V152.052C90.7504 152.042 89.8887 151.831 89.1672 151.431L65.881 137.984C65.2998 137.653 64.7988 137.162 64.7988 136.481V159.988Z" fill="#A5CBFA"/>
<path d="M118.736 159.988C118.726 160.609 118.315 161.1 117.654 161.491L94.3676 174.937C93.6963 175.328 92.8346 175.538 91.7625 175.558V152.052C92.7845 152.042 93.6462 151.831 94.3676 151.431L117.654 137.984C118.235 137.653 118.736 137.162 118.736 136.481V159.988Z" fill="#C8E2FF"/>
<path d="M78.5061 117.002C80.9209 117.884 97.2533 124.006 97.2533 124.006C97.2533 124.006 96.6121 135.589 93.1251 133.715L76.3017 124.006L72.0433 121.671C71.6525 117.894 75.8508 116.03 78.5061 117.002Z" fill="#6F89D1"/>
<path d="M61.7027 127.172C61.3219 123.395 65.5203 121.531 68.1755 122.503C70.5903 123.385 86.9227 129.507 86.9227 129.507L103.125 128.134C103.516 134.196 99.5879 136.791 95.0689 138.785C90.55 140.769 86.2815 141.09 82.7946 139.216L65.9712 129.507L68.0252 127.773C68.0252 127.773 69.3278 131.17 69.2978 132.392" fill="#7FA8E6"/>
<path d="M85.4901 88.5856C85.8408 85.1387 88.1754 82.4133 91.7125 82.4333C95.4799 82.4534 98.5159 85.5195 98.4959 89.2869C98.4859 91.4913 97.4238 93.4152 95.8005 94.6576C95.8005 94.6576 95.7104 95.0985 95.5902 95.5193C95.5902 95.5193 95.9508 97.343 96.1212 97.6436C96.3316 98.0343 97.3637 97.6536 98.7364 97.4532C99.6783 97.3129 99.8887 99.0664 99.3075 100.71C98.7764 102.183 96.4619 103.736 94.3076 104.116C92.1533 104.497 88.6564 103.155 89.8989 102.203C91.1413 101.261 91.1513 100.9 90.961 100.249C90.7706 99.5974 90.3898 98.355 90.3898 98.355C89.5782 98.5153 88.8968 98.5954 88.5461 98.5554C87.1433 98.4251 86.452 98.1446 86.0011 96.5414C85.1795 93.5855 85.2897 90.289 85.4901 88.5856Z" fill="#FFA8A7"/>
<path d="M93.0751 100.389C93.0751 100.389 91.9228 100.359 90.991 100.349C90.981 100.309 90.971 100.279 90.961 100.239C90.7706 99.5876 90.3898 98.3451 90.3898 98.3451C89.5782 98.5054 88.8968 98.5856 88.5461 98.5455C87.9549 98.4954 87.494 98.4052 87.1133 98.2048C87.955 98.3551 89.3177 97.6537 89.6283 97.0125C89.9489 96.3712 89.9489 94.2269 89.9489 94.2269C89.9489 94.2269 90.0291 94.5876 90.2095 94.9584C90.3898 95.3291 90.8006 95.259 90.8006 95.259L92.1333 95.0987L96.0811 94.4073C95.9909 94.4874 95.9007 94.5676 95.8005 94.6477C95.8005 94.6477 95.7104 95.0886 95.5901 95.5095C95.5901 95.5095 95.9508 97.3331 96.1212 97.6337C96.2214 97.804 96.4819 97.8241 96.8626 97.774L96.3416 98.4553L93.0751 100.389Z" fill="#F28F8F"/>
<path d="M84.8386 82.0025C86.9929 82.6739 94.9888 79.5978 96.4317 84.3572C96.4317 84.3572 98.0148 84.9384 98.4958 87.263C98.9867 89.5876 98.9868 91.311 97.6642 93.6357C96.3516 95.9603 95.9207 97.0224 95.9207 97.0224C95.9207 97.0224 94.9688 97.8139 93.6562 98.0544C92.3436 98.2949 90.9307 97.7238 90.3596 96.1106C90.069 95.2789 89.9488 94.2368 89.9488 94.2368C90.2594 94.7278 91.1813 94.4573 91.6822 93.4553C92.1231 92.5735 92.2935 91.4312 91.7224 90.5695C91.0009 89.4673 89.6583 89.778 89.3977 90.6397C89.1773 91.3711 89.2875 92.5234 89.2875 92.5234C89.2875 92.5234 88.3757 92.6337 88.1753 91.6617C88.035 90.9704 88.035 90.1788 88.0651 89.5375C88.0951 88.9463 87.9148 88.3351 87.4839 87.9343C86.8727 87.3732 87.0931 86.4814 87.0931 86.4814C87.0931 86.4814 85.1994 86.3812 84.1974 84.5576C83.1854 82.7139 82.6844 81.3312 84.8386 82.0025Z" fill="#3A2C6D"/>
<path d="M96.8625 97.7339C97.0128 98.2349 96.592 99.0565 94.8085 99.9984C92.4037 101.281 90.9709 101.121 90.9709 101.121C90.9709 101.121 88.1152 102.664 86.8727 103.535C85.3096 104.628 84.6182 107.794 84.4078 113.124C84.2174 117.854 84.1673 125.349 84.2375 129.317C84.2776 131.14 85.3197 132.794 86.9629 133.575C88.0751 134.106 89.4679 134.527 91.0109 134.397C94.7484 134.086 101.612 130.679 103.135 128.124C103.095 122.714 102.634 119.417 102.824 116.181C103.155 110.469 104.408 105.95 102.834 101.361C101.462 97.3732 99.8786 97.1828 98.3455 97.3932C97.4738 97.5335 96.8625 97.7339 96.8625 97.7339Z" fill="#F5FBFB"/>
<path d="M95.9608 97.1426C96.582 97.0625 96.7524 97.2929 97.1732 97.6636C97.1732 97.6636 97.7143 99.1666 95.7003 100.489C93.6863 101.802 90.55 101.351 90.55 101.351L89.8186 101.752C89.8186 101.752 90.1593 99.6877 90.7605 99.5474C90.7605 99.5474 92.524 99.6376 94.3376 98.7558C96.1512 97.8941 95.9608 97.1426 95.9608 97.1426Z" fill="#E4F2F2"/>
<path d="M60.0896 102.714C60.4603 103.505 61.0315 104.096 61.4724 105.259C61.8531 106.281 62.0335 106.692 62.7248 107.433C63.4763 108.235 65.6506 109.487 68.8069 111.07C71.9531 112.653 74.4581 112.593 76.2918 111.892C80.3198 110.359 82.5342 106.792 85.1193 104.728C86.9229 103.275 88.7064 103.936 89.007 105.259C89.2475 106.291 88.3557 109.187 85.2496 112.183C82.8448 114.507 78.7366 117.062 75.2797 117.152C73.0754 117.213 70.37 116.571 68.5364 115.74C65.5304 114.387 63.3761 112.944 60.7008 111.271C59.9693 110.81 59.3181 110.66 57.8251 109.948C56.3321 109.247 54.779 108.064 53.9975 106.922C53.2159 105.78 53.1157 105.249 53.276 104.988C53.4764 104.668 53.8372 104.738 54.248 105.219C54.6688 105.7 55.27 106.561 56.4423 107.273C56.4423 107.273 55.4805 106.271 54.9594 105.609C54.4384 104.958 54.0275 104.247 53.8071 103.706C53.5366 103.044 54.1077 102.143 54.5385 102.614C54.9694 103.095 55.1698 103.575 55.9614 104.527C56.6728 105.399 57.3742 105.89 57.3742 105.89C57.3742 105.89 56.5726 104.808 56.0816 103.776C55.5806 102.744 55.5906 102.213 55.6207 101.872C55.6407 101.521 56.1318 101.121 56.5927 101.772C57.0035 102.363 57.2639 103.285 58.2259 104.297C58.9172 105.028 59.5185 105.449 59.5285 105.249C59.5485 105.048 59.1076 104.648 58.8571 103.796C58.6267 102.984 58.8772 102.052 59.3381 101.962C59.809 101.902 59.7189 101.922 60.0896 102.714Z" fill="#FFA8A7"/>
<path d="M88.5561 104.167C89.1473 104.728 89.4278 105.82 89.0471 107.072C88.6663 108.325 87.2635 110.379 86.0111 111.912C85.2295 112.874 83.1153 114.758 83.1153 114.758C83.1153 114.758 79.9891 112.623 79.1875 109.998C79.1875 109.998 83.1854 106.161 84.2475 105.169C85.3197 104.177 87.0531 102.724 88.5561 104.167Z" fill="#E4F2F2"/>
</svg>
