<svg width="233" height="150" viewBox="0 0 233 150" fill="none" xmlns="http://www.w3.org/2000/svg">
<path d="M203.26 61.5505L203.7 61.2296L204.473 60.9037L205.75 61.5314L206.868 62.322L207.139 62.6861L207.085 63.1078L204.42 64.6458L202.766 65.3645L202.036 65.4939L201.838 65.6951L201.315 67.444L200.29 67.7555L198.974 68.2873L198.055 69.0923L196.59 70.9896L192.865 73.7448L192.812 74.3052L193.136 74.7604L194.346 75.0767L195.942 75.92L196.807 76.5812L199.173 75.7284L199.758 75.9151L200.377 76.7969L201.03 79.2597L202.089 79.9304L203.477 80.4431L204.338 80.6108L205.484 81.2145L207.013 81.4397L208.038 81.2193L209.32 81.7368L209.528 81.5115L209.697 77.8413L210.771 78.4546L211.39 78.4451L211.932 77.9947L212.212 77.3861L212.396 76.1739L212.159 74.9618L212.638 74.406L213.01 74.2814L213.286 74.4298L213.45 74.7413L213.499 75.8385L214.273 76.3034L214.747 76.5717L215.196 77.5012L215.636 78.3876L215.917 80.4622L217.005 80.6059L218.282 81.0037L219.138 80.6156L219.801 80.8456L220.028 81.8278L220.023 82.743L220.12 83.4713L220.463 83.6773L221.576 83.2222L222.509 83.1599L223.37 83.5959L224.439 84.2571L225.992 85.9916L226.504 86.2406L228.845 86.3749L229.334 86.7294H230.137L231.007 86.418L232.937 86.9786L233 87.2947L232.676 87.7308L228.076 90.1265L227.738 90.8645L226.8 91.7987L225.774 92.3306L225.276 92.3498L223.027 91.4011L222.766 91.631L222.582 92.0144L222.591 92.4312L223.085 93.4277L222.858 94.0555L222.427 94.5107L221.02 94.1129L220.758 93.8591L220.73 93.5811H220.188L219.351 93.8591L217.74 95.5791L217.179 96.48L216.971 97.0213L216.255 97.3281L215.477 97.443L214.471 98.2528L213.378 98.8804L213.029 98.4205L212.817 97.9079L212.526 97.7448L211.854 97.8647L211.042 97.8839L210.185 97.3041L209.078 96.7195L208.111 96.5135L205.257 96.7866L203.845 97.0741L203.4 97.3567L202.607 97.4335L199.264 98.0228L198.582 97.7928L198.079 96.8632L197.639 95.8571L196.774 95.493L195.801 95.2102L195.439 94.8078L195.415 94.319L195.516 93.8399L195.593 93.5908L197.847 91.6646L199.879 89.9301L200.067 89.7912L200.251 89.4606L200.594 88.8617V88.5502L199.076 87.8602L199.018 87.5439L199.322 87.2181V86.7821L198.249 85.5076L196.391 83.5191L195.855 83.3131L195.458 83.4425L194.733 85.3639L194.37 85.8525L192.251 87.1127L190.481 87.9799L187.328 89.5181L186.505 90.0019L185.935 89.9158L185.364 89.6138L183.594 88.0567L182.452 87.5247L181.683 88.0519L181.035 88.8185L181.098 90.3948L180.368 91.2237L179.637 91.5975L180.968 95.8091L180.837 96.3506L179.821 96.4991L180.566 98.0802L179.937 98.2623L178.336 97.8934L176.184 97.649L172.121 98.3486L171.822 98.6217L171.71 98.9715L171.947 99.2878L173.916 99.3212L175.841 99.1632L176.373 99.4555L176.455 99.9729L176.232 100.299L175.589 100.356L174.182 100.668L174.022 100.998L173.974 101.315L174.452 102.23L174.985 102.814L175.052 103.159L174.83 103.451L174.559 103.567L174.085 103.135L173.814 103.221L173.683 103.614L173.553 104.074L173.243 104.41L172.585 104.232L171.932 104.362L171.546 106.029L171.217 107.917L170.143 109.172L169.548 109.628L168.673 109.762L167.372 109.608L166.583 109.422L164.3 109.144L162.013 108.631L159.44 108.152L157.045 109.259L156.354 109.934L155.914 110.567L155.464 110.859L154.424 114.73L154.53 115.171L155.106 115.516L158.042 116.316L158.472 116.647L158.729 117.026L158.854 118.76L159.096 119L160.102 119.215L161.558 119.201L162.699 119.028L163.846 119.186L164.649 119.56L165.04 120.15L165.258 120.787L163.894 124.586L164.005 125.966L164.426 127.94L165.2 129.488L166.656 130.997L167.763 131.965L167.996 132.42L168.053 133.125L167.875 134.025L167.236 135.453L166.453 136.699L165.606 137.226L164.431 138.807L163.391 140.748L161.394 143.287L160.721 144.701L160.499 148.778L159.972 150L159.889 149.535L159.169 149.07L157.911 149.152L157.084 148.932L156.688 148.409L155.662 148.558L154.008 149.368L152.32 148.936L150.603 147.259L147.329 146.646L143.184 147.029L143.029 145.17L143.038 142.799L143.227 139.641L144.64 137.159L144.596 136.685L144.32 136.23L143.89 135.822L141.38 135.137L140.644 134.778L139.672 133.992L138.444 133.168L137.375 132.598L135.696 131.845L134.149 131.429L133.239 131.745L132.403 132.147L131.619 132.157L130.836 131.936L127.934 130.053L123.552 126.795L120.079 124.514L117.898 123.422L117.38 123.072L116.157 122.047L113.148 119.278L111.151 119.685L108.297 117.883L105.734 116.12L105.153 115.641L102.237 112.373L99.3251 110.25L96.1523 107.931L94.1015 106.475L90.624 104.002L88.9215 102.508L88.3459 101.957L87.785 100.898L86.8755 95.7085L85.8307 93.3225L84.3411 92.0239L83.0741 89.5181L82.0197 85.7951L81.1491 83.3706L80.4574 82.2495L79.0644 81.0085L76.9507 79.6478L74.9483 79.0009L74.2277 79.0248L73.8699 79.1926L73.4637 79.4226L72.6705 80.4382L71.5 80.5437L70.6389 80.5198L69.8363 80.1556L67.3016 79.8346L66.4022 79.48L64.8786 79.5327L61.6042 80.0598L60.8063 79.9639L57.3479 77.6928L55.8439 76.792L55.5439 76.2937L55.5584 75.4216L56.0662 74.1855L56.5016 73.3087L56.3082 72.3983L55.6502 71.4017V70.3381L56.1001 69.7438L57.0191 69.9307L57.3479 69.5569L57.2319 68.9917L56.7336 68.5891L56.0712 67.6835L54.1122 66.8403L53.8317 66.4953L53.9333 66.1024L54.2719 65.6807L54.3395 64.7895L54.3734 63.6396L54.6347 63.0407L54.707 62.5712L54.4219 62.1926L53.7591 61.7517L52.6999 60.6833L51.399 60.5684L47.1669 60.6067L45.8562 60.1755L44.8017 59.5765L43.7473 57.2958L43.2153 56.7543L42.717 56.5291L41.532 56.4525L40.1053 56.2321L39.375 55.8439L37.3824 53.7548L35.4671 51.8863L34.6981 53.6496L33.9533 53.9993L32.2653 53.8364L30.998 53.5393L30.2774 53.937L29.5326 54.6317L29.6728 55.0918L30.2434 55.5756L31.3897 56.4717L33.1456 58.6613L33.9435 59.8687L34.0595 60.2904L33.9096 60.6067L33.6725 60.7408L33.3245 60.7359L32.8554 60.7313L32.5844 60.3718L32.4926 59.7489L31.9072 58.8051L31.3026 58.2588L30.6402 57.9187L29.7115 57.6647L28.4878 57.2143L27.854 57.1952L27.24 57.7175L26.7272 58.4217L26.4226 59.9598L25.5083 61.8477L24.9474 62.5903L23.206 63.0407L19.0755 63.1939L17.8425 63.7834L17.0008 64.4925L15.4386 66.7875L14.3502 67.5495L13.407 68.5987L13.6925 71.9623L14.1471 75.8768L14.9403 76.9597L15.4433 77.2855L15.5109 77.6689L15.1871 78.009L14.7712 78.4354L14.1424 79.2165L13.4362 79.1877L12.0142 78.9914L10.8293 78.7805L6.84373 78.5553L3.61301 78.3731L0.0242068 78.1719L0.0194835 74.0705V69.9547V65.8245L0.014465 61.6799V57.5161V53.3381L0.00974175 49.1456V44.9387V40.7175V36.4771L0.00472327 32.2223V27.9484V23.6553L0 19.3477V15.026V10.6849L1.6927 10.1483L3.83058 9.46307L5.88136 8.8115L8.32388 8.03039L11.0758 7.14881L13.4265 6.39664L16.2318 5.50059L18.3694 4.81539L20.3768 4.17333L22.9451 3.40669L26.9401 2.21849L29.1698 1.55244L31.4236 0.881721L33.571 0.239658L35.0074 0L36.5505 0.915206L38.4271 2.17052L40.3037 3.42584L42.1803 4.68131L44.0569 5.93663L45.9335 7.18712L47.8102 8.43776L49.6868 9.68825L51.5634 10.9341L53.44 12.1799L55.3166 13.4256L57.1932 14.6665L59.0699 15.9075L60.9465 17.1485L62.8231 18.3847L64.6997 19.6208L66.5763 20.857L68.3174 22.007L69.1009 22.8598L69.5313 24.738L70.3972 26.2282L71.9015 27.8381L73.4395 29.4865L75.3548 31.6568L76.68 33.1615L78.0294 34.6946L80.2638 37.2197L81.6569 38.7913L82.7645 38.844L85.0136 38.4704L88.0218 37.972L90.3967 37.5743L93.2696 37.0951L96.007 36.64L98.1644 36.2759L101.395 36.549L104.582 36.822L106.87 37.0185L109.11 37.2102L111.765 37.4354L113.25 37.56L114.952 37.7037L115.668 37.3252L117.134 36.549L118.517 35.8207L119.953 35.0589L121.225 34.6755L122.551 35.8878L123.658 37.2868L124.824 38.7578L126.173 40.1712L127.484 41.0098L129.24 42.1454L130.25 44.0811L131.6 46.6636L132.49 48.3598L133.404 50.099L134.734 49.4139L136.151 48.6808L137.438 48.0147L137.283 50.1661L137.148 52.1163L136.93 55.063L136.756 57.4683L136.292 60.3335L136.258 62.5136L136.229 64.4254L136.209 65.9394L138.7 66.0065L140.543 66.0545L142.85 66.1168L143.072 68.0142L143.382 70.6782L143.851 73.0835L144.248 75.1007L144.838 77.7024L145.157 79.092L145.708 80.7258L146.255 81.1187L147.13 81.3774L150.177 81.1809L152.702 81.018L154.695 80.8934L156.813 80.7593L159.623 80.5773L160.576 80.9942L161.398 80.7019L162.346 80.4096L163.101 81.5931L163.483 82.192L164.02 82.8148L164.745 83.3946L164.441 84.6069L163.991 86.3749L163.865 87.2804L164.74 88.2579L165.393 88.828L167.178 89.9876L168.856 90.6345L169.95 90.826L170.994 90.577L171.376 89.9205L171.28 89.0149L170.777 88.0614L170.815 86.9258L171.149 86.0969L172.218 84.5877L173.229 83.1599L174.776 81.7032L176.619 80.261L177.383 79.2069L177.679 77.3718L178.883 76.332L180.184 75.7091L181.799 75.1678L182.244 74.2478L184.474 72.6858L185.809 71.9143L187.497 71.464L189.828 70.4482L191.671 69.2503L193.436 66.9935L194.839 65.513L196.019 64.6026L197.01 64.5692L197.707 65.307L198.307 65.3693L198.698 65.0339L199.366 64.0852L200.082 62.9784L200.754 62.5184L202.055 62.2836L203.26 61.5505ZM199.264 85.0572L199.216 84.626L198.795 83.9025L198.166 83.4952L197.867 83.6725L198.123 84.2618L198.853 85.1004L199.264 85.0572ZM206.781 103.423L206.099 103.581L204.851 103.557L204.14 103.375L204.575 101.957L204.59 101.674L204.536 101.635L204.179 101.444L203.637 100.864L203.448 100.006L203.661 99.211L204.058 98.8804L204.309 98.938L205.073 100.15L205.755 100.505L207.085 100.706L206.413 101.904L206.911 103.183L206.781 103.423ZM214.563 102.416L214.2 103.169L213.562 102.987L213.059 102.488L213.223 102.096L213.973 101.88L214.364 101.664L214.693 101.626L214.563 102.416Z" fill="#F0F2F5"/>
</svg>
