<svg width="145" height="150" viewBox="0 0 145 150" fill="none" xmlns="http://www.w3.org/2000/svg">
<path d="M145 73.6067L144.88 75.1032L143.489 82.0547L141.325 88.0075L139.899 89.4704L133.768 91.0362L131.158 93.6511L128.908 102.116L127.465 108.758L125.353 109.877L116.354 119.46L110.463 123.09L106.358 126.222L102.46 130.282L97.5655 134.24L92.3103 140.916L88.5666 147.849L86.0073 150L84.0839 148.039L75.1363 141.208L65.6908 136.614L45.5802 128.975L38.8821 126.824L39.1226 124.106L41.424 119.133L37.6798 113.3L39.1226 109.051H37.6798L34.7945 111.597L28.6635 110.857L24.5933 107.209L21.2788 105.868L19.836 104.043L17.7065 94.4256L16.1782 90.0553L13.1038 87.3538L6.93868 86.6828L4.39675 80.8155L0.979036 76.2563L1.5456 73.4518L4.32809 73.6067L6.50891 75.654L10.0299 76.4973L14.4093 71.5589L18.3249 68.8747L19.2348 66.5349L18.7542 65.2443L16.3842 67.2401L9.89256 66.724L8.27778 68.5134L5.37579 69.0816L3.12579 63.3172L3.22904 59.9105L4.15618 56.1772L10.6997 55.523L11.2662 54.319L6.71541 53.5103L1.0304 49.1569L0 46.1461L2.81656 45.1311L5.5131 45.5785L7.84853 46.2322L10.3905 45.1479L12.7605 43.4965L14.1861 41.3799L16.1095 35.7191L22.2579 33.8267L25.8815 30.3512L29.3333 24.9654L30.9135 21.1801L32.3386 19.2877L33.2317 17.6532L33.9015 15.8637L35.4471 14.2118L37.0618 10.2028L38.1609 6.55562L41.6986 4.80028L48.946 3.25182L55.4722 5.90137L66.0514 3.59627L66.6179 0.172226L76.304 0.120243L87.7762 0.0514578L97.3249 0L100.605 0.912063L101.79 3.45817L104.933 7.45035L108.213 10.2201L112.284 16.2937L117.024 23.3655L122.142 29.7489L125.422 33.2071L125.8 34.4116L125.559 35.7884L123.928 39.0229L122.537 42.533L122.674 43.8578L123.653 44.5115L129.011 45.5953L129.492 49.5014V54.9039L132.085 59.9452L134.559 63.6444L134.438 64.9691L128.393 71.2838L126.04 77.5637L124.838 79.3358L124.357 80.7467L125.559 81.4178L127.225 81.0051L129.561 81.5212L131.794 81.7103L134.747 79.4566L139.676 73.6923L141.325 72.9871L145 73.6067ZM36.8899 124.415L36.1855 125.671L32.9743 122.557L16.3669 117.894L21.0556 115.417L32.5791 114.677L36.0141 116.122L37.5424 117.326L38.109 119.615L36.8899 124.415Z" fill="#F0F2F5"/>
</svg>
