<svg width="215" height="130" viewBox="0 0 215 130" fill="none" xmlns="http://www.w3.org/2000/svg">
<path d="M191.408 7.0499L194.424 6.66642L194.548 6.72287L195.259 6.94835L195.768 9.15936L195.846 9.306L196.58 10.7611L197.258 12.6898L198.319 14.1449L200.657 14.7428L203.707 16.5363L205.683 19.9201L208.653 21.319L208.867 21.3528L209.455 21.1948L211.6 21.0709L212.018 21.7476L213.723 23.4058L214.39 24.8495L214.051 26.3838L214.356 28.1208L215 28.7297L214.22 29.8915L208.675 35.7121L206.496 37.246L205.062 37.562L202.791 36.9527L200.454 37.4154L198.365 38.656L196.434 39.0508L194.977 40.5286L193.091 43.687L190.764 46.3489L188.427 48.0071L187.207 49.4846L187.072 54.5833L185.773 56.0494L184.034 57.5272L183.074 58.8243L180.42 66.5623L178.409 69.0325L176.49 70.9275L176.173 72.6535L176.207 74.6387L174.039 78.5867L171.193 82.67L170.652 84.3506L171.284 86.6067L168.551 89.2011L166.981 90.4531L165.671 91.0397L164.858 92.6638L163.525 96.6232L163.875 98.3829L163.909 100.007L161.605 100.955L160.928 102.737L160.341 104.948L159.38 105.94L156.794 107.779L150.358 106.978L147.929 107.598L147.206 108.907L147.06 109.956L146.247 110.948L144.79 112.178L143.288 112.731L139.934 111.208L132.74 112.765L131.498 113.87L130.493 113.069L128.945 112.358L121.752 111.456L118.906 112.167L115.1 111.896L111.588 111.106L108.957 111.749L106.641 114.84L105.49 115.878L104.586 116.543L102.61 117.513L100.95 118.675L98.7478 119.51L96.771 119.397L94.9079 118.066L94.2413 118.371L93.6541 119.6L92.6381 120.638L89.8485 121.924L89.1372 121.901H88.9787L86.8446 122.849L83.321 123.379L81.5482 123.007L78.341 127.271L77.3581 128.049L74.2977 129.346L71.8018 130L69.656 129.481L68.8096 129.436L59.3003 129.222L54.3312 128.308L51.1468 126.639L49.0238 124.778L47.985 122.713L45.5229 121.473L41.6264 121.033L38.5998 118.98L36.4203 115.325L33.4956 112.426L29.7804 110.283L26.8441 107.26L24.6756 103.346L20.7681 99.8152L15.1215 96.6796L13.4162 95.9915L13.0777 94.9763L10.322 91.0734L9.13643 89.6297L9.24878 87.6896L8.69598 86.5839L7.69031 85.817L7.14854 83.0084L6.83216 80.9103L6.04155 79.5568L0 79.2748L5.05933 74.2666L7.57796 72.8676L10.4916 73.1048L11.429 72.6535L11.6771 71.9203L12.1741 70.2848L12.4222 68.7392L12.6711 67.2731L12.3547 66.4608L10.943 66.2015L10.2655 62.6033L10.9885 61.2384L11.7109 60.2907L10.819 55.9028L11.0899 54.4026L13.3714 54.1658L15.2572 53.2295L16.804 52.1692L17.2334 50.8043L18.4982 48.0295L17.3347 44.6229L10.7514 42.4009L10.4123 41.5548L11.937 40.5847L13.5747 39.2088L14.5232 38.1259L15.788 37.9792L17.5719 38.5321L20.757 41.0023L21.9653 41.3631L23.1399 40.6412L24.393 40.4835L27.9056 40.5737L30.864 39.9985L30.1981 37.3703L30.2091 35.4526L29.7011 33.9187L30.0175 32.2378L31.2141 30.918L31.576 27.9627L33.4164 25.9662L34.2862 25.6729L37.5383 26.045L38.3061 26.5641L38.8031 26.677L43.9872 31.5386L48.888 35.193L52.8975 37.0657L58.7923 37.2123L65.0599 37.3813L75.5404 36.7386L83.4003 36.2646L83.9193 35.351L85.1056 33.1741L84.1571 31.3015L84.213 29.1022L85.5343 26.2371L89.4191 23.8457L100.543 22.7965L106.935 21.0144L107.906 18.5893L110.018 16.1865L111.961 15.7015L114.614 16.8072L117.811 18.9163L120.622 20.0444L122.26 19.3225L127.907 15.758L134.411 12.2612L138.883 2.78622L139.369 1.26334L144.214 0.180378L151.295 0.37246L154.931 1.61308L157.664 2.26746L161.752 2.04165L167.647 0L169.827 0.0564542L171.521 1.50017L173.373 2.75249L174.627 4.27503L175.575 6.42959L176.083 7.23027L176.908 8.33595L178.398 9.84748L179.833 10.2423L190.753 7.61409L191.408 7.0499Z" fill="#F0F2F5"/>
</svg>
