<svg width="162" height="132" viewBox="0 0 162 132" fill="none" xmlns="http://www.w3.org/2000/svg">
<path d="M148.14 2.35519L150.272 5.35739L152.563 8.58367L154.347 11.0896L155.653 17.576L155.793 18.8071L155.894 19.3618L155.996 19.8727L156.165 20.7534L157.19 21.133L159.124 21.3082L160.531 21.9456L161.372 23.0015L161.454 23.1768L161.898 23.9894L162 24.5782L161.879 26.2715L161.594 28.4467L161.111 29.8481L161.381 31.7555L161.294 32.5681L161.081 33.1229L160.216 33.7603L159.041 34.3832L156.233 36.2225L155.43 36.495L154.255 36.5436L153.235 37.0011L152.027 37.9937L149.416 41.6822L147.188 45.3852L146.414 48.4459L145.544 51.3655L143.581 53.2292L143.305 54.2754L143.223 54.8836L143.156 56.2899L142.919 58.6158L142.614 59.7351L142.3 60.0659L140.183 60.7763L138.964 61.628L138.234 63.3164L137.968 65.1412L137.543 67.2189L137.301 69.0437L136.973 69.9877L136.276 70.9804L135.198 72.046L134.265 72.6494L131.834 73.0435L130.581 75.4571L129.523 77.3402L129.494 78.0944L128.474 81.9969L126.699 84.936L126.583 85.9725L126.579 86.824L124.36 89.4079L123.77 90.1719L123.204 91.1694L123.765 92.1329L124.389 93.0087L124.48 93.3056L123.475 94.1279L121.715 95.5586L120.666 96.415L120.434 96.8821L120.279 99.028L119.975 99.6071L119.274 100.395L118.244 101.262L117.2 101.933L116.015 102.4L114.879 102.575L114.241 102.303L113.879 101.651L113.241 99.0232L112.917 98.4588L112.177 97.9478L110.717 96.5075L109.238 95.0525L107.454 94.0307L107.072 94.1036L106.777 94.381L106.269 95.8456L105.771 96.381L104.834 96.5658L103.204 96.5755L102.015 96.3712L101.744 96.0792L101.503 95.4466L101.174 94.9405L99.7526 95.9672L97.5191 97.5828L96.794 97.8456L96.2381 98.1716L95.5032 99.6753L94.6089 101.286L93.4438 102.128L92.3076 102.838L91.6549 103.456L90.7219 104.186L88.8946 106.011L86.4725 108.424L85.6168 109.67L84.7709 111.534L84.2778 113.597L83.7411 115.855L82.9531 119.485L81.7929 121.538L80.7776 123.168L80.0235 124.448L79.6271 125.504L79.4628 125.47L79.0663 125.922L77.9351 125.626L77.4274 124.706L76.7265 124.555L75.5179 123.207L75.2616 123.431L76.5379 126.857L76.0642 128.195L72.4722 128.224L69.383 128.672L67.2607 128.633L66.1971 128.146L65.7234 126.861L65.5397 126.993L65.4334 127.679L64.7613 128.219L62.3779 128.321L61.3241 127.446L60.4733 126.462L59.5596 126.029L59.6998 126.438L60.7489 127.397L60.6232 128.774L58.7039 130.37L57.4807 130.462L56.7314 129.776L56.3398 128.657L56.1417 127.003L55.6389 125.922H55.3682L55.6196 126.91L55.7017 127.718L55.7113 129.397L56.6252 130.701L55.2231 131.105L54.6526 131.119L53.5408 131.149L53.3281 130.662L53.1153 129.582L52.8204 129.299L52.4773 131.129L51.7375 131.256L51.2251 131.241L49.0205 131.64L48.5275 131.562L48.426 131.221L48.687 130.715L48.629 129.893L47.8652 130.526L47.7444 131.796L47.3093 132L45.9991 131.82L44.5633 131.168L43.6882 130.501L42.2282 129.572L39.3664 126.969L38.9022 125.796L38.0852 124.36L37.476 122.901L36.5963 120.409L36.867 120.229L37.5293 120.443L37.8531 120.069L36.6639 119.796L36.4173 119.504L36.3352 118.628L36.3884 117.558L37.3552 117.183L38.1916 116.998L38.6122 116.351L38.8539 115.699L36.6349 116.687L34.5513 115.568L34.1017 114.891L34.329 114.371L35.3249 114.293L36.7462 114.332L37.597 113.826L37.0749 113.645L36.1564 113.665L35.8179 113.329L35.847 112.517L35.5472 112.697L35.1508 113.417L33.7488 113.947L32.927 113.417L32.8448 112.239L32.6659 111.709L31.9747 111.295L29.5187 108.176L26.4343 105.573L23.6933 103.777L19.5503 102.921L10.8774 102.955L10.389 102.707L10.9209 102.298L11.6798 102.021L14.4694 100.566L14.0003 100.371L11.0997 101.281L10.1087 101.369L8.8228 103.116L1.1844 103.407L0.290051 103.5L0.309378 102.702L0.681605 100.405L0.928134 99.5L1.21346 98.8187L0.918544 98.0012L0.628493 96.8918L0.488336 95.1498L0.845958 94.6097L0.966935 93.9527L0.87989 92.9212V89.4761L1.08777 89.1014L1.33429 88.8142L1.34875 88.3568L0.884759 87.4664L0.454403 86.4494L0.468862 84.9847L0.29492 83.5686L0 82.9215L0.222333 80.5079L0.348032 77.4521L0.23207 76.0946L0.512384 75.136L0.662278 72.7759L0.638083 70.4645L1.2086 66.8101L2.88133 66.6351L4.87303 66.3284L5.76251 64.893L6.27505 63.0732L6.11069 61.2726L6.49738 60.6791L7.29509 59.7009L8.73576 58.3044L8.67778 56.7716L9.07405 56.2997L9.75581 55.9445L10.7323 55.7644L11.8248 55.0005L12.4291 53.6622L13.0238 51.5212L12.086 50.0274L12.1004 49.6964L12.4582 48.8936L13.0334 48.0907L13.488 47.8327L14.5515 48.0372L14.7352 47.9691L14.8996 47.716L15.586 45.3463L15.5232 44.7088L14.5322 43.1225L14.3677 41.9936L14.2227 40.3149L13.981 38.8259L13.6958 38.2614L13.1688 37.7893L12.9319 37.4828L10.8822 34.4561L10.916 33.0206L11.7766 31.1862L12.3373 30.2957L13.1205 29.7994L13.2752 29.376L13.0431 28.8603L12.6467 28.4709L12.5548 27.6438L12.6661 27.0939L12.9465 26.4905L12.8353 25.2253L12.8595 23.2838L12.99 20.4518L13.0287 18.7194L14.6917 17.4349L17.1137 15.3084L18.3465 13.0847L19.0088 11.401L19.821 5.79546L20.4107 5.4548L21.1069 5.19196L23.5385 3.14832L25.4096 2.38919L26.8405 1.95127L28.9918 1.58136L30.3261 1.73224L32.7578 1.82475L34.6722 1.62042L36.2965 0.506083L37.0314 0.194682L38.0659 0L42.765 1.50355L47.459 2.92438L48.31 2.79311L49.0254 2.99254L50.2002 3.76132L51.9309 5.41099L52.9606 6.47662L53.4586 7.09942L55.871 10.676L56.7702 11.5762L57.6741 12.0676L58.5927 12.2428L59.2985 12.1747L59.9656 11.7709L60.8746 10.9729L62.2571 10.6079L63.3835 10.6809L69.2284 7.46443L69.794 7.42063L71.4957 7.67367L73.3859 8.11649L78.2831 11.3426L82.2811 13.4544L85.09 14.1601L88.4015 14.6613L94.0239 14.8121L98.2733 10.2915L99.8444 9.30374L101.74 8.41334L102.349 8.26246L105.689 7.5764L112.24 6.99726L118.384 7.2503L119.593 7.43043L122.203 8.02888L126.226 9.50332L127.961 10.9193L130.688 11.1528L132.641 10.8707L133.279 9.46916L135.242 7.62496L136.668 6.87564L138.181 5.91708L140.579 4.72493L142.551 4.18959L144.316 2.82222L145.713 2.38919L148.14 2.35519ZM62.5858 130.083L61.2757 130.496L60.4153 130.394L61.5948 128.594L62.1943 128.983L62.9629 129.144L62.5858 130.083Z" fill="#F0F2F5"/>
</svg>
