<svg width="130" height="180" viewBox="0 0 130 180" fill="none" xmlns="http://www.w3.org/2000/svg">
<g clip-path="url(#clip0)">
<path opacity="0.15" d="M109.021 137.219L59.7776 165.625C59.1412 165.994 58.3116 166.171 57.482 166.171C56.6523 166.171 55.8227 165.994 55.1863 165.625L5.95463 137.225C5.31821 136.861 5 136.384 5 135.901C5 135.554 5.16479 135.202 5.50573 134.906C5.63074 134.793 5.77847 134.679 5.95463 134.577L55.1977 106.177C56.4591 105.444 58.5161 105.444 59.789 106.177L109.021 134.571C110.282 135.304 110.282 136.497 109.021 137.219Z" fill="#6B99D1"/>
<path d="M109.021 133.168L59.7777 161.568C59.1413 161.937 58.3116 162.113 57.482 162.113C56.6524 162.113 55.8285 161.937 55.1977 161.573L5.96037 133.173C5.32395 132.804 5.00574 132.327 5.00574 131.849C5.00574 131.366 5.32395 130.889 5.96037 130.525L12.6371 126.678L55.2034 102.119C56.4649 101.386 58.5219 101.386 59.7947 102.119L109.026 130.52C110.282 131.247 110.282 132.44 109.021 133.168Z" fill="#DCEEFF"/>
<path d="M57.482 152.544V162.113C56.6524 162.113 55.8285 161.937 55.1977 161.573L5.96037 133.173C5.32395 132.804 5.00574 132.327 5.00574 131.849V123.559C5.00574 123.212 5.17052 122.86 5.51146 122.564L12.6371 126.678L57.482 152.544Z" fill="#A5CBFA"/>
<path d="M57.4819 152.544V162.113C58.3116 162.113 59.1355 161.937 59.7662 161.574L109.021 133.168C109.657 132.798 109.975 132.321 109.975 131.844V123.553C109.975 123.207 109.81 122.854 109.475 122.559L102.35 126.673L57.4819 152.544Z" fill="#C8E2FF"/>
<path d="M109.021 124.884L59.7776 153.29C59.1412 153.659 58.3116 153.835 57.482 153.835C56.6523 153.835 55.8227 153.659 55.1863 153.29L5.95463 124.89C5.31821 124.526 5 124.049 5 123.566C5 123.219 5.16479 122.867 5.50573 122.571C5.63074 122.458 5.77847 122.344 5.95463 122.242L55.1977 93.8413C56.4591 93.1083 58.5161 93.1083 59.789 93.8413L109.021 122.236C110.282 122.963 110.282 124.157 109.021 124.884Z" fill="#DCEEFF"/>
<path opacity="0.15" d="M24.6353 172.927L19.3897 169.931C15.8332 167.899 10.915 167.413 8.41501 168.841C5.915 170.269 6.76322 173.081 10.3272 175.113L15.5728 178.109C19.1293 180.141 24.0475 180.634 26.5475 179.199C29.0475 177.763 28.1919 174.959 24.6353 172.927Z" fill="#6B99D1"/>
<path opacity="0.15" d="M96.167 168.519L101.162 165.772C104.548 163.909 109.231 163.463 111.611 164.773C113.998 166.082 113.184 168.661 109.79 170.524L104.796 173.271C101.409 175.134 96.7267 175.58 94.3463 174.27C91.966 172.954 92.7736 170.382 96.167 168.519Z" fill="#6B99D1"/>
<path d="M57.4876 93.8573C58.2434 93.8573 58.9821 94.0278 59.5049 94.3289L108.731 122.723C109.151 122.968 109.396 123.275 109.396 123.559C109.396 123.843 109.151 124.144 108.731 124.388L59.4878 152.794C58.9707 153.096 58.2547 153.266 57.4763 153.266C56.6978 153.266 55.9875 153.101 55.4647 152.794L6.23306 124.388C5.80121 124.144 5.56823 123.849 5.56823 123.559C5.56823 123.371 5.68187 123.167 5.89212 122.979C5.9944 122.883 6.10805 122.797 6.23874 122.729L55.4818 94.3289C55.9989 94.0278 56.7319 93.8573 57.4876 93.8573ZM57.4876 93.2891C56.658 93.2891 55.8284 93.4709 55.1977 93.8402L5.95463 122.24C5.77847 122.337 5.63074 122.451 5.50573 122.57C5.17047 122.871 5 123.224 5 123.564C5 124.053 5.31821 124.525 5.95463 124.888L55.1863 153.289C55.8227 153.658 56.6523 153.834 57.482 153.834C58.3116 153.834 59.1412 153.658 59.7776 153.289L109.021 124.883C110.282 124.161 110.282 122.968 109.021 122.235L59.789 93.8402C59.1526 93.4709 58.3229 93.2891 57.4876 93.2891Z" fill="white"/>
<path d="M55.9647 99.602L15.9554 122.678C15.1088 123.167 15.1088 123.956 15.9554 124.445L55.959 147.515C56.8057 148.004 58.1751 148.004 59.0161 147.515L99.0253 124.439C99.872 123.951 99.872 123.161 99.0253 122.672L59.0275 99.602C58.1751 99.119 56.8057 99.119 55.9647 99.602Z" fill="#2D3192"/>
<path d="M99.0197 122.678L59.0218 99.6077C58.6013 99.3633 58.0445 99.244 57.4933 99.244V100.795L98.7583 124.599L99.0197 124.445C99.8664 123.956 99.8664 123.167 99.0197 122.678Z" fill="#1E3779"/>
<path d="M57.4932 99.2385C56.942 99.2385 56.3852 99.3578 55.9647 99.6021L15.9554 122.678C15.1088 123.167 15.1088 123.957 15.9554 124.445L16.2225 124.599L57.4989 100.79L57.4932 99.2385Z" fill="#031F60"/>
<path d="M57.8172 112.973L69.6592 106.154C69.841 106.046 69.841 105.875 69.6592 105.767L57.8115 98.9259C57.6297 98.818 57.3286 98.818 57.1467 98.9259L45.3218 105.762C45.14 105.87 45.14 106.04 45.3218 106.148L57.1467 112.967C57.3342 113.081 57.6354 113.081 57.8172 112.973Z" stroke="white" stroke-miterlimit="10" stroke-linecap="round"/>
<path d="M57.4932 108.507V135.901C58.1978 135.901 58.8967 135.748 59.4365 135.435L84.7797 120.803C85.8537 120.184 86.723 118.678 86.723 117.439V108.507H57.4932Z" fill="#FF931E"/>
<path d="M28.2634 108.507V117.439C28.2634 118.678 29.1328 120.184 30.2068 120.803L55.55 135.435C56.0841 135.742 56.7887 135.901 57.4933 135.901V108.507H28.2634Z" fill="#FF8500"/>
<path d="M55.5443 124.923L29.0704 109.626C27.9964 109.007 27.9964 108.001 29.0704 107.381L55.55 92.0903C56.624 91.471 58.3628 91.471 59.4367 92.0903L85.9164 107.381C86.9903 108.001 86.9903 109.007 85.9164 109.626L59.4253 124.923C58.3514 125.542 56.6126 125.542 55.5443 124.923Z" fill="#FFAA4F"/>
<path d="M34.5027 107.762L56.2035 95.2269C56.9194 94.8121 58.0786 94.8121 58.7946 95.2269L80.5011 107.762C81.2171 108.177 81.2171 108.842 80.5011 109.257L58.7833 121.792C58.0673 122.207 56.9081 122.207 56.1921 121.792L34.5027 109.262C33.7867 108.847 33.7867 108.177 34.5027 107.762Z" stroke="white" stroke-miterlimit="10" stroke-linecap="round"/>
<path d="M58.1297 98.3636L75.2051 108.131C75.5631 108.336 75.5631 108.671 75.2051 108.882L58.1297 118.661C57.7717 118.865 57.1921 118.865 56.8341 118.661L39.9008 108.882C39.5428 108.677 39.5428 108.342 39.9008 108.131L56.8341 98.3579C57.1921 98.159 57.7717 98.159 58.1297 98.3636Z" stroke="white" stroke-miterlimit="10" stroke-linecap="round"/>
<path d="M34.9856 118.144C34.9856 117.558 34.5764 116.842 34.065 116.553C33.8093 116.405 33.5763 116.394 33.4059 116.496L29.6555 118.661C28.8941 119.098 28.269 120.178 28.269 121.059V126.213C28.269 126.406 28.3941 126.599 28.6498 126.741C29.1555 127.031 29.9794 127.037 30.4851 126.741C30.7409 126.593 30.8659 126.4 30.8659 126.213V121.15C30.8659 121.036 30.9284 120.928 31.025 120.871L34.7071 118.746C34.7071 118.746 34.7128 118.746 34.7128 118.74L34.7242 118.735C34.8833 118.632 34.9856 118.428 34.9856 118.144Z" fill="url(#paint0_linear)"/>
<path d="M40.6054 121.405C40.6054 120.82 40.1963 120.104 39.6849 119.814C39.4292 119.666 39.1962 119.655 39.0257 119.757L35.2754 121.922C34.514 122.36 33.8889 123.439 33.8889 124.32V129.474C33.8889 129.667 34.0139 129.855 34.2696 130.003C34.7753 130.298 35.5993 130.298 36.105 130.003C36.3607 129.855 36.4857 129.662 36.4857 129.474V124.411C36.4857 124.298 36.5482 124.19 36.6448 124.133L40.327 122.008C40.327 122.008 40.3327 122.008 40.3327 122.002L40.344 121.996C40.5088 121.894 40.6054 121.689 40.6054 121.405Z" fill="url(#paint1_linear)"/>
<path d="M46.2309 124.667C46.2309 124.082 45.8218 123.366 45.3104 123.076C45.0547 122.928 44.8217 122.917 44.6512 123.019L40.9009 125.184C40.1395 125.621 39.5144 126.701 39.5144 127.582V132.73C39.5144 132.923 39.6394 133.116 39.8951 133.259C40.4008 133.554 41.2248 133.554 41.7305 133.259C41.9862 133.111 42.1112 132.918 42.1112 132.73V127.667C42.1112 127.553 42.1737 127.445 42.2703 127.389L45.9525 125.263C45.9525 125.263 45.9582 125.263 45.9582 125.258L45.9695 125.252C46.1286 125.15 46.2309 124.951 46.2309 124.667Z" fill="url(#paint2_linear)"/>
<path d="M51.8507 127.928C51.8507 127.343 51.4415 126.627 50.9301 126.337C50.6744 126.19 50.4415 126.178 50.271 126.281L46.5206 128.446C45.7592 128.883 45.1342 129.963 45.1342 130.844V135.997C45.1342 136.191 45.2592 136.384 45.5149 136.526C46.0206 136.821 46.8445 136.821 47.3503 136.526C47.606 136.378 47.731 136.185 47.731 135.997V130.934C47.731 130.821 47.7935 130.713 47.8901 130.656L51.5722 128.531C51.5722 128.531 51.5779 128.531 51.5779 128.525L51.5893 128.519C51.7541 128.411 51.8507 128.213 51.8507 127.928Z" fill="url(#paint3_linear)"/>
<path d="M80.0067 118.144C80.0067 117.558 80.4159 116.842 80.9273 116.553C81.183 116.405 81.4159 116.393 81.5864 116.496L85.3367 118.661C86.0982 119.098 86.7232 120.178 86.7232 121.059V126.213C86.7232 126.406 86.5982 126.599 86.3425 126.741C85.8368 127.031 85.0128 127.036 84.5071 126.741C84.2514 126.593 84.1264 126.4 84.1264 126.213V121.15C84.1264 121.036 84.0639 120.928 83.9673 120.871L80.2852 118.746C80.2852 118.746 80.2795 118.746 80.2795 118.74L80.2681 118.735C80.1033 118.632 80.0067 118.428 80.0067 118.144Z" fill="url(#paint4_linear)"/>
<path d="M74.3813 121.405C74.3813 120.82 74.7905 120.104 75.3019 119.814C75.5576 119.666 75.7906 119.655 75.961 119.757L79.7114 121.922C80.4728 122.36 81.0979 123.439 81.0979 124.32V129.474C81.0979 129.667 80.9729 129.855 80.7171 130.003C80.2114 130.298 79.3875 130.298 78.8818 130.003C78.6261 129.855 78.501 129.662 78.501 129.474V124.411C78.501 124.298 78.4385 124.19 78.3419 124.133L74.6598 122.008C74.6598 122.008 74.6541 122.008 74.6541 122.002L74.6427 121.996C74.4779 121.894 74.3813 121.689 74.3813 121.405Z" fill="url(#paint5_linear)"/>
<path d="M68.7557 124.667C68.7557 124.082 69.1649 123.366 69.6763 123.076C69.932 122.928 70.165 122.917 70.3354 123.019L74.0858 125.184C74.8472 125.621 75.4722 126.701 75.4722 127.582V132.73C75.4722 132.923 75.3472 133.116 75.0915 133.259C74.5858 133.554 73.7619 133.554 73.2561 133.259C73.0004 133.111 72.8754 132.918 72.8754 132.73V127.667C72.8754 127.553 72.8129 127.445 72.7163 127.389L69.0342 125.263C69.0342 125.263 69.0285 125.263 69.0285 125.258L69.0171 125.252C68.858 125.15 68.7557 124.951 68.7557 124.667Z" fill="url(#paint6_linear)"/>
<path d="M63.1359 127.928C63.1359 127.343 63.545 126.627 64.0564 126.337C64.3121 126.19 64.5451 126.178 64.7156 126.281L68.4659 128.446C69.2273 128.883 69.8524 129.963 69.8524 130.844V135.997C69.8524 136.191 69.7274 136.384 69.4717 136.526C68.9659 136.821 68.142 136.821 67.6363 136.526C67.3806 136.378 67.2556 136.185 67.2556 135.997V130.934C67.2556 130.821 67.193 130.713 67.0964 130.656L63.4143 128.531C63.4143 128.531 63.4086 128.531 63.4086 128.525L63.3973 128.519C63.2325 128.411 63.1359 128.213 63.1359 127.928Z" fill="url(#paint7_linear)"/>
<g clip-path="url(#clip1)">
<path d="M80.2752 39.085C85.2015 51.3895 79.2137 65.3546 66.9171 70.2765C59.3344 73.309 51.1203 72.2038 44.7897 68.0279C40.8378 65.4309 37.6207 61.6415 35.7319 56.9211C30.8056 44.6166 36.7879 30.6461 49.09 25.7243C53.8148 23.8296 58.7901 23.5519 63.4006 24.619C70.7873 26.334 77.2432 31.5063 80.2752 39.085Z" fill="#B5DEFF"/>
<mask id="mask0" mask-type="alpha" maskUnits="userSpaceOnUse" x="34" y="24" width="48" height="48">
<path d="M80.2752 39.085C85.2015 51.3895 79.2137 65.3546 66.9171 70.2765C59.3344 73.309 51.1203 72.2038 44.7897 68.0279C40.8378 65.4309 37.6207 61.6415 35.7319 56.9211C30.8056 44.6166 36.7879 30.6461 49.09 25.7243C53.8148 23.8296 58.7901 23.5519 63.4006 24.619C70.7873 26.334 77.2432 31.5063 80.2752 39.085Z" fill="#B5DEFF"/>
</mask>
<g mask="url(#mask0)">
<path d="M34.1313 27.5261C33.0318 27.5424 31.6274 27.9344 32.6453 28.5551C33.6632 29.1812 34.3164 29.2356 34.3219 30.0468C34.3273 30.8581 33.7993 31.7074 34.0606 32.2791C34.3219 32.8508 34.7519 33.5204 35.1656 33.3299C35.5847 33.1339 36.7278 31.8599 37.3756 31.9197C38.0288 31.9796 40.2497 32.0776 40.5709 31.3535C40.892 30.6294 41.2186 30.6784 41.7521 29.8726C42.2855 29.0668 42.2529 27.9888 41.6051 27.9834C40.9574 27.9779 40.8703 28.2556 39.787 28.1739C38.7038 28.0977 38.1976 27.3791 37.1415 27.5642C36.091 27.7547 34.937 27.5097 34.1313 27.5261Z" fill="#3A52AA"/>
<path d="M60.9239 46.179L60.9293 46.2443C60.5483 46.4077 60.1782 46.6908 59.9768 47.1862C59.4324 48.5256 59.329 47.9376 58.0498 48.8468C56.7706 49.756 57.2551 50.4693 57.3258 51.3839C57.3966 52.2986 55.9105 53.3276 55.1757 53.6543C54.4463 53.981 54.1197 56.0553 54.3592 57.068C54.5987 58.0752 53.3902 58.489 52.6499 59.4091C51.9096 60.3292 51.4905 61.87 51.006 62.6105C50.527 63.3509 49.6397 63.7919 48.7688 63.6449C47.8924 63.4925 47.0813 62.0442 46.6078 60.7865C46.1342 59.5289 45.9709 58.1351 46.2431 56.7631C46.5152 55.3965 46.4227 55.5653 46.0961 53.4311C45.7695 51.2968 44.2671 50.6544 43.4397 50.4529C42.6123 50.246 41.2515 50.7252 40.5112 50.3005C39.7817 49.8704 39.4606 49.2497 38.9816 47.2352C38.5025 45.2208 39.4932 44.7689 40.2771 43.68C41.0555 42.5911 42.5851 41.4532 43.9623 41.0775C45.334 40.7019 46.2812 41.0612 47.1194 41.4859C47.9632 41.9051 48.3551 42.847 48.9593 42.9123C49.5581 42.9722 50.0752 42.6673 50.674 42.7817C51.2728 42.896 51.6756 43.19 52.2634 43.092C52.8513 42.994 52.4758 42.3189 52.3941 41.9486C52.3125 41.5784 51.779 41.671 51.0768 41.6655C50.3746 41.6655 50.195 41.4695 49.95 41.0013C49.6996 40.5331 49.2968 40.9414 48.9593 40.7509C48.6218 40.5603 48.6871 41.4205 48.6599 41.7526C48.6327 42.0848 48.3714 41.4968 48.3714 41.4968C48.3714 41.4968 48.0829 41.9486 47.9577 41.7418C47.838 41.5349 48.121 41.0285 48.0829 40.5167C48.0448 40.005 47.2991 40.1247 46.8364 39.7273C46.3737 39.3299 45.7259 39.2754 45.0891 39.4877C44.4576 39.7001 44.3379 39.5476 44.0603 40.103C43.7772 40.6638 42.4055 41.0394 41.9646 40.9686C41.5291 40.8924 41.8339 40.005 42.2095 39.221C42.5796 38.437 43.3526 38.6983 43.8371 37.9088C44.3161 37.1194 43.6629 37.0051 43.2165 36.8798C42.7756 36.7492 42.6341 36.3299 43.0968 35.3227C43.5595 34.3155 44.1746 34.5932 44.425 35.0614C44.6754 35.5296 45.2306 35.7583 45.8294 35.7637C46.4227 35.7746 46.2812 35.3554 46.2703 34.4897C46.2594 33.624 46.6568 33.1667 47.4406 32.8346C48.2245 32.5025 49.5363 31.9744 50.0371 31.5007C50.5379 31.027 51.4252 31.3374 51.8988 31.8437C52.3723 32.3446 53.4066 32.5351 54.5061 32.7203C54.8164 32.7747 55.0668 32.6495 55.2791 32.4644C58.4526 36.1829 60.5211 40.9196 60.9239 46.179Z" fill="#2D3192"/>
<path d="M56.4279 57.9882C55.8454 57.8902 55.8944 58.0807 55.5514 58.5435C55.2084 59.0009 54.7075 59.5235 54.8 60.0026C54.8926 60.4818 54.9362 61.0698 55.339 60.7159C55.7419 60.362 55.6058 59.9373 56.1775 59.6814C56.7546 59.4201 57.3045 58.1406 56.4279 57.9882Z" fill="#3A52AA"/>
<path d="M83.4445 27.8094C82.198 28.4736 79.5797 29.4809 78.3658 29.1379C77.7616 28.9691 77.0431 28.7295 76.281 28.5825C71.6541 31.9472 68.3119 36.918 67 42.6021C67.3048 43.2282 67.675 43.8053 68.0832 44.279C69.0358 45.3951 70.0156 45.5366 71.2186 45.7708C72.4271 46.0049 72.046 46.68 72.6394 47.3878C73.2327 48.0955 73.4831 48.5093 74.1581 48.8904C74.833 49.2716 73.9186 49.9848 73.6518 50.7633C73.3851 51.5365 73.3089 51.9775 73.8641 53.5509C74.4139 55.1298 76.0251 56.4093 76.5042 57.0191C76.9832 57.6288 76.1721 58.3421 76.379 59.6215C76.5858 60.901 76.5205 64.2983 77.7453 66.2093C78.97 68.1204 79.7049 67.8971 79.6069 66.6068C79.5089 65.3164 79.0898 64.1023 79.8355 63.1332C80.5813 62.1641 82.0946 62.4254 82.6062 60.656C83.1179 58.892 83.45 58.9736 84.2665 58.3693C85.083 57.765 84.7183 57.2532 85.4803 55.8866C86.2424 54.52 86.4656 53.2351 85.3388 52.6689C84.2175 52.1081 83.4663 52.1626 82.5028 50.8341C81.5393 49.5057 80.0369 48.2153 78.638 47.4585C77.2445 46.7018 75.029 47.6273 74.1417 47.366C73.2599 47.1101 72.6992 45.4278 72.7537 44.7744C72.8136 44.1211 72.1549 43.9577 71.518 44.1156C70.8811 44.2735 70.5273 43.8652 70.3531 43.0158C70.1789 42.1665 71.5017 41.0939 72.574 41.0068C73.6464 40.9252 74.2234 41.4206 74.4357 42.809C74.648 44.1973 75.5679 44.8833 76.5586 45.1283C77.5493 45.3788 76.9288 44.3443 76.2266 43.642C75.5244 42.9396 75.4754 42.2972 76.0034 40.7455C76.5314 39.1938 77.8378 39.3082 78.8067 37.8817C79.7757 36.4498 79.9662 37.5278 80.946 37.6694C81.9258 37.8109 81.7788 37.2828 82.1435 36.3899C82.5082 35.5025 83.7548 36.2647 84.7781 35.5406C85.8015 34.8165 83.6622 33.684 83.8038 32.6985C83.9453 31.7185 84.9197 31.7512 84.3753 30.2812C83.831 28.8112 84.5822 28.7513 84.9687 28.2068C85.3769 27.6787 84.691 27.1452 83.4445 27.8094ZM81.9966 31.4028C81.6754 32.1323 81.3923 31.9908 80.8643 32.7857C80.3309 33.586 79.5035 34.0216 78.9646 34.0923C78.4311 34.1577 77.5439 33.2049 77.5003 32.6169C77.4568 32.0289 78.3059 31.8547 79.2694 31.7294C80.2329 31.5988 81.0549 31.185 81.9258 30.499C82.6171 29.9491 82.3177 30.6786 81.9966 31.4028Z" fill="#2D3192"/>
<path opacity="0.4" d="M64.2491 26.7368C48.9694 22.3268 46.1171 32.7421 54.2114 39.3081C62.3112 45.8742 76.1919 48.0356 78.059 43.7073C79.9315 39.3789 75.6094 30.0144 64.2491 26.7368Z" fill="white"/>
<path opacity="0.15" d="M51.495 60.0243C39.623 50.2787 39.9877 31.3591 50.4009 25.245C49.96 25.392 49.5245 25.5499 49.0836 25.7241C36.7815 30.6514 30.7992 44.6219 35.7255 56.921C37.6144 61.6414 40.8314 65.4307 44.7833 68.0277C51.114 72.2036 59.3335 73.3089 66.9107 70.2763C73.1271 67.7882 77.7268 62.9916 80.1219 57.264C76.7742 61.9245 63.3616 69.7645 51.495 60.0243Z" fill="#344593"/>
</g>
</g>
<g clip-path="url(#clip2)">
<path d="M80.2752 39.085C85.2015 51.3895 79.2137 65.3546 66.9171 70.2765C59.3344 73.309 51.1203 72.2038 44.7897 68.0279C40.8378 65.4309 37.6207 61.6415 35.7319 56.9211C30.8056 44.6166 36.7879 30.6461 49.09 25.7243C53.8148 23.8296 58.7901 23.5519 63.4006 24.619C70.7873 26.334 77.2432 31.5063 80.2752 39.085Z" fill="#B5DEFF"/>
<mask id="mask1" mask-type="alpha" maskUnits="userSpaceOnUse" x="34" y="24" width="48" height="48">
<path d="M80.2752 39.085C85.2015 51.3895 79.2137 65.3546 66.9171 70.2765C59.3344 73.309 51.1203 72.2038 44.7897 68.0279C40.8378 65.4309 37.6207 61.6415 35.7319 56.9211C30.8056 44.6166 36.7879 30.6461 49.09 25.7243C53.8148 23.8296 58.7901 23.5519 63.4006 24.619C70.7873 26.334 77.2432 31.5063 80.2752 39.085Z" fill="#B5DEFF"/>
</mask>
<g mask="url(#mask1)">
<path d="M50.9239 46.179L50.9293 46.2443C50.5483 46.4077 50.1782 46.6908 49.9768 47.1862C49.4324 48.5256 49.329 47.9376 48.0498 48.8468C46.7706 49.756 47.2551 50.4693 47.3258 51.3839C47.3966 52.2986 45.9105 53.3276 45.1757 53.6543C44.4463 53.981 44.1197 56.0553 44.3592 57.068C44.5987 58.0752 43.3902 58.489 42.6499 59.4091C41.9096 60.3292 41.4905 61.87 41.006 62.6105C40.527 63.3509 39.6397 63.7919 38.7688 63.6449C37.8924 63.4925 37.0813 62.0442 36.6078 60.7865C36.1342 59.5289 35.9709 58.1351 36.2431 56.7631C36.5152 55.3965 36.4227 55.5653 36.0961 53.4311C35.7695 51.2968 34.2671 50.6544 33.4397 50.4529C32.6123 50.246 31.2515 50.7252 30.5112 50.3005C29.7817 49.8704 29.4606 49.2497 28.9816 47.2352C28.5025 45.2208 29.4932 44.7689 30.2771 43.68C31.0555 42.5911 32.5851 41.4532 33.9623 41.0775C35.334 40.7019 36.2812 41.0612 37.1195 41.4859C37.9632 41.9051 38.3551 42.847 38.9593 42.9123C39.5581 42.9722 40.0752 42.6673 40.674 42.7817C41.2728 42.896 41.6756 43.19 42.2634 43.092C42.8513 42.994 42.4758 42.3189 42.3941 41.9486C42.3125 41.5784 41.779 41.671 41.0768 41.6655C40.3746 41.6655 40.195 41.4695 39.95 41.0013C39.6996 40.5331 39.2968 40.9414 38.9593 40.7509C38.6218 40.5603 38.6871 41.4205 38.6599 41.7526C38.6327 42.0848 38.3714 41.4968 38.3714 41.4968C38.3714 41.4968 38.0829 41.9486 37.9577 41.7418C37.838 41.5349 38.121 41.0285 38.0829 40.5167C38.0448 40.005 37.2991 40.1247 36.8364 39.7273C36.3737 39.3299 35.7259 39.2754 35.0891 39.4877C34.4576 39.7001 34.3379 39.5476 34.0603 40.103C33.7772 40.6638 32.4055 41.0394 31.9646 40.9686C31.5291 40.8924 31.8339 40.005 32.2095 39.221C32.5796 38.437 33.3526 38.6983 33.8371 37.9088C34.3161 37.1194 33.6629 37.0051 33.2165 36.8798C32.7756 36.7492 32.6341 36.3299 33.0968 35.3227C33.5595 34.3155 34.1746 34.5932 34.425 35.0614C34.6754 35.5296 35.2306 35.7583 35.8294 35.7637C36.4227 35.7746 36.2812 35.3554 36.2703 34.4897C36.2594 33.624 36.6568 33.1667 37.4406 32.8346C38.2244 32.5025 39.5363 31.9744 40.0371 31.5007C40.5379 31.027 41.4252 31.3374 41.8988 31.8437C42.3723 32.3446 43.4066 32.5351 44.5061 32.7203C44.8164 32.7747 45.0668 32.6495 45.2791 32.4644C48.4526 36.1829 50.5211 40.9196 50.9239 46.179Z" fill="#2D3192"/>
<path d="M46.4279 57.9882C45.8454 57.8902 45.8944 58.0807 45.5514 58.5435C45.2084 59.0009 44.7075 59.5235 44.8 60.0026C44.8926 60.4818 44.9362 61.0698 45.339 60.7159C45.7419 60.362 45.6058 59.9373 46.1775 59.6814C46.7546 59.4201 47.3045 58.1406 46.4279 57.9882Z" fill="#3A52AA"/>
<path d="M77.5268 27.5261C76.4273 27.5424 75.0229 27.9344 76.0408 28.5551C77.0587 29.1812 77.7119 29.2356 77.7174 30.0468C77.7228 30.8581 77.1948 31.7074 77.4561 32.2791C77.7174 32.8508 78.1474 33.5204 78.5611 33.3299C78.9802 33.1339 80.1234 31.8599 80.7711 31.9197C81.4243 31.9796 83.6452 32.0776 83.9664 31.3535C84.2876 30.6294 84.6142 30.6784 85.1476 29.8726C85.6811 29.0668 85.6484 27.9888 85.0006 27.9834C84.3529 27.9779 84.2658 28.2556 83.1825 28.1739C82.0993 28.0977 81.5931 27.3791 80.537 27.5642C79.4865 27.7547 78.3325 27.5097 77.5268 27.5261Z" fill="#3A52AA"/>
<path d="M73.4445 27.8094C72.198 28.4736 69.5797 29.4809 68.3658 29.1379C67.7616 28.9691 67.0431 28.7295 66.281 28.5825C61.6541 31.9472 58.3119 36.918 57 42.6021C57.3048 43.2282 57.675 43.8053 58.0832 44.279C59.0358 45.3951 60.0156 45.5366 61.2186 45.7708C62.4271 46.0049 62.046 46.68 62.6394 47.3878C63.2327 48.0955 63.4831 48.5093 64.1581 48.8904C64.833 49.2716 63.9186 49.9848 63.6518 50.7633C63.3851 51.5365 63.3089 51.9775 63.8641 53.5509C64.4139 55.1298 66.0251 56.4093 66.5042 57.0191C66.9832 57.6288 66.1721 58.3421 66.379 59.6215C66.5858 60.901 66.5205 64.2983 67.7453 66.2093C68.97 68.1204 69.7049 67.8971 69.6069 66.6068C69.5089 65.3164 69.0898 64.1023 69.8355 63.1332C70.5813 62.1641 72.0946 62.4254 72.6062 60.656C73.1179 58.892 73.45 58.9736 74.2665 58.3693C75.083 57.765 74.7183 57.2532 75.4803 55.8866C76.2424 54.52 76.4656 53.2351 75.3388 52.6689C74.2175 52.1081 73.4663 52.1626 72.5028 50.8341C71.5393 49.5057 70.0369 48.2153 68.638 47.4585C67.2445 46.7018 65.029 47.6273 64.1417 47.366C63.2599 47.1101 62.6992 45.4278 62.7537 44.7744C62.8136 44.1211 62.1549 43.9577 61.518 44.1156C60.8811 44.2735 60.5273 43.8652 60.3531 43.0158C60.1789 42.1665 61.5017 41.0939 62.574 41.0068C63.6464 40.9252 64.2234 41.4206 64.4357 42.809C64.648 44.1973 65.5679 44.8833 66.5586 45.1283C67.5493 45.3788 66.9288 44.3443 66.2266 43.642C65.5244 42.9396 65.4754 42.2972 66.0034 40.7455C66.5314 39.1938 67.8378 39.3082 68.8067 37.8817C69.7757 36.4498 69.9662 37.5278 70.946 37.6694C71.9258 37.8109 71.7788 37.2828 72.1435 36.3899C72.5082 35.5025 73.7548 36.2647 74.7781 35.5406C75.8015 34.8165 73.6622 33.684 73.8038 32.6985C73.9453 31.7185 74.9197 31.7512 74.3753 30.2812C73.831 28.8112 74.5822 28.7513 74.9687 28.2068C75.3769 27.6787 74.691 27.1452 73.4445 27.8094ZM71.9966 31.4028C71.6754 32.1323 71.3923 31.9908 70.8643 32.7857C70.3309 33.586 69.5035 34.0216 68.9646 34.0923C68.4311 34.1577 67.5439 33.2049 67.5003 32.6169C67.4568 32.0289 68.3059 31.8547 69.2694 31.7294C70.2329 31.5988 71.0549 31.185 71.9258 30.499C72.6171 29.9491 72.3177 30.6786 71.9966 31.4028Z" fill="#2D3192"/>
<path d="M104.319 46.179L104.325 46.2443C103.944 46.4077 103.574 46.6908 103.372 47.1862C102.828 48.5256 102.724 47.9376 101.445 48.8468C100.166 49.756 100.651 50.4693 100.721 51.3839C100.792 52.2986 99.306 53.3276 98.5712 53.6543C97.8418 53.981 97.5152 56.0553 97.7547 57.068C97.9942 58.0752 96.7858 58.489 96.0454 59.4091C95.3051 60.3292 94.886 61.87 94.4015 62.6105C93.9225 63.3509 93.0352 63.7919 92.1643 63.6449C91.2879 63.4925 90.4768 62.0442 90.0033 60.7865C89.5297 59.5289 89.3664 58.1351 89.6386 56.7631C89.9107 55.3965 89.8182 55.5653 89.4916 53.4311C89.165 51.2968 87.6626 50.6544 86.8352 50.4529C86.0078 50.246 84.647 50.7252 83.9067 50.3005C83.1772 49.8704 82.8561 49.2497 82.3771 47.2352C81.898 45.2208 82.8887 44.7689 83.6726 43.68C84.451 42.5911 85.9806 41.4532 87.3578 41.0775C88.7295 40.7019 89.6767 41.0612 90.515 41.4859C91.3587 41.9051 91.7506 42.847 92.3548 42.9123C92.9536 42.9722 93.4707 42.6673 94.0695 42.7817C94.6683 42.896 95.0711 43.19 95.659 43.092C96.2468 42.994 95.8713 42.3189 95.7896 41.9486C95.708 41.5784 95.1745 41.671 94.4723 41.6655C93.7701 41.6655 93.5905 41.4695 93.3455 41.0013C93.0951 40.5331 92.6923 40.9414 92.3548 40.7509C92.0173 40.5603 92.0826 41.4205 92.0554 41.7526C92.0282 42.0848 91.7669 41.4968 91.7669 41.4968C91.7669 41.4968 91.4784 41.9486 91.3532 41.7418C91.2335 41.5349 91.5165 41.0285 91.4784 40.5167C91.4403 40.005 90.6946 40.1247 90.2319 39.7273C89.7692 39.3299 89.1214 39.2754 88.4846 39.4877C87.8531 39.7001 87.7334 39.5476 87.4558 40.103C87.1727 40.6638 85.801 41.0394 85.3601 40.9686C84.9246 40.8924 85.2294 40.005 85.605 39.221C85.9752 38.437 86.7481 38.6983 87.2326 37.9088C87.7116 37.1194 87.0584 37.0051 86.612 36.8798C86.1711 36.7492 86.0296 36.3299 86.4923 35.3227C86.955 34.3155 87.5701 34.5932 87.8205 35.0614C88.0709 35.5296 88.6261 35.7583 89.2249 35.7637C89.8182 35.7746 89.6767 35.3554 89.6658 34.4897C89.6549 33.624 90.0523 33.1667 90.8361 32.8346C91.62 32.5025 92.9318 31.9744 93.4326 31.5007C93.9334 31.027 94.8207 31.3374 95.2943 31.8437C95.7678 32.3446 96.8021 32.5351 97.9017 32.7203C98.2119 32.7747 98.4623 32.6495 98.6746 32.4644C101.848 36.1829 103.917 40.9196 104.319 46.179Z" fill="#2D3192"/>
<path opacity="0.4" d="M64.2491 26.7368C48.9694 22.3268 46.1171 32.7421 54.2114 39.3081C62.3112 45.8742 76.1919 48.0356 78.059 43.7073C79.9315 39.3789 75.6094 30.0144 64.2491 26.7368Z" fill="white"/>
<path opacity="0.15" d="M51.495 60.0243C39.623 50.2787 39.9877 31.3591 50.4009 25.245C49.96 25.392 49.5245 25.5499 49.0836 25.7241C36.7815 30.6514 30.7992 44.6219 35.7255 56.921C37.6144 61.6414 40.8314 65.4307 44.7833 68.0277C51.114 72.2036 59.3335 73.3089 66.9107 70.2763C73.1271 67.7882 77.7268 62.9916 80.1219 57.264C76.7742 61.9245 63.3616 69.7645 51.495 60.0243Z" fill="#344593"/>
</g>
<g clip-path="url(#clip3)">
<path d="M80.2752 39.085C85.2015 51.3895 79.2137 65.3546 66.9171 70.2765C59.3344 73.309 51.1203 72.2038 44.7897 68.0279C40.8378 65.4309 37.6207 61.6415 35.7319 56.9211C30.8056 44.6166 36.7879 30.6461 49.09 25.7243C53.8148 23.8296 58.7901 23.5519 63.4006 24.619C70.7873 26.334 77.2432 31.5063 80.2752 39.085Z" fill="#B5DEFF"/>
<mask id="mask2" mask-type="alpha" maskUnits="userSpaceOnUse" x="34" y="24" width="48" height="48">
<path d="M80.2752 39.085C85.2015 51.3895 79.2137 65.3546 66.9171 70.2765C59.3344 73.309 51.1203 72.2038 44.7897 68.0279C40.8378 65.4309 37.6207 61.6415 35.7319 56.9211C30.8056 44.6166 36.7879 30.6461 49.09 25.7243C53.8148 23.8296 58.7901 23.5519 63.4006 24.619C70.7873 26.334 77.2432 31.5063 80.2752 39.085Z" fill="#B5DEFF"/>
</mask>
<g mask="url(#mask2)">
<path d="M34.3194 46.179L34.3249 46.2443C33.9438 46.4077 33.5737 46.6908 33.3723 47.1862C32.8279 48.5256 32.7245 47.9376 31.4453 48.8468C30.1661 49.756 30.6506 50.4693 30.7213 51.3839C30.7921 52.2986 29.306 53.3276 28.5712 53.6543C27.8418 53.981 27.5152 56.0553 27.7547 57.068C27.9942 58.0752 26.7858 58.489 26.0455 59.4091C25.3052 60.3292 24.886 61.87 24.4015 62.6105C23.9225 63.3509 23.0352 63.7919 22.1643 63.6449C21.2879 63.4925 20.4768 62.0442 20.0033 60.7865C19.5297 59.5289 19.3664 58.1351 19.6386 56.7631C19.9107 55.3965 19.8182 55.5653 19.4916 53.4311C19.165 51.2968 17.6626 50.6544 16.8352 50.4529C16.0078 50.246 14.647 50.7252 13.9067 50.3005C13.1772 49.8704 12.8561 49.2497 12.3771 47.2352C11.898 45.2208 12.8887 44.7689 13.6726 43.68C14.451 42.5911 15.9806 41.4532 17.3578 41.0775C18.7295 40.7019 19.6767 41.0612 20.515 41.4859C21.3587 41.9051 21.7506 42.847 22.3548 42.9123C22.9536 42.9722 23.4707 42.6673 24.0695 42.7817C24.6683 42.896 25.0711 43.19 25.659 43.092C26.2468 42.994 25.8713 42.3189 25.7896 41.9486C25.708 41.5784 25.1745 41.671 24.4723 41.6655C23.7701 41.6655 23.5905 41.4695 23.3455 41.0013C23.0951 40.5331 22.6923 40.9414 22.3548 40.7509C22.0173 40.5603 22.0826 41.4205 22.0554 41.7526C22.0282 42.0848 21.7669 41.4968 21.7669 41.4968C21.7669 41.4968 21.4784 41.9486 21.3532 41.7418C21.2335 41.5349 21.5165 41.0285 21.4784 40.5167C21.4403 40.005 20.6946 40.1247 20.2319 39.7273C19.7692 39.3299 19.1214 39.2754 18.4846 39.4877C17.8531 39.7001 17.7334 39.5476 17.4558 40.103C17.1727 40.6638 15.801 41.0394 15.3601 40.9686C14.9246 40.8924 15.2294 40.005 15.605 39.221C15.9752 38.437 16.7481 38.6983 17.2326 37.9088C17.7116 37.1194 17.0584 37.0051 16.612 36.8798C16.1711 36.7492 16.0296 36.3299 16.4923 35.3227C16.955 34.3155 17.5701 34.5932 17.8205 35.0614C18.0709 35.5296 18.6261 35.7583 19.2249 35.7637C19.8182 35.7746 19.6767 35.3554 19.6658 34.4897C19.6549 33.624 20.0523 33.1667 20.8361 32.8346C21.62 32.5025 22.9318 31.9744 23.4326 31.5007C23.9334 31.027 24.8207 31.3374 25.2943 31.8437C25.7678 32.3446 26.8021 32.5351 27.9017 32.7203C28.2119 32.7747 28.4623 32.6495 28.6746 32.4644C31.8481 36.1829 33.9166 40.9196 34.3194 46.179Z" fill="#2D3192"/>
<path d="M60.5268 27.5261C59.4273 27.5424 58.0229 27.9344 59.0408 28.5551C60.0587 29.1812 60.7119 29.2356 60.7174 30.0468C60.7228 30.8581 60.1948 31.7074 60.4561 32.2791C60.7174 32.8508 61.1474 33.5204 61.5611 33.3299C61.9802 33.1339 63.1234 31.8599 63.7711 31.9197C64.4243 31.9796 66.6452 32.0776 66.9664 31.3535C67.2876 30.6294 67.6142 30.6784 68.1476 29.8726C68.6811 29.0668 68.6484 27.9888 68.0006 27.9834C67.3529 27.9779 67.2658 28.2556 66.1825 28.1739C65.0993 28.0977 64.5931 27.3791 63.537 27.5642C62.4865 27.7547 61.3325 27.5097 60.5268 27.5261Z" fill="#3A52AA"/>
<path d="M56.4445 27.8094C55.198 28.4736 52.5797 29.4809 51.3658 29.1379C50.7616 28.9691 50.0431 28.7295 49.281 28.5825C44.6541 31.9472 41.3119 36.918 40 42.6021C40.3048 43.2282 40.675 43.8053 41.0832 44.279C42.0358 45.3951 43.0156 45.5366 44.2186 45.7708C45.4271 46.0049 45.046 46.68 45.6394 47.3878C46.2327 48.0955 46.4831 48.5093 47.1581 48.8904C47.833 49.2716 46.9186 49.9848 46.6518 50.7633C46.3851 51.5365 46.3089 51.9775 46.8641 53.5509C47.4139 55.1298 49.0251 56.4093 49.5042 57.0191C49.9832 57.6288 49.1721 58.3421 49.379 59.6215C49.5858 60.901 49.5205 64.2983 50.7453 66.2093C51.97 68.1204 52.7049 67.8971 52.6069 66.6068C52.5089 65.3164 52.0898 64.1023 52.8355 63.1332C53.5813 62.1641 55.0946 62.4254 55.6062 60.656C56.1179 58.892 56.45 58.9736 57.2665 58.3693C58.083 57.765 57.7183 57.2532 58.4803 55.8866C59.2424 54.52 59.4656 53.2351 58.3388 52.6689C57.2175 52.1081 56.4663 52.1626 55.5028 50.8341C54.5393 49.5057 53.0369 48.2153 51.638 47.4585C50.2445 46.7018 48.029 47.6273 47.1417 47.366C46.2599 47.1101 45.6992 45.4278 45.7537 44.7744C45.8136 44.1211 45.1549 43.9577 44.518 44.1156C43.8811 44.2735 43.5273 43.8652 43.3531 43.0158C43.1789 42.1665 44.5017 41.0939 45.574 41.0068C46.6464 40.9252 47.2234 41.4206 47.4357 42.809C47.648 44.1973 48.5679 44.8833 49.5586 45.1283C50.5493 45.3788 49.9288 44.3443 49.2266 43.642C48.5244 42.9396 48.4754 42.2972 49.0034 40.7455C49.5314 39.1938 50.8378 39.3082 51.8067 37.8817C52.7757 36.4498 52.9662 37.5278 53.946 37.6694C54.9258 37.8109 54.7788 37.2828 55.1435 36.3899C55.5082 35.5025 56.7548 36.2647 57.7781 35.5406C58.8015 34.8165 56.6622 33.684 56.8038 32.6985C56.9453 31.7185 57.9197 31.7512 57.3753 30.2812C56.831 28.8112 57.5822 28.7513 57.9687 28.2068C58.3769 27.6787 57.691 27.1452 56.4445 27.8094ZM54.9966 31.4028C54.6754 32.1323 54.3923 31.9908 53.8643 32.7857C53.3309 33.586 52.5035 34.0216 51.9646 34.0923C51.4311 34.1577 50.5439 33.2049 50.5003 32.6169C50.4568 32.0289 51.3059 31.8547 52.2694 31.7294C53.2329 31.5988 54.0549 31.185 54.9258 30.499C55.6171 29.9491 55.3177 30.6786 54.9966 31.4028Z" fill="#2D3192"/>
<path d="M87.3194 46.179L87.3249 46.2443C86.9438 46.4077 86.5737 46.6908 86.3723 47.1862C85.8279 48.5256 85.7245 47.9376 84.4453 48.8468C83.1661 49.756 83.6506 50.4693 83.7213 51.3839C83.7921 52.2986 82.306 53.3276 81.5712 53.6543C80.8418 53.981 80.5152 56.0553 80.7547 57.068C80.9942 58.0752 79.7858 58.489 79.0454 59.4091C78.3051 60.3292 77.886 61.87 77.4015 62.6105C76.9225 63.3509 76.0352 63.7919 75.1643 63.6449C74.2879 63.4925 73.4768 62.0442 73.0033 60.7865C72.5297 59.5289 72.3664 58.1351 72.6386 56.7631C72.9107 55.3965 72.8182 55.5653 72.4916 53.4311C72.165 51.2968 70.6626 50.6544 69.8352 50.4529C69.0078 50.246 67.647 50.7252 66.9067 50.3005C66.1772 49.8704 65.8561 49.2497 65.3771 47.2352C64.898 45.2208 65.8887 44.7689 66.6726 43.68C67.451 42.5911 68.9806 41.4532 70.3578 41.0775C71.7295 40.7019 72.6767 41.0612 73.515 41.4859C74.3587 41.9051 74.7506 42.847 75.3548 42.9123C75.9536 42.9722 76.4707 42.6673 77.0695 42.7817C77.6683 42.896 78.0711 43.19 78.659 43.092C79.2468 42.994 78.8713 42.3189 78.7896 41.9486C78.708 41.5784 78.1745 41.671 77.4723 41.6655C76.7701 41.6655 76.5905 41.4695 76.3455 41.0013C76.0951 40.5331 75.6923 40.9414 75.3548 40.7509C75.0173 40.5603 75.0826 41.4205 75.0554 41.7526C75.0282 42.0848 74.7669 41.4968 74.7669 41.4968C74.7669 41.4968 74.4784 41.9486 74.3532 41.7418C74.2335 41.5349 74.5165 41.0285 74.4784 40.5167C74.4403 40.005 73.6946 40.1247 73.2319 39.7273C72.7692 39.3299 72.1214 39.2754 71.4846 39.4877C70.8531 39.7001 70.7334 39.5476 70.4558 40.103C70.1727 40.6638 68.801 41.0394 68.3601 40.9686C67.9246 40.8924 68.2294 40.005 68.605 39.221C68.9752 38.437 69.7481 38.6983 70.2326 37.9088C70.7116 37.1194 70.0584 37.0051 69.612 36.8798C69.1711 36.7492 69.0296 36.3299 69.4923 35.3227C69.955 34.3155 70.5701 34.5932 70.8205 35.0614C71.0709 35.5296 71.6261 35.7583 72.2249 35.7637C72.8182 35.7746 72.6767 35.3554 72.6658 34.4897C72.6549 33.624 73.0523 33.1667 73.8361 32.8346C74.62 32.5025 75.9318 31.9744 76.4326 31.5007C76.9334 31.027 77.8207 31.3374 78.2943 31.8437C78.7678 32.3446 79.8021 32.5351 80.9017 32.7203C81.2119 32.7747 81.4623 32.6495 81.6746 32.4644C84.8481 36.1829 86.9166 40.9196 87.3194 46.179Z" fill="#2D3192"/>
<path d="M82.8234 57.9882C82.2409 57.8902 82.2899 58.0807 81.9469 58.5435C81.6039 59.0009 81.103 59.5235 81.1955 60.0026C81.2881 60.4818 81.3317 61.0698 81.7346 60.7159C82.1374 60.362 82.0013 59.9373 82.573 59.6814C83.1501 59.4201 83.7 58.1406 82.8234 57.9882Z" fill="#3A52AA"/>
<path opacity="0.4" d="M64.2491 26.7368C48.9694 22.3268 46.1171 32.7421 54.2114 39.3081C62.3112 45.8742 76.1919 48.0356 78.059 43.7073C79.9315 39.3789 75.6094 30.0144 64.2491 26.7368Z" fill="white"/>
<path opacity="0.15" d="M51.495 60.0243C39.623 50.2787 39.9877 31.3591 50.4009 25.245C49.96 25.392 49.5245 25.5499 49.0836 25.7241C36.7815 30.6514 30.7992 44.6219 35.7255 56.921C37.6144 61.6414 40.8314 65.4307 44.7833 68.0277C51.114 72.2036 59.3335 73.3089 66.9107 70.2763C73.1271 67.7882 77.7268 62.9916 80.1219 57.264C76.7742 61.9245 63.3616 69.7645 51.495 60.0243Z" fill="#344593"/>
</g>
</g>
</g>
<g clip-path="url(#clip4)">
<path d="M80.2752 39.085C85.2015 51.3895 79.2137 65.3546 66.9171 70.2765C59.3344 73.309 51.1203 72.2038 44.7897 68.0279C40.8378 65.4309 37.6207 61.6415 35.7319 56.9211C30.8056 44.6166 36.7879 30.6461 49.09 25.7243C53.8148 23.8296 58.7901 23.5519 63.4006 24.619C70.7873 26.334 77.2432 31.5063 80.2752 39.085Z" fill="#B5DEFF"/>
<mask id="mask3" mask-type="alpha" maskUnits="userSpaceOnUse" x="34" y="24" width="48" height="48">
<path d="M80.2752 39.085C85.2015 51.3895 79.2137 65.3546 66.9171 70.2765C59.3344 73.309 51.1203 72.2038 44.7897 68.0279C40.8378 65.4309 37.6207 61.6415 35.7319 56.9211C30.8056 44.6166 36.7879 30.6461 49.09 25.7243C53.8148 23.8296 58.7901 23.5519 63.4006 24.619C70.7873 26.334 77.2432 31.5063 80.2752 39.085Z" fill="#B5DEFF"/>
</mask>
<g mask="url(#mask3)">
<path d="M50.5268 27.5261C49.4273 27.5424 48.0229 27.9344 49.0408 28.5551C50.0587 29.1812 50.7119 29.2356 50.7174 30.0468C50.7228 30.8581 50.1948 31.7074 50.4561 32.2791C50.7174 32.8508 51.1474 33.5204 51.5611 33.3299C51.9802 33.1339 53.1234 31.8599 53.7711 31.9197C54.4243 31.9796 56.6452 32.0776 56.9664 31.3535C57.2876 30.6294 57.6142 30.6784 58.1476 29.8726C58.6811 29.0668 58.6484 27.9888 58.0006 27.9834C57.3529 27.9779 57.2658 28.2556 56.1825 28.1739C55.0993 28.0977 54.5931 27.3791 53.537 27.5642C52.4865 27.7547 51.3325 27.5097 50.5268 27.5261Z" fill="#3A52AA"/>
<path d="M46.4445 27.8094C45.198 28.4736 42.5797 29.4809 41.3658 29.1379C40.7616 28.9691 40.0431 28.7295 39.281 28.5825C34.6541 31.9472 31.3119 36.918 30 42.6021C30.3048 43.2282 30.675 43.8053 31.0832 44.279C32.0358 45.3951 33.0156 45.5366 34.2186 45.7708C35.4271 46.0049 35.046 46.68 35.6394 47.3878C36.2327 48.0955 36.4831 48.5093 37.1581 48.8904C37.8331 49.2716 36.9186 49.9848 36.6518 50.7633C36.3851 51.5365 36.3089 51.9775 36.8641 53.5509C37.4139 55.1298 39.0251 56.4093 39.5042 57.0191C39.9832 57.6288 39.1721 58.3421 39.379 59.6215C39.5858 60.901 39.5205 64.2983 40.7453 66.2093C41.97 68.1204 42.7049 67.8971 42.6069 66.6068C42.5089 65.3164 42.0898 64.1023 42.8355 63.1332C43.5813 62.1641 45.0946 62.4254 45.6062 60.656C46.1179 58.892 46.45 58.9736 47.2665 58.3693C48.083 57.765 47.7183 57.2532 48.4803 55.8866C49.2424 54.52 49.4656 53.2351 48.3388 52.6689C47.2175 52.1081 46.4663 52.1626 45.5028 50.8341C44.5393 49.5057 43.0369 48.2153 41.638 47.4585C40.2445 46.7018 38.029 47.6273 37.1417 47.366C36.2599 47.1101 35.6992 45.4278 35.7537 44.7744C35.8136 44.1211 35.1549 43.9577 34.518 44.1156C33.8811 44.2735 33.5273 43.8652 33.3531 43.0158C33.1789 42.1665 34.5017 41.0939 35.574 41.0068C36.6464 40.9252 37.2234 41.4206 37.4357 42.809C37.648 44.1973 38.5679 44.8833 39.5586 45.1283C40.5493 45.3788 39.9288 44.3443 39.2266 43.642C38.5244 42.9396 38.4754 42.2972 39.0034 40.7455C39.5314 39.1938 40.8378 39.3082 41.8067 37.8817C42.7757 36.4498 42.9662 37.5278 43.946 37.6694C44.9258 37.8109 44.7788 37.2828 45.1435 36.3899C45.5082 35.5025 46.7548 36.2647 47.7781 35.5406C48.8015 34.8165 46.6622 33.684 46.8038 32.6985C46.9453 31.7185 47.9197 31.7512 47.3753 30.2812C46.831 28.8112 47.5822 28.7513 47.9687 28.2068C48.3769 27.6787 47.691 27.1452 46.4445 27.8094ZM44.9966 31.4028C44.6754 32.1323 44.3923 31.9908 43.8643 32.7857C43.3309 33.586 42.5035 34.0216 41.9646 34.0923C41.4311 34.1577 40.5439 33.2049 40.5003 32.6169C40.4568 32.0289 41.3059 31.8547 42.2694 31.7294C43.2329 31.5988 44.0549 31.185 44.9258 30.499C45.6171 29.9491 45.3177 30.6786 44.9966 31.4028Z" fill="#2D3192"/>
<path d="M77.3194 46.179L77.3249 46.2443C76.9438 46.4077 76.5737 46.6908 76.3723 47.1862C75.8279 48.5256 75.7245 47.9376 74.4453 48.8468C73.1661 49.756 73.6506 50.4693 73.7213 51.3839C73.7921 52.2986 72.306 53.3276 71.5712 53.6543C70.8418 53.981 70.5152 56.0553 70.7547 57.068C70.9942 58.0752 69.7858 58.489 69.0454 59.4091C68.3051 60.3292 67.886 61.87 67.4015 62.6105C66.9225 63.3509 66.0352 63.7919 65.1643 63.6449C64.2879 63.4925 63.4768 62.0442 63.0033 60.7865C62.5297 59.5289 62.3664 58.1351 62.6386 56.7631C62.9107 55.3965 62.8182 55.5653 62.4916 53.4311C62.165 51.2968 60.6626 50.6544 59.8352 50.4529C59.0078 50.246 57.647 50.7252 56.9067 50.3005C56.1772 49.8704 55.8561 49.2497 55.3771 47.2352C54.898 45.2208 55.8887 44.7689 56.6726 43.68C57.451 42.5911 58.9806 41.4532 60.3578 41.0775C61.7295 40.7019 62.6767 41.0612 63.515 41.4859C64.3587 41.9051 64.7506 42.847 65.3548 42.9123C65.9536 42.9722 66.4707 42.6673 67.0695 42.7817C67.6683 42.896 68.0711 43.19 68.659 43.092C69.2468 42.994 68.8713 42.3189 68.7896 41.9486C68.708 41.5784 68.1745 41.671 67.4723 41.6655C66.7701 41.6655 66.5905 41.4695 66.3455 41.0013C66.0951 40.5331 65.6923 40.9414 65.3548 40.7509C65.0173 40.5603 65.0826 41.4205 65.0554 41.7526C65.0282 42.0848 64.7669 41.4968 64.7669 41.4968C64.7669 41.4968 64.4784 41.9486 64.3532 41.7418C64.2335 41.5349 64.5165 41.0285 64.4784 40.5167C64.4403 40.005 63.6946 40.1247 63.2319 39.7273C62.7692 39.3299 62.1214 39.2754 61.4846 39.4877C60.8531 39.7001 60.7334 39.5476 60.4558 40.103C60.1727 40.6638 58.801 41.0394 58.3601 40.9686C57.9246 40.8924 58.2294 40.005 58.605 39.221C58.9752 38.437 59.7481 38.6983 60.2326 37.9088C60.7116 37.1194 60.0584 37.0051 59.612 36.8798C59.1711 36.7492 59.0296 36.3299 59.4923 35.3227C59.955 34.3155 60.5701 34.5932 60.8205 35.0614C61.0709 35.5296 61.6261 35.7583 62.2249 35.7637C62.8182 35.7746 62.6767 35.3554 62.6658 34.4897C62.6549 33.624 63.0523 33.1667 63.8361 32.8346C64.62 32.5025 65.9318 31.9744 66.4326 31.5007C66.9334 31.027 67.8207 31.3374 68.2943 31.8437C68.7678 32.3446 69.8021 32.5351 70.9017 32.7203C71.2119 32.7747 71.4623 32.6495 71.6746 32.4644C74.8481 36.1829 76.9166 40.9196 77.3194 46.179Z" fill="#2D3192"/>
<path d="M72.8234 57.9882C72.2409 57.8902 72.2899 58.0807 71.9469 58.5435C71.6039 59.0009 71.103 59.5235 71.1955 60.0026C71.2881 60.4818 71.3317 61.0698 71.7346 60.7159C72.1374 60.362 72.0013 59.9373 72.573 59.6814C73.1501 59.4201 73.7 58.1406 72.8234 57.9882Z" fill="#3A52AA"/>
<path opacity="0.4" d="M64.2491 26.7368C48.9694 22.3268 46.1171 32.7421 54.2114 39.3081C62.3112 45.8742 76.1919 48.0356 78.059 43.7073C79.9315 39.3789 75.6094 30.0144 64.2491 26.7368Z" fill="white"/>
<path opacity="0.15" d="M51.495 60.0243C39.623 50.2787 39.9877 31.3591 50.4009 25.245C49.96 25.392 49.5245 25.5499 49.0836 25.7241C36.7815 30.6514 30.7992 44.6219 35.7255 56.921C37.6144 61.6414 40.8314 65.4307 44.7833 68.0277C51.114 72.2036 59.3335 73.3089 66.9107 70.2763C73.1271 67.7882 77.7268 62.9916 80.1219 57.264C76.7742 61.9245 63.3616 69.7645 51.495 60.0243Z" fill="#344593"/>
</g>
</g>
<g clip-path="url(#clip5)">
<path d="M80.2752 39.085C85.2015 51.3895 79.2137 65.3546 66.9171 70.2765C59.3344 73.309 51.1203 72.2038 44.7897 68.0279C40.8378 65.4309 37.6207 61.6415 35.7319 56.9211C30.8056 44.6166 36.7879 30.6461 49.09 25.7243C53.8148 23.8296 58.7901 23.5519 63.4006 24.619C70.7873 26.334 77.2432 31.5063 80.2752 39.085Z" fill="#B5DEFF"/>
<mask id="mask4" mask-type="alpha" maskUnits="userSpaceOnUse" x="34" y="24" width="48" height="48">
<path d="M80.2752 39.085C85.2015 51.3895 79.2137 65.3546 66.9171 70.2765C59.3344 73.309 51.1203 72.2038 44.7897 68.0279C40.8378 65.4309 37.6207 61.6415 35.7319 56.9211C30.8056 44.6166 36.7879 30.6461 49.09 25.7243C53.8148 23.8296 58.7901 23.5519 63.4006 24.619C70.7873 26.334 77.2432 31.5063 80.2752 39.085Z" fill="#B5DEFF"/>
</mask>
<g mask="url(#mask4)">
<path d="M40.5269 27.5261C39.4273 27.5424 38.0229 27.9344 39.0408 28.5551C40.0587 29.1812 40.7119 29.2356 40.7174 30.0468C40.7228 30.8581 40.1948 31.7074 40.4561 32.2791C40.7174 32.8508 41.1474 33.5204 41.5611 33.3299C41.9803 33.1339 43.1234 31.8599 43.7711 31.9197C44.4243 31.9796 46.6452 32.0776 46.9664 31.3535C47.2876 30.6294 47.6142 30.6784 48.1476 29.8726C48.6811 29.0668 48.6484 27.9888 48.0006 27.9834C47.3529 27.9779 47.2658 28.2556 46.1825 28.1739C45.0993 28.0977 44.5931 27.3791 43.5371 27.5642C42.4865 27.7547 41.3325 27.5097 40.5269 27.5261Z" fill="#3A52AA"/>
<path d="M36.4445 27.8094C35.198 28.4736 32.5797 29.4809 31.3658 29.1379C30.7616 28.9691 30.0431 28.7295 29.281 28.5825C24.6541 31.9472 21.3119 36.918 20 42.6021C20.3048 43.2282 20.675 43.8053 21.0832 44.279C22.0358 45.3951 23.0156 45.5366 24.2186 45.7708C25.4271 46.0049 25.046 46.68 25.6394 47.3878C26.2327 48.0955 26.4831 48.5093 27.1581 48.8904C27.8331 49.2716 26.9186 49.9848 26.6518 50.7633C26.3851 51.5365 26.3089 51.9775 26.8641 53.5509C27.4139 55.1298 29.0251 56.4093 29.5042 57.0191C29.9832 57.6288 29.1721 58.3421 29.379 59.6215C29.5858 60.901 29.5205 64.2983 30.7453 66.2093C31.97 68.1204 32.7049 67.8971 32.6069 66.6068C32.5089 65.3164 32.0898 64.1023 32.8355 63.1332C33.5813 62.1641 35.0945 62.4254 35.6062 60.656C36.1179 58.892 36.45 58.9736 37.2665 58.3693C38.083 57.765 37.7183 57.2532 38.4803 55.8866C39.2424 54.52 39.4656 53.2351 38.3388 52.6689C37.2175 52.1081 36.4663 52.1626 35.5028 50.8341C34.5393 49.5057 33.0369 48.2153 31.638 47.4585C30.2445 46.7018 28.029 47.6273 27.1417 47.366C26.2599 47.1101 25.6992 45.4278 25.7537 44.7744C25.8136 44.1211 25.1549 43.9577 24.518 44.1156C23.8811 44.2735 23.5273 43.8652 23.3531 43.0158C23.1789 42.1665 24.5017 41.0939 25.574 41.0068C26.6464 40.9252 27.2234 41.4206 27.4357 42.809C27.648 44.1973 28.5679 44.8833 29.5586 45.1283C30.5493 45.3788 29.9288 44.3443 29.2266 43.642C28.5244 42.9396 28.4754 42.2972 29.0034 40.7455C29.5314 39.1938 30.8378 39.3082 31.8067 37.8817C32.7757 36.4498 32.9662 37.5278 33.946 37.6694C34.9258 37.8109 34.7788 37.2828 35.1435 36.3899C35.5083 35.5025 36.7548 36.2647 37.7781 35.5406C38.8015 34.8165 36.6622 33.684 36.8038 32.6985C36.9453 31.7185 37.9197 31.7512 37.3753 30.2812C36.831 28.8112 37.5822 28.7513 37.9687 28.2068C38.3769 27.6787 37.691 27.1452 36.4445 27.8094ZM34.9966 31.4028C34.6754 32.1323 34.3923 31.9908 33.8643 32.7857C33.3309 33.586 32.5035 34.0216 31.9646 34.0923C31.4311 34.1577 30.5439 33.2049 30.5003 32.6169C30.4568 32.0289 31.3059 31.8547 32.2694 31.7294C33.2329 31.5988 34.0549 31.185 34.9258 30.499C35.6171 29.9491 35.3177 30.6786 34.9966 31.4028Z" fill="#2D3192"/>
<path d="M67.3194 46.179L67.3249 46.2443C66.9438 46.4077 66.5737 46.6908 66.3723 47.1862C65.8279 48.5256 65.7245 47.9376 64.4453 48.8468C63.1661 49.756 63.6506 50.4693 63.7213 51.3839C63.7921 52.2986 62.306 53.3276 61.5712 53.6543C60.8418 53.981 60.5152 56.0553 60.7547 57.068C60.9942 58.0752 59.7858 58.489 59.0454 59.4091C58.3051 60.3292 57.886 61.87 57.4015 62.6105C56.9225 63.3509 56.0352 63.7919 55.1643 63.6449C54.2879 63.4925 53.4768 62.0442 53.0033 60.7865C52.5297 59.5289 52.3664 58.1351 52.6386 56.7631C52.9107 55.3965 52.8182 55.5653 52.4916 53.4311C52.165 51.2968 50.6626 50.6544 49.8352 50.4529C49.0078 50.246 47.647 50.7252 46.9067 50.3005C46.1772 49.8704 45.8561 49.2497 45.3771 47.2352C44.898 45.2208 45.8887 44.7689 46.6726 43.68C47.451 42.5911 48.9806 41.4532 50.3578 41.0775C51.7295 40.7019 52.6767 41.0612 53.515 41.4859C54.3587 41.9051 54.7506 42.847 55.3548 42.9123C55.9536 42.9722 56.4707 42.6673 57.0695 42.7817C57.6683 42.896 58.0711 43.19 58.659 43.092C59.2468 42.994 58.8713 42.3189 58.7896 41.9486C58.708 41.5784 58.1745 41.671 57.4723 41.6655C56.7701 41.6655 56.5905 41.4695 56.3455 41.0013C56.0951 40.5331 55.6923 40.9414 55.3548 40.7509C55.0173 40.5603 55.0826 41.4205 55.0554 41.7526C55.0282 42.0848 54.7669 41.4968 54.7669 41.4968C54.7669 41.4968 54.4784 41.9486 54.3532 41.7418C54.2335 41.5349 54.5165 41.0285 54.4784 40.5167C54.4403 40.005 53.6946 40.1247 53.2319 39.7273C52.7692 39.3299 52.1214 39.2754 51.4846 39.4877C50.8531 39.7001 50.7334 39.5476 50.4558 40.103C50.1727 40.6638 48.801 41.0394 48.3601 40.9686C47.9246 40.8924 48.2294 40.005 48.605 39.221C48.9752 38.437 49.7481 38.6983 50.2326 37.9088C50.7116 37.1194 50.0584 37.0051 49.612 36.8798C49.1711 36.7492 49.0296 36.3299 49.4923 35.3227C49.955 34.3155 50.5701 34.5932 50.8205 35.0614C51.0709 35.5296 51.6261 35.7583 52.2249 35.7637C52.8182 35.7746 52.6767 35.3554 52.6658 34.4897C52.6549 33.624 53.0523 33.1667 53.8361 32.8346C54.62 32.5025 55.9318 31.9744 56.4326 31.5007C56.9334 31.027 57.8207 31.3374 58.2943 31.8437C58.7678 32.3446 59.8021 32.5351 60.9017 32.7203C61.2119 32.7747 61.4623 32.6495 61.6746 32.4644C64.8481 36.1829 66.9166 40.9196 67.3194 46.179Z" fill="#2D3192"/>
<path d="M62.8234 57.9882C62.2409 57.8902 62.2899 58.0807 61.9469 58.5435C61.6039 59.0009 61.103 59.5235 61.1955 60.0026C61.2881 60.4818 61.3317 61.0698 61.7346 60.7159C62.1374 60.362 62.0013 59.9373 62.573 59.6814C63.1501 59.4201 63.7 58.1406 62.8234 57.9882Z" fill="#3A52AA"/>
<path opacity="0.4" d="M64.2491 26.7368C48.9694 22.3268 46.1171 32.7421 54.2114 39.3081C62.3112 45.8742 76.1919 48.0356 78.059 43.7073C79.9315 39.3789 75.6094 30.0144 64.2491 26.7368Z" fill="white"/>
<path opacity="0.15" d="M51.495 60.0243C39.623 50.2787 39.9877 31.3591 50.4009 25.245C49.96 25.392 49.5245 25.5499 49.0836 25.7241C36.7815 30.6514 30.7992 44.6219 35.7255 56.921C37.6144 61.6414 40.8314 65.4307 44.7833 68.0277C51.114 72.2036 59.3335 73.3089 66.9107 70.2763C73.1271 67.7882 77.7268 62.9916 80.1219 57.264C76.7742 61.9245 63.3616 69.7645 51.495 60.0243Z" fill="#344593"/>
</g>
</g>
<path opacity="0.3" d="M59.8678 20.5351C59.0575 20.9972 58.115 21.1615 57.0691 21.1307C57.0518 21.1307 57.0403 21.1307 57.0231 21.1307C57.0346 21.1307 57.0518 21.1307 57.0633 21.1307V147.746C57.684 147.746 58.3161 147.592 58.931 147.242L98.5901 126.784C99.3257 126.42 99.682 126.101 99.682 125.655V0L59.8678 20.5351Z" fill="url(#paint8_linear)"/>
<path opacity="0.5" d="M56.9839 21.1307C56.7482 21.1359 56.5181 21.1256 56.2936 21.1051C56.2768 21.1051 56.2655 21.0999 56.2487 21.0999C56.0242 21.0794 55.8054 21.0434 55.5977 21.0024C55.4574 20.9715 55.3227 20.9253 55.188 20.8894C55.1039 20.8637 55.0141 20.8483 54.9355 20.8175C54.7222 20.7405 54.509 20.6532 54.307 20.5505L15.4047 0V125.655C15.4215 126.06 15.7021 126.374 16.1567 126.615L55.2049 147.242C55.839 147.628 56.3834 147.73 56.9727 147.741C56.9895 147.741 57.0063 147.746 57.0232 147.746V21.1307C57.0063 21.1307 56.9951 21.1307 56.9839 21.1307Z" fill="url(#paint9_linear)"/>
<path d="M113.662 116.837C113.799 118.046 115.247 123.26 114.937 125.054C114.627 126.84 109.701 129.828 109.701 129.828L109.017 126.768L111.747 124.096L111.012 119.026L113.662 116.837Z" fill="#FFA8A7"/>
<path d="M109.846 110.974C110.551 110.672 111.862 110.6 112.589 111.803C113.317 113.005 114.066 117.125 114.138 117.83C114.138 117.83 113.122 119.235 111.596 119.004L109.846 110.974Z" fill="#E4F2F2"/>
<path d="M110.537 166.412C110.537 166.412 110.595 166.945 110.753 167.622C110.883 168.148 110.904 168.825 110.321 169.019C109.73 169.206 109.061 169.149 108.679 168.638C108.211 168.004 107.959 167.212 107.282 166.592C106.627 166.002 105.813 165.332 105.582 164.389C105.366 163.539 105.503 163.006 106.086 162.919C106.821 162.811 107.988 163.431 108.585 163.87C109.017 164.18 110.537 166.412 110.537 166.412Z" fill="#2D2979"/>
<path d="M103.796 168.882C103.796 168.882 103.839 169.559 103.883 170.099C103.926 170.64 104.113 171.497 103.94 171.9C103.767 172.296 102.882 172.591 101.837 172.584C101.16 172.577 99.8496 173.102 99.3815 173.506C98.719 174.082 97.1923 174.312 96.2993 174.031C95.3991 173.751 94.4052 173.333 94.254 172.922C94.1028 172.512 94.5709 172.303 96.7602 171.302C98.9494 170.301 100.563 169.61 101.412 168.45L103.796 168.882Z" fill="#2D2979"/>
<path d="M111.07 154.775C110.695 151.908 110.105 150.209 110.105 150.209C110.105 150.209 110.393 146.269 110.537 142.532C110.703 138.29 112.172 134.56 111.012 131.175L97.9269 134.084C97.9269 134.084 98.7191 150.994 98.8919 153.039C98.9855 154.148 99.0215 155.257 99.4824 157.785C100.08 161.069 101.052 168.875 101.052 168.875C102.435 169.682 103.803 168.882 103.803 168.882C103.803 168.882 104.156 159.362 104.063 156.993C103.955 154.105 103.868 154.328 103.868 154.328L104.3 147.134L104.581 143.554C104.581 143.554 104.941 146.183 105.179 148.531C105.388 150.576 105.877 152.427 106.432 156.236C106.907 159.542 108.16 166.348 108.16 166.348C109.543 167.154 110.544 166.427 110.544 166.427C110.544 166.427 111.437 157.641 111.07 154.775Z" fill="#C4D9FF"/>
<path d="M104.574 143.555C104.574 143.555 104.934 146.183 105.171 148.531C105.272 149.517 105.438 150.461 105.647 151.592C105.647 151.592 105.46 147.22 105.532 145.153C105.604 143.086 105.812 140.854 105.812 140.854C108.563 139.687 109.132 138.009 109.132 138.009C107.094 139.752 104.941 140.285 104.941 140.285L104.574 143.555Z" fill="#9EBCE8"/>
<path d="M109.154 111.046C108.16 111.097 107.419 111.349 107.289 111.061C107.188 110.83 107.066 109.505 107.058 109.505C107.174 109.217 107.275 108.907 107.275 108.907C108.528 108.137 109.421 106.833 109.586 105.263C109.867 102.57 107.908 100.165 105.222 99.8838C102.694 99.6173 100.829 101.396 100.332 103.845C100.066 105.047 99.7056 107.611 100.426 109.592C100.829 110.701 101.175 111.19 101.693 111.363C101.873 111.399 102.838 111.378 103.191 111.342C103.191 111.342 103.328 112.09 103.414 112.566C103.508 113.048 103.472 113.3 102.514 113.891C101.556 114.481 103.962 115.691 105.525 115.569C107.094 115.446 108.859 114.503 109.341 113.488C109.889 112.35 109.838 111.01 109.154 111.046Z" fill="#FFA8A7"/>
<path d="M102.514 113.877C102.478 113.898 102.464 113.92 102.435 113.941L103.803 114.409L107.851 113.783L108.794 111.37C108.794 111.37 108.758 111.255 108.7 111.082C107.937 111.162 107.397 111.306 107.289 111.053C107.217 110.881 107.123 110.081 107.08 109.7C106.353 109.829 105.496 109.98 105.287 109.988C104.912 110.002 103.623 108.101 103.623 108.101C103.623 108.101 103.443 109.692 103.27 110.132C103.098 110.571 101.916 111.255 101.484 111.248C101.549 111.284 101.614 111.313 101.686 111.342C101.866 111.378 102.831 111.356 103.184 111.32C103.184 111.32 103.321 112.069 103.407 112.544C103.508 113.034 103.472 113.286 102.514 113.877Z" fill="#F28F8F"/>
<path d="M109.615 102.196C109.493 101.612 109.082 100.856 105.935 99.9702C102.925 99.1277 100.57 98.7676 99.9865 99.1565C99.4103 99.5453 99.2663 102.52 102.111 103.938C102.226 104.154 102.298 104.406 102.298 104.752C102.298 105.213 102.248 105.58 102.298 106.084C102.37 106.797 103.134 106.848 103.134 106.848C103.134 106.848 103.141 106.437 103.141 105.587C103.407 104.997 104.437 104.846 104.812 105.667C105.186 106.488 104.977 107.172 104.718 107.669C104.387 108.295 103.825 108.346 103.638 108.122C103.638 108.835 103.775 109.901 104.574 110.801C105.64 111.104 106.691 110.643 107.152 110.24C107.267 109.923 107.635 109.347 108.11 108.583C108.693 107.654 109.298 107.049 109.622 105.544C109.91 104.162 109.845 103.326 109.615 102.196Z" fill="#3A2C6D"/>
<path d="M107.714 111.198C107.987 111.889 107.289 112.724 105.416 113.315C103.544 113.905 103.378 113.149 103.378 113.149C103.378 113.149 100.635 114.402 99.7416 115.022C98.6182 115.807 98.1213 118.082 97.97 121.914C97.7972 126.357 97.7828 132.939 97.9268 134.077C97.9268 134.077 100.03 136.173 102.716 135.949C105.402 135.726 109.925 133.35 111.019 131.513C110.991 127.617 110.537 126.983 111.163 124.744C112.604 119.609 113.367 117.506 112.668 114.093C112.092 111.277 111.279 110.931 110.17 110.96C109.046 110.989 107.714 111.198 107.714 111.198Z" fill="#F5FBFB"/>
<path d="M107.231 110.816C106.842 111.306 105.488 112.379 103.393 112.436C102.989 112.372 102.766 113.149 102.536 113.538C102.536 113.538 103.479 114.309 105.575 113.776C107.671 113.243 108.412 111.702 108.232 111.126C108.232 111.126 107.562 110.391 107.231 110.816Z" fill="#E4F2F2"/>
<path d="M93.7426 126.307C95.9463 126.861 96.4648 125.471 96.7528 124.319C97.4514 121.532 97.8331 119.011 98.3516 117.434C98.9637 115.569 99.6119 115.274 100.519 114.906C101.585 114.482 102.5 115.382 102.147 117.751C101.729 120.56 101.175 122.533 100.123 125.86C99.8495 126.724 99.2302 128.273 98.3156 129.014C97.1777 129.936 95.4638 129.893 92.8712 129.252C91.7621 128.978 90.5523 128.316 88.4638 127.344C87.9021 127.084 87.4628 126.904 86.3897 126.407C85.3095 125.903 84.1933 125.068 83.6243 124.247C83.0554 123.426 82.9834 123.044 83.0986 122.857C83.2426 122.619 83.5019 122.677 83.7972 123.015C84.0996 123.361 84.5389 123.98 85.3815 124.485C85.3815 124.485 84.683 123.764 84.3085 123.296C83.934 122.828 83.6387 122.317 83.4731 121.935C83.2715 121.46 83.6819 120.812 83.9988 121.15C84.3157 121.489 84.4597 121.834 85.0286 122.519C85.5471 123.138 86.0513 123.491 86.0513 123.491C86.0513 123.491 85.4751 122.713 85.1079 121.978C84.7478 121.237 84.7478 120.862 84.7622 120.61C84.7766 120.358 85.1295 120.063 85.4607 120.538C85.756 120.963 85.9505 121.625 86.6418 122.346C87.1459 122.871 87.5708 123.167 87.5852 123.023C87.5996 122.879 87.2827 122.591 87.1027 121.986C86.9299 121.402 87.1099 120.732 87.4412 120.66C87.7724 120.588 87.7148 120.61 87.9813 121.179C88.2477 121.748 88.6655 122.173 88.9823 123.001C89.2632 123.736 89.3856 124.031 89.8897 124.564C90.4442 125.14 91.6469 125.774 93.7426 126.307Z" fill="#FFA8A7"/>
<path d="M101.34 114.525C99.8713 114.309 98.827 114.971 98.1789 117.204C97.5307 119.436 97.077 121.265 97.077 121.265C97.077 121.265 97.7828 122.475 99.54 122.907C101.304 123.332 101.938 122.49 101.938 122.49C101.938 122.49 102.428 120.149 102.73 118.558C103.033 116.966 103.162 114.791 101.34 114.525Z" fill="#E4F2F2"/>
<path d="M13.4017 172.642C13.4017 172.642 13.1785 173.031 11.9686 172.527C10.7588 172.023 10.4203 171.418 10.4203 171.418C10.4203 171.418 10.7372 168.998 11.4789 169.603C12.2279 170.208 13.4017 172.642 13.4017 172.642Z" fill="#291D51"/>
<path d="M10.3703 164.166C10.3919 165.433 10.4207 166.405 9.9382 167.089C9.45569 167.774 9.41248 168.234 9.41248 168.234C9.41248 168.234 10.8456 168.436 11.573 169.423C12.3003 170.409 12.2643 171.396 12.9341 171.562C13.611 171.727 14.7417 170.949 14.7417 170.949C14.7417 170.949 14.0287 170.921 13.7478 170.02C13.467 169.12 12.7468 167.205 12.7252 166.7C12.6964 166.196 12.7252 164.245 12.7252 164.245L10.3703 164.166Z" fill="#FFA8A7"/>
<path d="M10.3556 167.413C10.9821 167.449 11.94 168.148 12.2568 168.875C12.5737 169.596 13.1066 170.618 13.5099 170.841C13.9132 171.072 14.6334 170.741 15.2455 170.733C15.8576 170.733 16.2897 171.014 16.3257 171.461C16.3257 171.461 14.3597 172.39 13.7692 172.671C13.1786 172.951 12.6817 172.959 12.2208 171.734C11.7599 170.51 11.5799 169.826 11.2126 170.654C10.8453 171.49 10.6941 173.355 10.6941 173.355C10.6941 173.355 10.19 173.542 9.95231 173.045C9.95231 173.045 9.96672 172.166 9.86589 171.41C9.75787 170.661 9.08093 169.711 9.13134 168.803C9.18175 167.903 9.67865 167.37 10.3556 167.413Z" fill="#2D2979"/>
<path d="M22.9077 177.546C22.9077 177.546 22.6773 177.95 21.4314 177.424C20.1855 176.898 19.8326 176.279 19.8326 176.279C19.8326 176.279 20.1567 173.773 20.9273 174.406C21.6979 175.04 22.9077 177.546 22.9077 177.546Z" fill="#291D51"/>
<path d="M19.7753 168.775C19.7969 170.086 19.8329 171.094 19.3288 171.8C18.8319 172.505 18.7887 172.981 18.7887 172.981C18.7887 172.981 20.2722 173.189 21.0284 174.212C21.7845 175.235 21.7414 176.257 22.4399 176.423C23.1385 176.589 24.3051 175.789 24.3051 175.789C24.3051 175.789 23.5633 175.76 23.2753 174.831C22.9872 173.902 22.2454 171.922 22.2166 171.396C22.1878 170.878 22.0942 168.775 22.0942 168.775H19.7753Z" fill="#FFA8A7"/>
<path d="M19.7608 172.145C20.4089 172.188 21.3955 172.908 21.7268 173.657C22.0581 174.406 22.6054 175.458 23.0231 175.688C23.4408 175.926 24.1898 175.58 24.8235 175.573C25.4572 175.573 25.9037 175.861 25.9397 176.322C25.9397 176.322 23.9089 177.287 23.2967 177.575C22.6846 177.863 22.1733 177.87 21.698 176.61C21.2227 175.343 21.0355 174.63 20.661 175.494C20.2793 176.358 20.1209 178.288 20.1209 178.288C20.1209 178.288 19.6023 178.482 19.3503 177.964C19.3503 177.964 19.3647 177.056 19.2567 176.272C19.1486 175.494 18.4429 174.514 18.4933 173.578C18.5509 172.649 19.0622 172.102 19.7608 172.145Z" fill="#2D2979"/>
<path d="M9.74351 112.055C8.59846 112.386 7.9431 113.654 6.93488 116.369C5.92665 119.084 4.87523 123.044 5.01206 124.089C5.33614 126.645 6.92768 128.835 9.66428 130.649L10.8886 128.41C10.8886 128.41 8.20237 126.249 7.94312 123.685C7.79908 122.245 9.66428 117.355 9.66428 117.226C9.66428 117.096 9.74351 112.055 9.74351 112.055Z" fill="#FFA8A7"/>
<path d="M8.87917 156.496C8.87917 154.141 9.41929 152.564 9.41929 152.564C9.41929 152.564 8.43988 147.732 8.0798 144.016C7.54689 138.528 6.57465 137.21 7.45325 133.962C8.25982 130.966 9.53452 128.878 10.3915 126.775L19.3503 127.481C19.3503 127.481 20.128 130.023 21.1363 135.078C22.1445 140.134 22.5982 146.111 22.5046 154.083C22.4758 156.136 22.4614 157.972 22.3389 163.093C22.2597 166.535 22.2165 171.166 22.2165 171.166C20.8338 171.972 19.6672 171.058 19.6672 171.058C19.6672 171.058 17.5499 160.853 17.2042 158.505C16.8513 156.086 17.5139 154.638 17.5139 154.638C17.5139 154.638 16.8441 151.433 16.34 148.913C15.7279 145.845 14.2228 139.205 14.2228 139.205C14.2228 139.205 14.1795 149.359 14.0355 151.412C13.8915 153.464 13.9779 155.099 13.5962 157.828C13.1353 161.134 12.7248 166.701 12.7248 166.701C11.2917 167.046 10.2763 166.269 10.2763 166.269C10.2763 166.269 8.87917 159.391 8.87917 156.496Z" fill="#7FA8E6"/>
<path d="M14.2229 139.205C14.2229 139.205 14.1797 149.359 14.0356 151.412C14.0212 151.671 13.9996 151.894 13.9852 152.11V152.125C13.9852 152.161 13.978 152.197 13.978 152.233L12.9338 140.357C10.0459 139.529 9.13135 137.592 9.13135 137.592C11.0758 139.543 14.2229 139.205 14.2229 139.205Z" fill="#597BC6"/>
<path d="M10.2692 112.005C12.1776 111.889 12.3576 112.206 12.5161 111.529C12.5737 111.284 12.6745 109.606 12.6745 109.606C12.5089 109.426 12.1992 108.901 12.1992 108.901C10.9461 108.13 10.0531 106.827 9.88749 105.257C9.60663 102.563 11.5583 100.158 14.2517 99.877C16.7794 99.6106 18.6446 101.389 19.1415 103.831C19.408 105.033 19.6889 107.503 18.9399 109.477C18.515 110.593 18.1261 111.378 17.1107 111.335C16.9234 111.328 16.5562 111.263 16.1169 111.155C16.0809 111.515 16.0377 112.062 16.0593 112.559C16.0881 113.049 16.0017 113.294 16.9595 113.884C17.9173 114.475 15.5119 115.685 13.9492 115.562C12.3793 115.44 10.6149 114.496 10.1323 113.481C9.59222 112.35 9.36898 112.062 10.2692 112.005Z" fill="#FFA8A7"/>
<path d="M10.1324 113.481C9.59226 112.35 9.37622 112.062 10.2764 112.005C12.1848 111.889 12.3649 112.206 12.5233 111.529C12.5809 111.284 12.6817 109.606 12.6817 109.606C12.5161 109.426 12.2064 108.901 12.2064 108.901C11.5223 108.476 10.9462 107.892 10.5357 107.187C10.6005 107.122 10.6509 107.079 10.6509 107.079L14.727 109.182L15.4832 109.016L16.0881 108.332C16.0881 108.332 16.1817 109.513 16.369 110.046C16.549 110.579 17.7805 111.191 17.7949 111.198C17.6076 111.292 17.3844 111.335 17.1251 111.328C16.9379 111.32 16.5706 111.256 16.1313 111.148C16.0953 111.508 16.0521 112.055 16.0737 112.552C16.1025 113.042 16.0161 113.286 16.9739 113.877C17.9317 114.468 15.5264 115.677 13.9636 115.555C12.3793 115.44 10.6149 114.496 10.1324 113.481Z" fill="#F28F8F"/>
<path d="M11.6663 109.066C10.442 107.943 10.0531 106.834 9.88748 105.257C9.60662 102.563 11.5582 100.158 14.2516 99.8771C15.9944 99.697 17.4203 100.482 18.3061 101.793C18.3061 101.793 18.1261 102.16 17.8453 102.426C17.8453 102.426 18.0685 103.053 17.6724 103.492C17.3915 103.809 17.3051 104.263 17.3699 104.681C17.442 105.141 17.4924 105.71 17.442 106.207C17.3699 106.92 16.7074 107.237 16.7074 107.237C16.7074 107.237 16.6138 106.157 16.3401 105.566C16.0737 104.976 15.0438 104.825 14.6693 105.646C14.2949 106.467 14.4461 107.107 14.835 107.784C15.1878 108.397 15.7496 108.44 16.0809 108.332C16.1601 108.605 16.0665 109.534 15.0078 109.83C13.942 110.132 12.9554 109.851 12.408 109.57C12.0768 109.419 11.6663 109.066 11.6663 109.066Z" fill="#543354"/>
<path d="M17.1035 100.569C17.7733 100.439 19.6529 100.821 19.6385 102.787C19.6241 104.385 18.5654 105.516 17.1827 105.898L17.1035 100.569Z" fill="#543354"/>
<path d="M12.1632 111.968C11.8103 112.408 11.7743 112.962 13.1354 113.301C14.9142 113.747 16.1168 113.07 16.1168 113.07C16.1168 113.07 17.9533 113.834 19.1991 114.705C22.2454 116.822 22.98 120.495 19.9049 121.755C19.7176 123.138 19.4872 126.689 19.4296 127.495C16.8298 129.31 11.5582 128.691 10.37 126.768C10.3556 126.112 10.2332 125.011 10.1899 124.845C8.95127 120.25 7.97906 119.026 8.32473 115.562C8.51918 113.582 8.6776 112.581 9.72903 112.048C10.3772 111.86 11.7815 111.94 12.1632 111.968Z" fill="#F5FBFB"/>
<path d="M16.7505 113.358C16.7505 113.358 16.4336 112.501 16.3616 112.292C16.2896 112.091 16.0519 112.055 16.0519 112.055C16.0519 112.055 15.699 112.494 14.554 112.372C13.4089 112.256 12.5015 111.738 12.5375 111.327L12.5663 111.068C12.5663 111.068 12.2423 111.011 12.0118 111.255C11.7814 111.5 11.4429 111.947 11.4429 111.947C11.4429 111.947 11.2556 112.89 12.7896 113.459C14.3235 114.042 15.7206 113.812 16.7505 113.358Z" fill="#E4F2F2"/>
<path d="M31.2329 135.842C30.6064 135.748 30.1023 135.438 29.2165 135.374C28.4315 135.323 27.9274 135.258 27.236 135.014C26.5519 134.769 25.7453 133.905 24.485 132.169C23.0015 130.124 21.8709 127.077 21.5684 125.695C20.9058 122.713 20.625 118.565 20.6322 117.11C20.6322 115.368 19.84 114.676 18.9254 114.331C17.8524 113.927 17.1034 114.302 17.1826 116.7C17.2618 119.098 17.6651 123.52 18.6085 126.653C19.0622 128.172 19.8832 130.513 21.7844 133.156C23.1095 134.999 23.6136 135.568 25.3132 137.066C25.7741 137.477 26.019 137.894 26.8111 138.78C27.6033 139.666 28.734 140.494 29.6846 140.796C30.628 141.099 31.0241 141.056 31.1681 140.89C31.3482 140.681 31.2257 140.451 30.808 140.264C30.3903 140.076 29.6702 139.831 28.9428 139.176C28.9428 139.176 29.8358 139.63 30.3903 139.86C30.9449 140.083 31.521 140.22 31.9387 140.264C32.45 140.314 32.9541 139.731 32.5364 139.536C32.1187 139.335 31.7443 139.299 30.9233 138.946C30.1743 138.629 29.6918 138.254 29.6918 138.254C29.6918 138.254 30.5992 138.586 31.413 138.715C32.2268 138.845 32.5868 138.73 32.8245 138.643C33.0621 138.557 33.2422 138.132 32.6876 137.952C32.1979 137.793 31.5066 137.801 30.6136 137.347C29.9654 137.016 29.555 136.699 29.6918 136.641C29.8286 136.584 30.1959 136.807 30.8296 136.8C31.4346 136.792 32.0251 136.432 31.9963 136.094C31.9675 135.755 31.8523 135.935 31.2329 135.842Z" fill="#FFA8A7"/>
</g>
<defs>
<linearGradient id="paint0_linear" x1="28.2723" y1="121.693" x2="34.9832" y2="121.693" gradientUnits="userSpaceOnUse">
<stop stop-color="#C8E2FF"/>
<stop offset="0.1783" stop-color="#C2DEFC"/>
<stop offset="0.4099" stop-color="#B2D1F4"/>
<stop offset="0.671" stop-color="#97BCE7"/>
<stop offset="0.9518" stop-color="#729FD5"/>
<stop offset="1" stop-color="#6B99D1"/>
</linearGradient>
<linearGradient id="paint1_linear" x1="33.8953" y1="124.954" x2="40.6062" y2="124.954" gradientUnits="userSpaceOnUse">
<stop stop-color="#C8E2FF"/>
<stop offset="0.1783" stop-color="#C2DEFC"/>
<stop offset="0.4099" stop-color="#B2D1F4"/>
<stop offset="0.671" stop-color="#97BCE7"/>
<stop offset="0.9518" stop-color="#729FD5"/>
<stop offset="1" stop-color="#6B99D1"/>
</linearGradient>
<linearGradient id="paint2_linear" x1="39.5183" y1="128.215" x2="46.2289" y2="128.215" gradientUnits="userSpaceOnUse">
<stop stop-color="#C8E2FF"/>
<stop offset="0.1783" stop-color="#C2DEFC"/>
<stop offset="0.4099" stop-color="#B2D1F4"/>
<stop offset="0.671" stop-color="#97BCE7"/>
<stop offset="0.9518" stop-color="#729FD5"/>
<stop offset="1" stop-color="#6B99D1"/>
</linearGradient>
<linearGradient id="paint3_linear" x1="45.141" y1="131.476" x2="51.8518" y2="131.476" gradientUnits="userSpaceOnUse">
<stop stop-color="#C8E2FF"/>
<stop offset="0.1783" stop-color="#C2DEFC"/>
<stop offset="0.4099" stop-color="#B2D1F4"/>
<stop offset="0.671" stop-color="#97BCE7"/>
<stop offset="0.9518" stop-color="#729FD5"/>
<stop offset="1" stop-color="#6B99D1"/>
</linearGradient>
<linearGradient id="paint4_linear" x1="86.715" y1="121.693" x2="80.0044" y2="121.693" gradientUnits="userSpaceOnUse">
<stop stop-color="#C8E2FF"/>
<stop offset="0.1783" stop-color="#C2DEFC"/>
<stop offset="0.4099" stop-color="#B2D1F4"/>
<stop offset="0.671" stop-color="#97BCE7"/>
<stop offset="0.9518" stop-color="#729FD5"/>
<stop offset="1" stop-color="#6B99D1"/>
</linearGradient>
<linearGradient id="paint5_linear" x1="81.0922" y1="124.954" x2="74.3816" y2="124.954" gradientUnits="userSpaceOnUse">
<stop stop-color="#C8E2FF"/>
<stop offset="0.1783" stop-color="#C2DEFC"/>
<stop offset="0.4099" stop-color="#B2D1F4"/>
<stop offset="0.671" stop-color="#97BCE7"/>
<stop offset="0.9518" stop-color="#729FD5"/>
<stop offset="1" stop-color="#6B99D1"/>
</linearGradient>
<linearGradient id="paint6_linear" x1="75.4691" y1="128.215" x2="68.7585" y2="128.215" gradientUnits="userSpaceOnUse">
<stop stop-color="#C8E2FF"/>
<stop offset="0.1783" stop-color="#C2DEFC"/>
<stop offset="0.4099" stop-color="#B2D1F4"/>
<stop offset="0.671" stop-color="#97BCE7"/>
<stop offset="0.9518" stop-color="#729FD5"/>
<stop offset="1" stop-color="#6B99D1"/>
</linearGradient>
<linearGradient id="paint7_linear" x1="69.8466" y1="131.476" x2="63.1355" y2="131.476" gradientUnits="userSpaceOnUse">
<stop stop-color="#C8E2FF"/>
<stop offset="0.1783" stop-color="#C2DEFC"/>
<stop offset="0.4099" stop-color="#B2D1F4"/>
<stop offset="0.671" stop-color="#97BCE7"/>
<stop offset="0.9518" stop-color="#729FD5"/>
<stop offset="1" stop-color="#6B99D1"/>
</linearGradient>
<linearGradient id="paint8_linear" x1="105.5" y1="170" x2="32.644" y2="20.3582" gradientUnits="userSpaceOnUse">
<stop stop-color="#FF931E"/>
<stop offset="1" stop-color="#FF931E" stop-opacity="0"/>
</linearGradient>
<linearGradient id="paint9_linear" x1="36" y1="167" x2="36.6931" y2="56.8722" gradientUnits="userSpaceOnUse">
<stop stop-color="#FF931E"/>
<stop offset="1" stop-color="#FF931E" stop-opacity="0"/>
</linearGradient>
<clipPath id="clip0">
<rect width="130" height="180" fill="white"/>
</clipPath>
<clipPath id="clip1">
<rect width="48" height="48" fill="white" transform="translate(34 24)"/>
</clipPath>
<clipPath id="clip2">
<rect width="48" height="48" fill="white" transform="translate(34 24)"/>
</clipPath>
<clipPath id="clip3">
<rect width="48" height="48" fill="white" transform="translate(34 24)"/>
</clipPath>
<clipPath id="clip4">
<rect width="48" height="48" fill="white" transform="translate(34 24)"/>
</clipPath>
<clipPath id="clip5">
<rect width="48" height="48" fill="white" transform="translate(34 24)"/>
</clipPath>
</defs>
</svg>
